<svg xmlns="http://www.w3.org/2000/svg">
<defs>
<font id="212Keyboard" horiz-adv-x="778" >
  <font-face 
    font-family="212 Keyboard"
    font-weight="400"
    font-stretch="normal"
    units-per-em="1000"
    panose-1="0 0 0 0 0 0 0 0 0 0"
    ascent="800"
    descent="-200"
    x-height="699"
    cap-height="700"
    bbox="40 0 2324 700"
    underline-thickness="50"
    underline-position="-75"
    unicode-range="U+000A-F00C"
  />
<missing-glyph horiz-adv-x="236" 
d="M189 569c-5 3 -9 6 -11 9c5 0 9 -2 13 -6c0 -2 -1 -3 -2 -3zM155 370c-13 0 -24 2 -34 7c0 0 -1 0 -1 1c-1 0 -2 0 -2 1c8 0 13 2 16 8l5 5c8 0 17 -2 29 -6c9 -4 13 -7 13 -9c-5 -5 -14 -7 -26 -7zM113 382h-2v4c3 3 9 5 21 7c-4 -6 -11 -10 -19 -11zM154 300
c16 1 32 2 47 3c10 2 16 9 19 20c0 7 -11 11 -34 11c-11 0 -21 -5 -28 -15c-5 15 -12 27 -22 36c3 -1 6 -2 10 -2c11 0 21 2 30 6s14 10 14 18c0 4 -5 8 -15 12c-11 4 -21 7 -31 7l-3 1l1 6c0 8 -3 15 -9 21l48 1c3 0 5 3 7 10c0 4 -5 7 -14 8c-8 0 -20 2 -38 7
c-15 5 -22 9 -22 12s3 4 8 4l39 -1c13 0 21 2 23 5c3 4 4 7 4 8c0 3 -18 15 -54 37c22 0 34 1 36 2c8 1 13 6 15 15c0 3 -16 15 -50 36c13 4 25 7 38 9c5 -9 11 -13 17 -13c4 0 7 2 9 6c0 11 -5 18 -15 21c-4 0 -9 1 -16 1c-6 6 -11 9 -14 9c-1 0 -1 0 -1 -1l1 -3l9 -7
c-11 -3 -20 -4 -25 -6c-5 -1 -10 -1 -15 -1c-6 0 -9 1 -11 4l4 6c0 2 -1 2 -3 2c-5 -1 -7 -6 -7 -13c0 -10 7 -14 21 -14c34 -21 50 -33 50 -35c0 -1 -4 -2 -12 -3c-46 1 -71 1 -74 2c-1 13 -2 19 -4 19c-1 0 -2 -2 -2 -4l1 -13c0 -1 -1 -1 -2 -1c-8 0 -13 -1 -16 -1
c-2 -3 -3 -5 -3 -9c1 -4 2 -6 4 -7h17c1 -1 1 -7 1 -18c1 -1 2 -3 2 -4h2l1 20l1 2c6 -1 16 -1 32 -1c33 -20 50 -30 50 -31c0 -2 -2 -3 -4 -3l-40 2c-5 0 -9 0 -10 -1c-4 0 -8 -2 -12 -6c-2 -4 -3 -7 -3 -10c0 -7 4 -12 12 -15l32 -10h-34c-6 0 -9 -2 -10 -7
c-1 -1 -2 -3 -2 -5c0 -3 3 -5 9 -5h13c7 -6 10 -14 10 -21c0 -1 0 -3 -2 -6c-20 0 -30 -5 -30 -17c0 -1 1 -3 2 -4c2 -2 3 -4 4 -8c0 -3 6 -6 16 -11c13 -13 22 -26 26 -38v-3l-77 1c-8 0 -12 -4 -12 -12c0 -3 30 -5 91 -5zM179 171c2 0 4 4 5 12c0 22 -1 33 -5 33

<glyph glyph-name=".notdef" horiz-adv-x="236" 
d="M189 569c-5 3 -9 6 -11 9c5 0 9 -2 13 -6c0 -2 -1 -3 -2 -3zM155 370c-13 0 -24 2 -34 7c0 0 -1 0 -1 1c-1 0 -2 0 -2 1c8 0 13 2 16 8l5 5c8 0 17 -2 29 -6c9 -4 13 -7 13 -9c-5 -5 -14 -7 -26 -7zM113 382h-2v4c3 3 9 5 21 7c-4 -6 -11 -10 -19 -11zM154 300
c16 1 32 2 47 3c10 2 16 9 19 20c0 7 -11 11 -34 11c-11 0 -21 -5 -28 -15c-5 15 -12 27 -22 36c3 -1 6 -2 10 -2c11 0 21 2 30 6s14 10 14 18c0 4 -5 8 -15 12c-11 4 -21 7 -31 7l-3 1l1 6c0 8 -3 15 -9 21l48 1c3 0 5 3 7 10c0 4 -5 7 -14 8c-8 0 -20 2 -38 7
c-15 5 -22 9 -22 12s3 4 8 4l39 -1c13 0 21 2 23 5c3 4 4 7 4 8c0 3 -18 15 -54 37c22 0 34 1 36 2c8 1 13 6 15 15c0 3 -16 15 -50 36c13 4 25 7 38 9c5 -9 11 -13 17 -13c4 0 7 2 9 6c0 11 -5 18 -15 21c-4 0 -9 1 -16 1c-6 6 -11 9 -14 9c-1 0 -1 0 -1 -1l1 -3l9 -7
c-11 -3 -20 -4 -25 -6c-5 -1 -10 -1 -15 -1c-6 0 -9 1 -11 4l4 6c0 2 -1 2 -3 2c-5 -1 -7 -6 -7 -13c0 -10 7 -14 21 -14c34 -21 50 -33 50 -35c0 -1 -4 -2 -12 -3c-46 1 -71 1 -74 2c-1 13 -2 19 -4 19c-1 0 -2 -2 -2 -4l1 -13c0 -1 -1 -1 -2 -1c-8 0 -13 -1 -16 -1
c-2 -3 -3 -5 -3 -9c1 -4 2 -6 4 -7h17c1 -1 1 -7 1 -18c1 -1 2 -3 2 -4h2l1 20l1 2c6 -1 16 -1 32 -1c33 -20 50 -30 50 -31c0 -2 -2 -3 -4 -3l-40 2c-5 0 -9 0 -10 -1c-4 0 -8 -2 -12 -6c-2 -4 -3 -7 -3 -10c0 -7 4 -12 12 -15l32 -10h-34c-6 0 -9 -2 -10 -7
c-1 -1 -2 -3 -2 -5c0 -3 3 -5 9 -5h13c7 -6 10 -14 10 -21c0 -1 0 -3 -2 -6c-20 0 -30 -5 -30 -17c0 -1 1 -3 2 -4c2 -2 3 -4 4 -8c0 -3 6 -6 16 -11c13 -13 22 -26 26 -38v-3l-77 1c-8 0 -12 -4 -12 -12c0 -3 30 -5 91 -5zM179 171c2 0 4 4 5 12c0 22 -1 33 -5 33
c-1 0 -2 -1 -3 -3l1 -25l-62 21c-14 5 -25 7 -33 7c-11 -2 -17 -7 -17 -16c0 -12 5 -21 16 -27c2 -1 4 -2 5 -2c2 0 3 1 3 2h1l-1 1v2c-12 5 -19 11 -19 17c1 3 6 5 13 7c8 0 37 -9 87 -27c3 -1 6 -2 9 -2zM88 118c1 0 2 1 3 2l-1 3c-4 2 -7 5 -11 9l98 -1c6 0 9 2 10 8
c0 2 -1 5 -3 7s-20 3 -55 3c-33 0 -52 0 -57 -1c-5 0 -7 -3 -8 -8c0 -3 1 -5 3 -6c2 -4 7 -8 15 -14c2 -1 4 -2 6 -2zM179 57c2 0 4 4 5 12c0 22 -1 33 -5 33c-1 0 -1 0 -2 -1c0 -1 0 -2 -1 -4l1 -22c-3 0 -24 7 -62 20c-14 4 -25 7 -33 7c-11 -2 -17 -7 -17 -16
c0 -13 5 -21 16 -27c2 -1 4 -2 5 -2c2 1 3 1 4 2c-1 2 -3 4 -7 5c-9 5 -13 10 -13 15c1 3 6 5 13 7c8 0 37 -9 87 -27c3 -1 6 -2 9 -2zM236 0h-196v656h196v-656zM165 316c3 7 10 11 22 12c15 -1 24 -3 26 -5v-2c-5 -3 -21 -5 -48 -5z" />
    <glyph glyph-name=".null" horiz-adv-x="0" 
 />
    <glyph glyph-name=".null" horiz-adv-x="0" 
 />
    <glyph glyph-name="nonmarkingreturn" unicode="&#xa;" horiz-adv-x="0" 
 />
    <glyph glyph-name="nonmarkingreturn.1" horiz-adv-x="0" 
 />
    <glyph glyph-name="space" unicode=" " horiz-adv-x="389" 
 />
    <glyph glyph-name="exclam" unicode="!" horiz-adv-x="779" 
d="M453 284h-28v140h28v-140zM453 215h-28v29h28v-29zM778 592c1 -161 1 -323 0 -484c0 -67 -41 -107 -108 -107h-463c-65 0 -106 41 -107 106v244v240c0 69 41 109 110 109h459c68 0 109 -40 109 -108zM206 578c0 60 35 95 95 94c87 1 175 0 263 1c14 0 28 3 42 5
c-132 5 -263 5 -395 5c-61 0 -94 -33 -94 -93v-442v-19c2 0 4 0 5 -1c24 25 49 50 71 77c7 7 12 20 12 30c1 114 1 229 1 343zM648 219c0 60 0 120 1 179v184c0 42 -26 71 -68 72c-96 1 -192 1 -289 0c-42 -1 -68 -30 -68 -73v-364c0 -44 28 -72 72 -72h279
c46 0 73 27 73 74z" />
    <glyph glyph-name="quotedbl" unicode="&#x22;" 
d="M401 373l15 51h14v-78h-29v27zM449 373l14 51h14v-78h-28v27zM778 592v-484c0 -67 -41 -107 -108 -107h-463c-65 0 -106 41 -107 106v244v240c0 69 41 109 110 109h459c68 0 109 -40 109 -108zM206 578c0 60 35 95 95 94c87 1 175 0 263 1c14 0 28 3 42 5
c-132 5 -263 5 -395 5c-61 0 -94 -33 -94 -93v-442v-19c2 0 4 0 5 -1c24 25 49 50 71 77c7 7 12 20 12 30c1 114 1 229 1 343zM648 219v179c0 61 1 123 0 184c0 42 -26 71 -67 72c-97 1 -193 1 -289 0c-43 -1 -69 -30 -69 -73v-364c0 -44 28 -72 73 -72h279
c45 0 73 27 73 74z" />
    <glyph glyph-name="quotedbl" unicode="&#x201d;" 
d="M401 373l15 51h14v-78h-29v27zM449 373l14 51h14v-78h-28v27zM778 592v-484c0 -67 -41 -107 -108 -107h-463c-65 0 -106 41 -107 106v244v240c0 69 41 109 110 109h459c68 0 109 -40 109 -108zM206 578c0 60 35 95 95 94c87 1 175 0 263 1c14 0 28 3 42 5
c-132 5 -263 5 -395 5c-61 0 -94 -33 -94 -93v-442v-19c2 0 4 0 5 -1c24 25 49 50 71 77c7 7 12 20 12 30c1 114 1 229 1 343zM648 219v179c0 61 1 123 0 184c0 42 -26 71 -67 72c-97 1 -193 1 -289 0c-43 -1 -69 -30 -69 -73v-364c0 -44 28 -72 73 -72h279
c45 0 73 27 73 74z" />
    <glyph glyph-name="quotedbl" unicode="&#x201c;" 
d="M401 373l15 51h14v-78h-29v27zM449 373l14 51h14v-78h-28v27zM778 592v-484c0 -67 -41 -107 -108 -107h-463c-65 0 -106 41 -107 106v244v240c0 69 41 109 110 109h459c68 0 109 -40 109 -108zM206 578c0 60 35 95 95 94c87 1 175 0 263 1c14 0 28 3 42 5
c-132 5 -263 5 -395 5c-61 0 -94 -33 -94 -93v-442v-19c2 0 4 0 5 -1c24 25 49 50 71 77c7 7 12 20 12 30c1 114 1 229 1 343zM648 219v179c0 61 1 123 0 184c0 42 -26 71 -67 72c-97 1 -193 1 -289 0c-43 -1 -69 -30 -69 -73v-364c0 -44 28 -72 73 -72h279
c45 0 73 27 73 74z" />
    <glyph glyph-name="numbersign" unicode="#" 
d="M502 424l-12 -60h29v-20h-33l-9 -51h31v-19h-36l-11 -59h-22l12 59h-37l-11 -59h-22l12 59h-34v19h38l10 51h-37v20h41l12 60h21l-12 -60h37l12 60h21zM455 293l10 51h-37l-10 -51h37zM778 592v-484c0 -67 -41 -107 -108 -107h-463c-65 0 -106 41 -107 106v244v240
c0 69 41 109 110 109h459c68 0 109 -40 109 -108zM206 578c0 60 35 95 95 94c87 1 175 0 263 1c14 0 28 3 42 5c-132 5 -263 5 -395 5c-61 0 -94 -33 -94 -93v-442v-19c2 0 4 0 5 -1c24 25 49 50 71 77c7 7 12 20 12 30c1 114 1 229 1 343zM648 219v179c0 61 1 123 0 184
c0 42 -26 71 -67 72c-97 1 -193 1 -289 0c-43 -1 -69 -30 -69 -73v-364c0 -44 28 -72 73 -72h279c45 0 73 27 73 74z" />
    <glyph glyph-name="dollar" unicode="$" horiz-adv-x="779" 
d="M449 331c19 -6 34 -14 42 -23c9 -9 14 -22 14 -38c0 -17 -5 -30 -14 -40c-10 -9 -24 -15 -41 -17v-27h-22v27c-17 2 -30 8 -41 18c-10 10 -15 25 -15 45l1 1h27c0 -15 4 -25 11 -31c8 -6 17 -10 28 -10c12 0 22 3 29 9s10 14 10 24c0 9 -3 16 -9 22s-16 12 -30 16
c-19 6 -34 14 -44 24c-9 9 -14 22 -14 38c0 17 4 29 13 39s22 16 37 18v32h23v-33c16 -1 29 -8 37 -19c9 -11 14 -26 14 -44h-28c0 12 -4 22 -10 29c-5 8 -14 12 -24 12c-12 0 -20 -3 -26 -9s-8 -14 -8 -24c0 -9 2 -17 8 -23c6 -5 17 -10 32 -16zM778 592
c1 -161 1 -323 0 -484c0 -67 -41 -107 -108 -107h-463c-65 0 -106 41 -107 106v244v240c0 69 41 109 110 109h459c68 0 109 -40 109 -108zM206 578c0 60 35 95 95 94c87 1 175 0 263 1c14 0 28 3 42 5c-132 5 -263 5 -395 5c-61 0 -94 -33 -94 -93v-442v-19c2 0 4 0 5 -1
c24 25 49 50 71 77c7 7 12 20 12 30c1 114 1 229 1 343zM648 219c0 60 0 120 1 179v184c0 42 -26 71 -68 72c-96 1 -192 1 -289 0c-42 -1 -68 -30 -68 -73v-364c0 -44 28 -72 72 -72h279c46 0 73 27 73 74z" />
    <glyph glyph-name="percent" unicode="%" horiz-adv-x="779" 
d="M420 342c-7 -8 -18 -12 -31 -12s-23 4 -31 12c-8 9 -12 18 -12 31v11c0 12 4 23 12 31c7 8 18 12 31 12s23 -4 31 -12s12 -19 12 -31v-11c0 -13 -4 -23 -12 -31zM372 354c4 -5 10 -7 17 -8c7 0 12 2 16 8c4 5 6 11 6 18v11c0 7 -2 14 -6 19s-9 7 -16 7
c-8 0 -13 -2 -17 -7c-4 -6 -6 -12 -6 -19v-11c0 -7 2 -13 6 -18zM490 309c13 0 23 -4 32 -12c8 -9 12 -19 12 -31v-11c0 -13 -4 -23 -12 -31s-18 -12 -31 -12c-14 0 -24 4 -32 12s-12 18 -12 31v11c0 12 4 23 12 31c7 8 18 12 31 12zM512 255v11c0 8 -3 13 -6 18
c-4 5 -9 8 -16 8s-13 -3 -17 -8c-3 -5 -6 -11 -6 -18v-11c0 -8 3 -14 6 -19c4 -4 10 -7 17 -7s12 3 16 7c4 5 6 12 6 19zM483 403l15 -9l-102 -164l-15 10zM778 592c1 -161 1 -323 0 -484c0 -67 -41 -107 -108 -107h-463c-65 0 -106 41 -107 106v244v240
c0 69 41 109 110 109h459c68 0 109 -40 109 -108zM206 578c0 60 35 95 95 94c87 1 175 0 263 1c14 0 28 3 42 5c-132 5 -263 5 -395 5c-61 0 -94 -33 -94 -93v-442v-19c2 0 4 0 5 -1c24 25 49 50 71 77c7 7 12 20 12 30c1 114 1 229 1 343zM648 219c0 60 0 120 1 179v184
c0 42 -26 71 -68 72c-96 1 -192 1 -289 0c-42 -1 -68 -30 -68 -73v-364c0 -44 28 -72 72 -72h279c46 0 73 27 73 74z" />
    <glyph glyph-name="ampersand" unicode="&#x26;" 
d="M512 276c-3 -11 -9 -20 -15 -29l26 -32h-33l-13 14c-7 -5 -16 -9 -25 -13c-10 -2 -19 -4 -29 -4c-21 0 -37 6 -49 17c-13 11 -19 25 -19 42c0 12 3 22 10 31s17 18 31 26c-8 10 -13 18 -17 26c-4 7 -5 14 -5 22c0 17 4 29 14 38c9 8 22 12 38 12c15 0 27 -4 36 -12
c10 -9 14 -19 14 -32c0 -9 -2 -17 -7 -24s-13 -14 -22 -21l-16 -11l49 -59c4 6 7 13 9 21c2 7 4 15 4 23h25c0 -12 -2 -24 -6 -35zM408 396c-4 -5 -6 -12 -6 -20c0 -5 1 -10 3 -16c3 -5 7 -11 12 -18l20 14c5 4 9 7 11 12c2 4 3 8 3 14s-2 11 -7 15c-5 5 -11 7 -18 7
c-8 0 -14 -2 -18 -8zM444 237c7 3 13 6 19 11l-52 62l-6 -4c-8 -7 -14 -13 -17 -19s-4 -11 -4 -16c0 -11 3 -20 10 -27s17 -10 30 -10c7 0 14 1 20 3zM778 592v-484c0 -67 -40 -107 -107 -107h-463c-66 0 -107 41 -107 106c-1 81 0 163 0 244v240c0 69 40 109 109 109h460
c68 0 108 -40 108 -108zM206 578c0 60 35 95 95 94c88 1 175 0 263 1c14 0 29 3 43 5c-133 5 -264 5 -396 5c-60 0 -93 -33 -93 -93v-442v-19c1 0 3 0 5 -1c23 25 48 50 71 77c7 7 12 20 12 30v343zM648 219c0 60 0 120 1 179v184c0 42 -27 71 -68 72c-97 1 -192 1 -289 0
c-42 -1 -69 -30 -69 -73v-364c0 -44 28 -72 73 -72h279c46 0 73 27 73 74z" />
    <glyph glyph-name="quotesingle" unicode="'" 
d="M425 373l15 51h14l-1 -52v-26h-28v27zM778 592v-484c0 -67 -40 -107 -107 -107h-463c-66 0 -107 41 -107 106c-1 81 0 163 0 244v240c0 69 40 109 109 109h460c68 0 108 -40 108 -108zM206 578c0 60 35 95 95 94c88 1 175 0 263 1c14 0 29 3 43 5c-133 5 -264 5 -396 5
c-60 0 -93 -33 -93 -93v-442v-19c1 0 3 0 5 -1c23 25 48 50 71 77c7 7 12 20 12 30v343zM648 219c1 60 0 120 1 179v184c0 42 -27 71 -68 72c-97 1 -192 1 -289 0c-42 -1 -69 -30 -69 -73v-364c0 -44 28 -72 73 -72h279c46 0 73 27 73 74z" />
    <glyph glyph-name="quotesingle" unicode="&#x2019;" 
d="M425 373l15 51h14l-1 -52v-26h-28v27zM778 592v-484c0 -67 -40 -107 -107 -107h-463c-66 0 -107 41 -107 106c-1 81 0 163 0 244v240c0 69 40 109 109 109h460c68 0 108 -40 108 -108zM206 578c0 60 35 95 95 94c88 1 175 0 263 1c14 0 29 3 43 5c-133 5 -264 5 -396 5
c-60 0 -93 -33 -93 -93v-442v-19c1 0 3 0 5 -1c23 25 48 50 71 77c7 7 12 20 12 30v343zM648 219c1 60 0 120 1 179v184c0 42 -27 71 -68 72c-97 1 -192 1 -289 0c-42 -1 -69 -30 -69 -73v-364c0 -44 28 -72 73 -72h279c46 0 73 27 73 74z" />
    <glyph glyph-name="quotesingle" unicode="&#x2018;" 
d="M425 373l15 51h14l-1 -52v-26h-28v27zM778 592v-484c0 -67 -40 -107 -107 -107h-463c-66 0 -107 41 -107 106c-1 81 0 163 0 244v240c0 69 40 109 109 109h460c68 0 108 -40 108 -108zM206 578c0 60 35 95 95 94c88 1 175 0 263 1c14 0 29 3 43 5c-133 5 -264 5 -396 5
c-60 0 -93 -33 -93 -93v-442v-19c1 0 3 0 5 -1c23 25 48 50 71 77c7 7 12 20 12 30v343zM648 219c1 60 0 120 1 179v184c0 42 -27 71 -68 72c-97 1 -192 1 -289 0c-42 -1 -69 -30 -69 -73v-364c0 -44 28 -72 73 -72h279c46 0 73 27 73 74z" />
    <glyph glyph-name="parenleft" unicode="(" 
d="M443 383c-9 -22 -14 -50 -14 -83v-2c0 -33 5 -61 14 -83c10 -23 22 -39 35 -51l-6 -15h-1c-16 9 -33 27 -48 53s-22 59 -22 96v1c0 38 7 70 22 97c15 26 32 44 48 53h1l6 -17c-14 -10 -25 -26 -35 -49zM778 592v-484c0 -67 -41 -107 -108 -107h-463
c-65 0 -106 41 -107 106v244v240c0 69 41 109 110 109h459c68 0 109 -40 109 -108zM206 578c0 60 35 95 95 94c87 1 175 0 263 1c14 0 28 3 42 5c-132 5 -263 5 -395 5c-61 0 -94 -33 -94 -93v-442v-19c2 0 4 0 5 -1c24 25 49 50 71 77c7 7 12 20 12 30c1 114 1 229 1 343z
M648 219v179c0 61 1 123 0 184c0 42 -26 71 -67 72c-97 1 -193 1 -289 0c-43 -1 -69 -30 -69 -73v-364c0 -44 28 -72 73 -72h279c45 0 73 27 73 74z" />
    <glyph glyph-name="parenright" unicode=")" horiz-adv-x="779" 
d="M407 450c17 -10 33 -27 48 -54s23 -59 23 -97v-1c0 -37 -8 -70 -23 -96c-16 -27 -31 -44 -48 -53h-1l-5 15c13 10 24 27 34 50c9 23 14 51 14 84v2c0 32 -5 60 -15 83c-10 24 -21 40 -33 51l5 16h1zM778 592c1 -161 1 -323 0 -484c0 -67 -41 -107 -108 -107h-463
c-65 0 -106 41 -107 106v244v240c0 69 41 109 110 109h459c68 0 109 -40 109 -108zM206 578c0 60 35 95 95 94c87 1 175 0 263 1c14 0 28 3 42 5c-132 5 -263 5 -395 5c-61 0 -94 -33 -94 -93v-442v-19c2 0 4 0 5 -1c24 25 49 50 71 77c7 7 12 20 12 30c1 114 1 229 1 343z
M648 219c0 60 0 120 1 179v184c0 42 -26 71 -68 72c-96 1 -192 1 -289 0c-42 -1 -68 -30 -68 -73v-364c0 -44 28 -72 72 -72h279c46 0 73 27 73 74z" />
    <glyph glyph-name="asterisk" unicode="*" horiz-adv-x="779" 
d="M483 345l7 -22l-35 -10l22 -29l-19 -13l-20 31l-19 -30l-19 13l22 29l-34 10l8 22l33 -13l-1 37h23l-1 -37zM778 592c1 -161 1 -323 0 -484c0 -67 -41 -107 -108 -107h-463c-65 0 -106 41 -107 106v244v240c0 69 41 109 110 109h459c68 0 109 -40 109 -108zM206 578
c0 60 35 95 95 94c87 1 175 0 263 1c14 0 28 3 42 5c-132 5 -263 5 -395 5c-61 0 -94 -33 -94 -93v-442v-19c2 0 4 0 5 -1c24 25 49 50 71 77c7 7 12 20 12 30c1 114 1 229 1 343zM648 219c0 60 0 120 1 179v184c0 42 -26 71 -68 72c-96 1 -192 1 -289 0
c-42 -1 -68 -30 -68 -73v-364c0 -44 28 -72 72 -72h279c46 0 73 27 73 74z" />
    <glyph glyph-name="plus" unicode="+" 
d="M453 388v-61h58v-25h-58v-66h-28v66h-58v25h58v61h28zM778 592v-484c0 -67 -41 -107 -108 -107h-463c-65 0 -106 41 -107 106v244v240c0 69 41 109 110 109h459c68 0 109 -40 109 -108zM206 578c0 60 35 95 95 94c87 1 175 0 263 1c14 0 28 3 42 5c-132 5 -263 5 -395 5
c-61 0 -94 -33 -94 -93v-442v-19c2 0 4 0 5 -1c24 25 49 50 71 77c7 7 12 20 12 30c1 114 1 229 1 343zM648 219v179c0 61 1 123 0 184c0 42 -26 71 -67 72c-97 1 -193 1 -289 0c-43 -1 -69 -30 -69 -73v-364c0 -44 28 -72 73 -72h279c45 0 73 27 73 74z" />
    <glyph glyph-name="comma" unicode="," horiz-adv-x="779" 
d="M430 223v24h29v-25l-22 -44h-17zM778 592c1 -161 1 -323 0 -484c0 -67 -41 -107 -108 -107h-463c-65 0 -106 41 -107 106v244v240c0 69 41 109 110 109h459c68 0 109 -40 109 -108zM206 578c0 60 35 95 95 94c87 1 175 0 263 1c14 0 28 3 42 5c-132 5 -263 5 -395 5
c-61 0 -94 -33 -94 -93v-442v-19c2 0 4 0 5 -1c24 25 49 50 71 77c7 7 12 20 12 30c1 114 1 229 1 343zM648 219c0 60 0 120 1 179v184c0 42 -26 71 -68 72c-96 1 -192 1 -289 0c-42 -1 -68 -30 -68 -73v-364c0 -44 28 -72 72 -72h279c46 0 73 27 73 74z" />
    <glyph glyph-name="hyphen" unicode="-" 
d="M481 292h-84v22h84v-22zM778 592v-484c0 -67 -41 -107 -108 -107h-463c-65 0 -106 41 -107 106v244v240c0 69 41 109 110 109h459c68 0 109 -40 109 -108zM206 578c0 60 35 95 95 94c87 1 175 0 263 1c14 0 28 3 42 5c-132 5 -263 5 -395 5c-61 0 -94 -33 -94 -93v-442
v-19c2 0 4 0 5 -1c24 25 49 50 71 77c7 7 12 20 12 30c1 114 1 229 1 343zM648 219c0 60 0 120 1 179v184c0 42 -26 71 -68 72c-96 1 -192 1 -289 0c-42 -1 -68 -30 -68 -73v-364c0 -44 28 -72 72 -72h279c46 0 73 27 73 74z" />
    <glyph glyph-name="period" unicode="." horiz-adv-x="779" 
d="M453 215h-28v29h28v-29zM778 592c1 -161 1 -323 0 -484c0 -67 -41 -107 -108 -107h-463c-65 0 -106 41 -107 106v244v240c0 69 41 109 110 109h459c68 0 109 -40 109 -108zM206 578c0 60 35 95 95 94c87 1 175 0 263 1c14 0 28 3 42 5c-132 5 -263 5 -395 5
c-61 0 -94 -33 -94 -93v-442v-19c2 0 4 0 5 -1c24 25 49 50 71 77c7 7 12 20 12 30c1 114 1 229 1 343zM648 219c0 60 0 120 1 179v184c0 42 -26 71 -68 72c-96 1 -192 1 -289 0c-42 -1 -68 -30 -68 -73v-364c0 -44 28 -72 72 -72h279c46 0 73 27 73 74z" />
    <glyph glyph-name="slash" unicode="/" 
d="M383 197l88 227h23l-86 -227h-25zM778 592v-484c0 -67 -41 -107 -108 -107h-463c-65 0 -106 41 -107 106v244v240c0 69 41 109 110 109h459c68 0 109 -40 109 -108zM206 578c0 60 35 95 95 94c87 1 175 0 263 1c14 0 28 3 42 5c-132 5 -263 5 -395 5
c-61 0 -94 -33 -94 -93v-442v-19c2 0 4 0 5 -1c24 25 49 50 71 77c7 7 12 20 12 30c1 114 1 229 1 343zM648 219v179c0 61 1 123 0 184c0 42 -26 71 -67 72c-97 1 -193 1 -289 0c-43 -1 -69 -30 -69 -73v-364c0 -44 28 -72 73 -72h279c45 0 73 27 73 74z" />
    <glyph glyph-name="zero" unicode="0" 
d="M439 426c20 0 36 -7 48 -20c13 -14 18 -33 18 -56v-62c0 -24 -5 -42 -17 -56c-12 -13 -28 -20 -49 -20c-20 0 -36 7 -48 20c-13 14 -19 32 -19 56v61c0 24 6 42 18 56c13 14 29 21 49 21zM477 283h1v73c0 15 -4 27 -10 35c-7 9 -16 13 -29 13c-12 0 -21 -4 -28 -13
c-6 -8 -9 -20 -9 -35v-73c0 -15 3 -27 10 -36c6 -8 16 -13 28 -13s21 5 28 13c6 9 9 21 9 36zM778 592v-484c0 -67 -41 -107 -108 -107h-463c-66 0 -106 40 -107 106v244v240c1 69 40 109 110 109h459c68 0 109 -40 109 -108zM206 578c0 60 35 95 95 94c88 1 175 0 263 1
c14 0 29 3 43 5c-133 5 -264 5 -396 5c-60 0 -93 -33 -94 -93v-442v-19c2 0 3 0 5 -1c24 25 49 50 71 77c7 7 12 20 12 30c1 114 1 229 1 343zM648 219c0 60 0 120 1 179v184c0 42 -27 71 -68 72c-97 1 -192 1 -289 0c-42 -1 -69 -30 -69 -73v-364c0 -44 28 -72 73 -72h279
c46 0 73 27 73 74z" />
    <glyph glyph-name="one" unicode="1" horiz-adv-x="779" 
d="M402 397v22l74 7v-211h-28v182h-46zM778 592c1 -161 1 -323 0 -484c0 -67 -41 -107 -108 -107h-463c-65 0 -106 41 -107 106v244v240c0 69 41 109 110 109h459c68 0 109 -40 109 -108zM206 578c0 60 35 95 95 94c87 1 175 0 263 1c14 0 28 3 42 5c-132 5 -263 5 -395 5
c-61 0 -94 -33 -94 -93v-442v-19c2 0 4 0 5 -1c24 25 49 50 71 77c7 7 12 20 12 30c1 114 1 229 1 343zM648 219c0 60 0 120 1 179v184c0 42 -26 71 -68 72c-96 1 -192 1 -289 0c-42 -1 -68 -30 -68 -73v-364c0 -44 28 -72 72 -72h279c46 0 73 27 73 74z" />
    <glyph glyph-name="two" unicode="2" horiz-adv-x="779" 
d="M409 237h1h95v-22h-130v19l66 77c11 15 19 26 23 34c5 9 7 17 7 25c0 10 -4 18 -9 24s-13 9 -23 9c-12 0 -22 -3 -28 -11c-7 -8 -10 -17 -10 -28h-27l-1 1c0 17 6 31 17 43c12 12 28 18 49 18c19 0 33 -5 44 -16c11 -10 16 -23 16 -40c0 -11 -3 -21 -9 -32
c-6 -10 -16 -24 -28 -39zM778 592c1 -161 1 -323 0 -484c0 -67 -41 -107 -108 -107h-463c-65 0 -106 41 -107 106v244v240c0 69 41 109 110 109h459c68 0 109 -40 109 -108zM206 578c0 60 35 95 95 94c87 1 175 0 263 1c14 0 28 3 42 5c-132 5 -263 5 -395 5
c-61 0 -94 -33 -94 -93v-442v-19c2 0 4 0 5 -1c24 25 49 50 71 77c7 7 12 20 12 30c1 114 1 229 1 343zM648 219c0 60 0 120 1 179v184c0 42 -26 71 -68 72c-96 1 -192 1 -289 0c-42 -1 -68 -30 -68 -73v-364c0 -44 28 -72 72 -72h279c46 0 73 27 73 74z" />
    <glyph glyph-name="three" unicode="3" 
d="M473 323c10 -4 18 -10 24 -20c5 -8 8 -19 8 -31c0 -19 -7 -34 -18 -45c-12 -11 -28 -16 -47 -16c-18 0 -34 5 -47 16c-14 10 -20 24 -19 41v1h27c0 -10 3 -19 11 -26c7 -7 17 -10 28 -10c12 0 21 4 27 11c7 7 10 17 10 28c0 13 -3 23 -9 30c-6 6 -16 9 -29 9h-23v22h22
c13 0 22 3 27 9c5 7 8 16 8 27c0 10 -3 19 -8 25c-6 7 -14 10 -26 10c-11 0 -20 -3 -27 -10s-10 -15 -10 -26h-27l-1 1c0 17 5 29 18 41c12 11 28 16 47 16c20 0 35 -4 46 -14s17 -24 17 -43c0 -10 -3 -19 -8 -27s-12 -15 -21 -19zM778 592v-484c0 -67 -40 -107 -107 -107
h-463c-66 0 -107 41 -107 106c-1 81 0 163 0 244v240c0 69 40 109 109 109h460c68 0 108 -40 108 -108zM206 578c0 60 35 95 95 94c88 1 175 0 263 1c14 0 29 3 43 5c-133 5 -264 5 -396 5c-60 0 -93 -33 -93 -93v-442v-19c1 0 3 0 5 -1c23 25 48 50 71 77c7 7 12 20 12 30
v343zM648 219c0 60 0 120 1 179v184c0 42 -27 71 -68 72c-97 1 -192 1 -289 0c-42 -1 -69 -30 -69 -73v-364c0 -44 28 -72 73 -72h279c46 0 73 27 73 74z" />
    <glyph glyph-name="four" unicode="4" 
d="M484 424v-139h29v-22h-29v-48h-28v48h-89v16l87 145h30zM396 285h60v98h-1l-3 -7zM778 592v-484c0 -67 -40 -107 -107 -107h-463c-66 0 -107 41 -107 106c-1 81 0 163 0 244v240c0 69 40 109 109 109h460c68 0 108 -40 108 -108zM206 578c0 60 35 95 95 94
c88 1 175 0 263 1c14 0 29 3 43 5c-133 5 -264 5 -396 5c-60 0 -93 -33 -93 -93v-442v-19c1 0 3 0 5 -1c23 25 48 50 71 77c7 7 12 20 12 30v343zM648 219c0 60 0 120 1 179v184c0 42 -27 71 -68 72c-97 1 -192 1 -289 0c-42 -1 -69 -30 -69 -73v-364c0 -44 28 -72 73 -72
h279c46 0 73 27 73 74z" />
    <glyph glyph-name="five" unicode="5" 
d="M441 350c19 0 34 -6 46 -18c11 -12 16 -29 16 -50s-5 -38 -16 -51c-12 -12 -28 -19 -49 -19c-18 0 -33 5 -45 15c-11 9 -17 23 -16 42v1h26c0 -11 3 -20 9 -26c7 -6 15 -9 26 -9c12 0 21 4 28 12c6 8 9 20 9 35c0 13 -3 24 -10 32s-16 12 -28 12c-11 0 -19 -1 -24 -5
c-6 -3 -9 -8 -11 -15l-24 3l12 115h105v-25h-81l-7 -60c5 3 9 6 15 8s12 3 19 3zM778 592v-484c0 -67 -40 -107 -107 -107h-463c-66 0 -107 41 -107 106c-1 81 0 163 0 244v240c0 69 40 109 109 109h460c68 0 108 -40 108 -108zM206 578c0 60 35 95 95 94c88 1 175 0 263 1
c14 0 29 3 43 5c-133 5 -264 5 -396 5c-60 0 -93 -33 -93 -93v-442v-19c1 0 3 0 5 -1c23 25 48 50 71 77c7 7 12 20 12 30v343zM648 219c1 60 0 120 1 179v184c0 42 -27 71 -68 72c-97 1 -192 1 -289 0c-42 -1 -69 -30 -69 -73v-364c0 -44 28 -72 73 -72h279
c46 0 73 27 73 74z" />
    <glyph glyph-name="six" unicode="6" 
d="M447 348c18 0 32 -6 43 -18c10 -12 16 -28 16 -48c0 -21 -6 -38 -18 -51s-28 -19 -47 -19c-20 0 -36 7 -49 22s-19 35 -19 60v48c0 25 7 45 21 61c13 15 30 23 51 23c8 0 16 -1 24 -2c8 -2 15 -3 20 -6l-6 -22c-5 3 -11 5 -17 6c-6 2 -13 2 -21 2c-13 0 -24 -5 -32 -16
c-8 -12 -12 -26 -12 -43v-16c5 6 12 11 20 14s17 5 26 5zM468 247c6 9 9 21 10 36c0 13 -4 24 -11 32s-16 12 -29 12c-8 0 -16 -2 -22 -6c-7 -4 -12 -9 -15 -15v-15c0 -17 4 -31 12 -42c8 -10 17 -15 28 -15s21 4 27 13zM778 592v-484c0 -67 -41 -107 -108 -107h-463
c-65 0 -106 41 -107 106v244v240c0 69 41 109 110 109h459c68 0 109 -40 109 -108zM206 578c0 60 35 95 95 94c87 1 175 0 263 1c14 0 28 3 42 5c-132 5 -263 5 -395 5c-61 0 -94 -33 -94 -93v-442v-19c2 0 4 0 5 -1c24 25 49 50 71 77c7 7 12 20 12 30c1 114 1 229 1 343z
M648 219v179c0 61 1 123 0 184c0 42 -26 71 -67 72c-97 1 -193 1 -289 0c-43 -1 -69 -30 -69 -73v-364c0 -44 28 -72 73 -72h279c45 0 73 27 73 74z" />
    <glyph glyph-name="seven" unicode="7" horiz-adv-x="779" 
d="M370 401v22h138v-22c-26 -31 -44 -59 -53 -83s-14 -51 -14 -81v-22h-28v22c0 32 5 60 17 86c12 25 29 51 51 78h-111zM778 592c1 -161 1 -323 0 -484c0 -67 -41 -107 -108 -107h-463c-65 0 -106 41 -107 106v244v240c0 69 41 109 110 109h459c68 0 109 -40 109 -108z
M206 578c0 60 35 95 95 94c87 1 175 0 263 1c14 0 28 3 42 5c-132 5 -263 5 -395 5c-61 0 -94 -33 -94 -93v-442v-19c2 0 4 0 5 -1c24 25 49 50 71 77c7 7 12 20 12 30c1 114 1 229 1 343zM648 219c0 60 0 120 1 179v184c0 42 -26 71 -68 72c-96 1 -192 1 -289 0
c-42 -1 -68 -30 -68 -73v-364c0 -44 28 -72 72 -72h279c46 0 73 27 73 74z" />
    <glyph glyph-name="eight" unicode="8" horiz-adv-x="779" 
d="M468 323c12 -4 22 -11 29 -20s10 -19 10 -31c0 -19 -6 -35 -19 -45c-12 -10 -28 -15 -47 -15c-21 0 -38 4 -51 15c-12 11 -19 26 -19 45c0 12 3 22 11 31c7 9 17 16 29 20c-10 4 -18 10 -25 18c-6 8 -9 18 -9 29c0 18 6 32 18 42s27 14 46 14c17 0 32 -4 43 -14
s17 -24 17 -42c0 -11 -3 -21 -9 -29s-14 -14 -24 -18zM406 370c0 -11 3 -19 9 -26c7 -6 15 -10 26 -10c9 0 17 4 23 10c6 7 9 15 9 26c0 10 -3 18 -9 25c-6 6 -14 9 -23 9c-11 0 -19 -2 -26 -9c-6 -6 -9 -14 -9 -25zM469 244c7 8 10 17 11 28c0 12 -3 21 -11 28
c-7 8 -17 12 -27 12c-12 0 -22 -5 -30 -12s-12 -16 -12 -28c0 -11 4 -21 11 -28c8 -7 18 -10 30 -10c11 0 20 3 28 10zM778 592c1 -161 1 -323 0 -484c0 -67 -41 -107 -108 -107h-463c-65 0 -106 41 -107 106v244v240c0 69 41 109 110 109h459c68 0 109 -40 109 -108z
M206 578c0 60 35 95 95 94c87 1 175 0 263 1c14 0 28 3 42 5c-132 5 -263 5 -395 5c-61 0 -94 -33 -94 -93v-442v-19c2 0 4 0 5 -1c24 25 49 50 71 77c7 7 12 20 12 30c1 114 1 229 1 343zM648 219c0 60 0 120 1 179v184c0 42 -26 71 -68 72c-96 1 -192 1 -289 0
c-42 -1 -68 -30 -68 -73v-364c0 -44 28 -72 72 -72h279c46 0 73 27 73 74z" />
    <glyph glyph-name="nine" unicode="9" horiz-adv-x="779" 
d="M436 426c21 0 38 -6 51 -19c12 -13 19 -32 19 -55v-64c0 -24 -7 -42 -21 -56c-14 -13 -32 -20 -53 -20c-8 0 -15 1 -23 2c-7 2 -15 4 -21 7l4 22c6 -3 12 -6 18 -7c7 -1 14 -2 22 -2c13 0 24 5 33 14c8 9 12 23 12 40v18c-5 -7 -10 -13 -17 -16c-7 -4 -15 -5 -23 -5
c-20 0 -36 6 -47 18c-11 13 -17 30 -17 52c0 21 6 38 18 52c12 13 27 19 45 19zM477 331v24c0 16 -3 28 -10 36c-7 9 -17 13 -30 13c-10 0 -19 -4 -26 -13s-10 -21 -10 -36c0 -14 3 -26 10 -35c6 -9 16 -13 27 -13c10 0 18 3 25 7c6 4 11 10 14 17zM778 592
c1 -161 1 -323 0 -484c0 -67 -41 -107 -108 -107h-463c-65 0 -106 41 -107 106v244v240c0 69 41 109 110 109h459c68 0 109 -40 109 -108zM206 578c0 60 35 95 95 94c87 1 175 0 263 1c14 0 28 3 42 5c-132 5 -263 5 -395 5c-61 0 -94 -33 -94 -93v-442v-19c2 0 4 0 5 -1
c24 25 49 50 71 77c7 7 12 20 12 30c1 114 1 229 1 343zM648 219c0 60 0 120 1 179v184c0 42 -26 71 -68 72c-96 1 -192 1 -289 0c-42 -1 -68 -30 -68 -73v-364c0 -44 28 -72 72 -72h279c46 0 73 27 73 74z" />
    <glyph glyph-name="colon" unicode=":" 
d="M453 215h-28v29h28v-29zM453 340h-28v29h28v-29zM778 592v-484c0 -67 -41 -107 -108 -107h-463c-65 0 -106 41 -107 106v244v240c0 69 41 109 110 109h459c68 0 109 -40 109 -108zM206 578c0 60 35 95 95 94c87 1 175 0 263 1c14 0 28 3 42 5c-132 5 -263 5 -395 5
c-61 0 -94 -33 -94 -93v-442v-19c2 0 4 0 5 -1c24 25 49 50 71 77c7 7 12 20 12 30c1 114 1 229 1 343zM648 219v179c0 61 1 123 0 184c0 42 -26 71 -67 72c-97 1 -193 1 -289 0c-43 -1 -69 -30 -69 -73v-364c0 -44 28 -72 73 -72h279c45 0 73 27 73 74z" />
    <glyph glyph-name="semicolon" unicode=";" horiz-adv-x="779" 
d="M457 340h-28v29h28v-29zM430 223v24h28v-25l-21 -44h-17zM778 592c1 -161 1 -323 0 -484c0 -67 -41 -107 -108 -107h-463c-65 0 -106 41 -107 106v244v240c0 69 41 109 110 109h459c68 0 109 -40 109 -108zM206 578c0 60 35 95 95 94c87 1 175 0 263 1c14 0 28 3 42 5
c-132 5 -263 5 -395 5c-61 0 -94 -33 -94 -93v-442v-19c2 0 4 0 5 -1c24 25 49 50 71 77c7 7 12 20 12 30c1 114 1 229 1 343zM648 219c0 60 0 120 1 179v184c0 42 -26 71 -68 72c-96 1 -192 1 -289 0c-42 -1 -68 -30 -68 -73v-364c0 -44 28 -72 72 -72h279
c46 0 73 27 73 74z" />
    <glyph glyph-name="less" unicode="&#x3c;" 
d="M381 284v22l117 54v-29l-80 -33l-13 -3l13 -3l80 -33v-29zM778 592v-484c0 -67 -40 -107 -107 -107h-463c-66 0 -107 41 -107 106c-1 81 0 163 0 244v240c0 69 40 109 109 109h460c68 0 108 -40 108 -108zM206 578c0 60 35 95 95 94c88 1 175 0 263 1c14 0 29 3 43 5
c-133 5 -264 5 -396 5c-60 0 -93 -33 -93 -93v-442v-19c1 0 3 0 5 -1c23 25 48 50 71 77c7 7 12 20 12 30v343zM648 219c0 60 0 120 1 179v184c0 42 -27 71 -68 72c-97 1 -192 1 -289 0c-42 -1 -69 -30 -69 -73v-364c0 -44 28 -72 73 -72h279c46 0 73 27 73 74z" />
    <glyph glyph-name="equal" unicode="=" 
d="M499 273h-120v24h120v-24zM499 333h-120v23h120v-23zM778 592v-484c0 -67 -41 -107 -108 -107h-463c-65 0 -106 41 -107 106v244v240c0 69 41 109 110 109h459c68 0 109 -40 109 -108zM206 578c0 60 35 95 95 94c87 1 175 0 263 1c14 0 28 3 42 5c-132 5 -263 5 -395 5
c-61 0 -94 -33 -94 -93v-442v-19c2 0 4 0 5 -1c24 25 49 50 71 77c7 7 12 20 12 30c1 114 1 229 1 343zM648 219v179c0 61 1 123 0 184c0 42 -26 71 -67 72c-97 1 -193 1 -289 0c-43 -1 -69 -30 -69 -73v-364c0 -44 28 -72 73 -72h279c45 0 73 27 73 74z" />
    <glyph glyph-name="greater" unicode="&#x3e;" 
d="M378 330v27l122 -54v-21l-122 -55v28l86 35l12 2v1l-12 3zM778 592v-484c0 -67 -41 -107 -108 -107h-463c-65 0 -106 41 -107 106v244v240c0 69 41 109 110 109h459c68 0 109 -40 109 -108zM206 578c0 60 35 95 95 94c87 1 175 0 263 1c14 0 28 3 42 5
c-132 5 -263 5 -395 5c-61 0 -94 -33 -94 -93v-442v-19c2 0 4 0 5 -1c24 25 49 50 71 77c7 7 12 20 12 30c1 114 1 229 1 343zM648 219c0 60 0 120 1 179v184c0 42 -26 71 -68 72c-96 1 -192 1 -289 0c-42 -1 -68 -30 -68 -73v-364c0 -44 28 -72 72 -72h279
c46 0 73 27 73 74z" />
    <glyph glyph-name="question" unicode="?" 
d="M451 215h-29v29h29v-29zM439 426c19 0 33 -4 43 -14c10 -9 16 -23 16 -40c0 -12 -4 -24 -11 -34s-15 -20 -27 -31c-4 -5 -8 -10 -9 -14s-1 -11 -1 -19h-28c0 14 1 23 3 29c3 5 9 12 19 21c9 11 16 20 20 25c4 6 6 13 6 22c0 10 -3 18 -8 23c-5 6 -13 8 -23 8
c-9 0 -16 -2 -22 -7s-9 -12 -9 -21h-27l-1 1c0 16 5 28 16 37c12 10 26 14 43 14zM778 592v-484c0 -67 -41 -107 -108 -107h-463c-65 0 -106 41 -107 106v244v240c0 69 41 109 110 109h459c68 0 109 -40 109 -108zM206 578c0 60 35 95 95 94c87 1 175 0 263 1
c14 0 28 3 42 5c-132 5 -263 5 -395 5c-61 0 -94 -33 -94 -93v-442v-19c2 0 4 0 5 -1c24 25 49 50 71 77c7 7 12 20 12 30c1 114 1 229 1 343zM648 219v179c0 61 1 123 0 184c0 42 -26 71 -67 72c-97 1 -193 1 -289 0c-43 -1 -69 -30 -69 -73v-364c0 -44 28 -72 73 -72h279
c45 0 73 27 73 74z" />
    <glyph glyph-name="at" unicode="@" horiz-adv-x="779" 
d="M445 420c36 0 64 -12 83 -37c20 -24 28 -56 27 -97c-1 -21 -7 -38 -18 -53c-10 -14 -26 -22 -47 -22c-7 0 -13 2 -18 6s-9 10 -11 17c-4 -8 -10 -14 -17 -18c-7 -3 -15 -5 -24 -5c-13 0 -22 5 -28 17c-7 11 -10 26 -8 45c2 25 9 45 20 60s24 22 40 22c10 0 18 -1 24 -3
c6 -3 13 -6 20 -12h-1h1l-7 -84c-1 -10 0 -18 3 -22s7 -6 12 -6c11 0 21 6 28 16c7 11 11 25 12 42c1 37 -6 65 -21 86c-15 20 -38 30 -71 30c-29 0 -53 -11 -71 -33s-27 -51 -29 -86c-1 -36 6 -64 22 -85c15 -21 38 -32 69 -32c8 0 17 1 25 4c9 2 17 4 23 8l5 -15
c-6 -4 -15 -7 -24 -10c-10 -2 -20 -3 -29 -3c-36 0 -64 12 -84 36c-20 23 -29 56 -27 97c1 41 13 73 35 99c22 25 51 38 86 38zM459 257l7 77c-2 1 -5 2 -8 3c-2 0 -5 1 -8 1c-12 0 -21 -6 -28 -16c-6 -10 -10 -26 -12 -47c-1 -14 0 -25 3 -32s8 -10 15 -10c6 0 12 1 17 3
c5 3 10 7 14 13v4v4zM778 592c1 -161 1 -323 0 -484c0 -67 -41 -107 -108 -107h-463c-65 0 -106 41 -107 106v244v240c0 69 41 109 110 109h459c68 0 109 -40 109 -108zM206 578c0 60 35 95 95 94c87 1 175 0 263 1c14 0 28 3 42 5c-132 5 -263 5 -395 5
c-61 0 -94 -33 -94 -93v-442v-19c2 0 4 0 5 -1c24 25 49 50 71 77c7 7 12 20 12 30c1 114 1 229 1 343zM648 219c0 60 0 120 1 179v184c0 42 -26 71 -68 72c-96 1 -192 1 -289 0c-42 -1 -68 -30 -68 -73v-364c0 -44 28 -72 72 -72h279c46 0 73 27 73 74z" />
    <glyph glyph-name="A" unicode="A" 
d="M428 424h24l74 -209h-29l-18 54h-79l-18 -54h-29zM408 292h62l-30 90h-1zM778 592v-484c0 -67 -41 -107 -108 -107h-463c-66 0 -106 40 -107 106v244v240c1 69 40 109 110 109h459c68 0 109 -40 109 -108zM206 578c0 60 35 95 95 94c88 1 175 0 263 1c14 0 29 3 43 5
c-133 5 -264 5 -396 5c-60 0 -93 -33 -94 -93v-442v-19c2 0 3 0 5 -1c24 25 49 50 71 77c7 7 12 20 12 30c1 114 1 229 1 343zM648 219c0 60 0 120 1 179v184c0 42 -27 71 -68 72c-97 1 -192 1 -289 0c-42 -1 -69 -30 -69 -73v-364c0 -44 28 -72 73 -72h279
c46 0 73 27 73 74z" />
    <glyph glyph-name="A" unicode="&#xc5;" 
d="M428 424h24l74 -209h-29l-18 54h-79l-18 -54h-29zM408 292h62l-30 90h-1zM778 592v-484c0 -67 -41 -107 -108 -107h-463c-66 0 -106 40 -107 106v244v240c1 69 40 109 110 109h459c68 0 109 -40 109 -108zM206 578c0 60 35 95 95 94c88 1 175 0 263 1c14 0 29 3 43 5
c-133 5 -264 5 -396 5c-60 0 -93 -33 -94 -93v-442v-19c2 0 3 0 5 -1c24 25 49 50 71 77c7 7 12 20 12 30c1 114 1 229 1 343zM648 219c0 60 0 120 1 179v184c0 42 -27 71 -68 72c-97 1 -192 1 -289 0c-42 -1 -69 -30 -69 -73v-364c0 -44 28 -72 73 -72h279
c46 0 73 27 73 74z" />
    <glyph glyph-name="A" unicode="&#xc4;" 
d="M428 424h24l74 -209h-29l-18 54h-79l-18 -54h-29zM408 292h62l-30 90h-1zM778 592v-484c0 -67 -41 -107 -108 -107h-463c-66 0 -106 40 -107 106v244v240c1 69 40 109 110 109h459c68 0 109 -40 109 -108zM206 578c0 60 35 95 95 94c88 1 175 0 263 1c14 0 29 3 43 5
c-133 5 -264 5 -396 5c-60 0 -93 -33 -94 -93v-442v-19c2 0 3 0 5 -1c24 25 49 50 71 77c7 7 12 20 12 30c1 114 1 229 1 343zM648 219c0 60 0 120 1 179v184c0 42 -27 71 -68 72c-97 1 -192 1 -289 0c-42 -1 -69 -30 -69 -73v-364c0 -44 28 -72 73 -72h279
c46 0 73 27 73 74z" />
    <glyph glyph-name="A" unicode="&#xc3;" 
d="M428 424h24l74 -209h-29l-18 54h-79l-18 -54h-29zM408 292h62l-30 90h-1zM778 592v-484c0 -67 -41 -107 -108 -107h-463c-66 0 -106 40 -107 106v244v240c1 69 40 109 110 109h459c68 0 109 -40 109 -108zM206 578c0 60 35 95 95 94c88 1 175 0 263 1c14 0 29 3 43 5
c-133 5 -264 5 -396 5c-60 0 -93 -33 -94 -93v-442v-19c2 0 3 0 5 -1c24 25 49 50 71 77c7 7 12 20 12 30c1 114 1 229 1 343zM648 219c0 60 0 120 1 179v184c0 42 -27 71 -68 72c-97 1 -192 1 -289 0c-42 -1 -69 -30 -69 -73v-364c0 -44 28 -72 73 -72h279
c46 0 73 27 73 74z" />
    <glyph glyph-name="A" unicode="&#xc2;" 
d="M428 424h24l74 -209h-29l-18 54h-79l-18 -54h-29zM408 292h62l-30 90h-1zM778 592v-484c0 -67 -41 -107 -108 -107h-463c-66 0 -106 40 -107 106v244v240c1 69 40 109 110 109h459c68 0 109 -40 109 -108zM206 578c0 60 35 95 95 94c88 1 175 0 263 1c14 0 29 3 43 5
c-133 5 -264 5 -396 5c-60 0 -93 -33 -94 -93v-442v-19c2 0 3 0 5 -1c24 25 49 50 71 77c7 7 12 20 12 30c1 114 1 229 1 343zM648 219c0 60 0 120 1 179v184c0 42 -27 71 -68 72c-97 1 -192 1 -289 0c-42 -1 -69 -30 -69 -73v-364c0 -44 28 -72 73 -72h279
c46 0 73 27 73 74z" />
    <glyph glyph-name="A" unicode="&#xc1;" 
d="M428 424h24l74 -209h-29l-18 54h-79l-18 -54h-29zM408 292h62l-30 90h-1zM778 592v-484c0 -67 -41 -107 -108 -107h-463c-66 0 -106 40 -107 106v244v240c1 69 40 109 110 109h459c68 0 109 -40 109 -108zM206 578c0 60 35 95 95 94c88 1 175 0 263 1c14 0 29 3 43 5
c-133 5 -264 5 -396 5c-60 0 -93 -33 -94 -93v-442v-19c2 0 3 0 5 -1c24 25 49 50 71 77c7 7 12 20 12 30c1 114 1 229 1 343zM648 219c0 60 0 120 1 179v184c0 42 -27 71 -68 72c-97 1 -192 1 -289 0c-42 -1 -69 -30 -69 -73v-364c0 -44 28 -72 73 -72h279
c46 0 73 27 73 74z" />
    <glyph glyph-name="A" unicode="&#xc0;" 
d="M428 424h24l74 -209h-29l-18 54h-79l-18 -54h-29zM408 292h62l-30 90h-1zM778 592v-484c0 -67 -41 -107 -108 -107h-463c-66 0 -106 40 -107 106v244v240c1 69 40 109 110 109h459c68 0 109 -40 109 -108zM206 578c0 60 35 95 95 94c88 1 175 0 263 1c14 0 29 3 43 5
c-133 5 -264 5 -396 5c-60 0 -93 -33 -94 -93v-442v-19c2 0 3 0 5 -1c24 25 49 50 71 77c7 7 12 20 12 30c1 114 1 229 1 343zM648 219c0 60 0 120 1 179v184c0 42 -27 71 -68 72c-97 1 -192 1 -289 0c-42 -1 -69 -30 -69 -73v-364c0 -44 28 -72 73 -72h279
c46 0 73 27 73 74z" />
    <glyph glyph-name="B" unicode="B" 
d="M471 327c13 -2 24 -8 33 -18c8 -10 12 -22 12 -35c0 -19 -7 -34 -19 -44s-30 -15 -51 -15h-82v209h67c22 0 39 -5 52 -14c12 -10 18 -24 18 -43c0 -9 -3 -17 -8 -24c-6 -7 -13 -12 -22 -16zM392 401v-67h45c11 0 20 3 26 9c7 6 10 14 10 24c0 12 -4 20 -11 26
c-7 5 -17 8 -31 8h-39zM476 247c7 6 11 15 11 27c0 11 -4 21 -11 28s-17 10 -30 11h-54v-76h54c13 0 23 3 30 10zM778 592v-484c0 -67 -41 -107 -108 -107h-463c-65 0 -106 41 -107 106v244v240c0 69 41 109 110 109h459c68 0 109 -40 109 -108zM206 578c0 60 35 95 95 94
c87 1 175 0 263 1c14 0 28 3 42 5c-132 5 -263 5 -395 5c-61 0 -94 -33 -94 -93v-442v-19c2 0 4 0 5 -1c24 25 49 50 71 77c7 7 12 20 12 30c1 114 1 229 1 343zM648 219c0 60 0 120 1 179v184c0 42 -26 71 -68 72c-96 1 -192 1 -289 0c-42 -1 -68 -30 -68 -73v-364
c0 -44 28 -72 72 -72h279c46 0 73 27 73 74z" />
    <glyph glyph-name="C" unicode="C" horiz-adv-x="779" 
d="M403 386c-9 -13 -14 -29 -14 -48v-38c0 -18 5 -35 14 -47s22 -19 38 -19c15 0 28 5 36 13c9 9 13 20 13 35h27l1 -1c0 -19 -7 -35 -21 -49c-14 -13 -33 -20 -56 -20c-24 0 -42 9 -58 25c-14 17 -22 38 -22 64v37c0 25 8 47 22 64c15 16 34 25 58 25s43 -6 57 -19
s21 -29 20 -50v-1h-27c0 15 -5 26 -13 34c-9 9 -21 13 -37 13s-28 -6 -38 -18zM778 592c1 -161 1 -323 0 -484c0 -67 -41 -107 -108 -107h-463c-65 0 -106 41 -107 106v244v240c0 69 41 109 110 109h459c68 0 109 -40 109 -108zM206 578c0 60 35 95 95 94c87 1 175 0 263 1
c14 0 28 3 42 5c-132 5 -263 5 -395 5c-61 0 -94 -33 -94 -93v-442v-19c2 0 4 0 5 -1c24 25 49 50 71 77c7 7 12 20 12 30c1 114 1 229 1 343zM648 219c0 60 0 120 1 179v184c0 42 -26 71 -68 72c-96 1 -192 1 -289 0c-42 -1 -68 -30 -68 -73v-364c0 -44 28 -72 72 -72h279
c46 0 73 27 73 74z" />
    <glyph glyph-name="C" unicode="&#xc7;" horiz-adv-x="779" 
d="M403 386c-9 -13 -14 -29 -14 -48v-38c0 -18 5 -35 14 -47s22 -19 38 -19c15 0 28 5 36 13c9 9 13 20 13 35h27l1 -1c0 -19 -7 -35 -21 -49c-14 -13 -33 -20 -56 -20c-24 0 -42 9 -58 25c-14 17 -22 38 -22 64v37c0 25 8 47 22 64c15 16 34 25 58 25s43 -6 57 -19
s21 -29 20 -50v-1h-27c0 15 -5 26 -13 34c-9 9 -21 13 -37 13s-28 -6 -38 -18zM778 592c1 -161 1 -323 0 -484c0 -67 -41 -107 -108 -107h-463c-65 0 -106 41 -107 106v244v240c0 69 41 109 110 109h459c68 0 109 -40 109 -108zM206 578c0 60 35 95 95 94c87 1 175 0 263 1
c14 0 28 3 42 5c-132 5 -263 5 -395 5c-61 0 -94 -33 -94 -93v-442v-19c2 0 4 0 5 -1c24 25 49 50 71 77c7 7 12 20 12 30c1 114 1 229 1 343zM648 219c0 60 0 120 1 179v184c0 42 -26 71 -68 72c-96 1 -192 1 -289 0c-42 -1 -68 -30 -68 -73v-364c0 -44 28 -72 72 -72h279
c46 0 73 27 73 74z" />
    <glyph glyph-name="D" unicode="D" horiz-adv-x="779" 
d="M427 424c27 0 49 -9 65 -26c17 -16 25 -38 25 -65v-28c0 -27 -8 -49 -25 -65c-16 -17 -38 -25 -65 -25h-66v209h66zM489 305v29c0 19 -5 35 -17 48c-11 13 -26 19 -45 19h-38v-164h38c19 0 34 6 45 19c12 13 17 29 17 49zM778 592c1 -161 1 -323 0 -484
c0 -67 -41 -107 -108 -107h-463c-65 0 -106 41 -107 106v244v240c0 69 41 109 110 109h459c68 0 109 -40 109 -108zM206 578c0 60 35 95 95 94c87 1 175 0 263 1c14 0 28 3 42 5c-132 5 -263 5 -395 5c-61 0 -94 -33 -94 -93v-442v-19c2 0 4 0 5 -1c24 25 49 50 71 77
c7 7 12 20 12 30c1 114 1 229 1 343zM648 219c0 60 0 120 1 179v184c0 42 -26 71 -68 72c-96 1 -192 1 -289 0c-42 -1 -68 -30 -68 -73v-364c0 -44 28 -72 72 -72h279c46 0 73 27 73 74z" />
    <glyph glyph-name="E" unicode="E" horiz-adv-x="779" 
d="M403 312v-75h101v-22h-129v209h127v-23h-99v-67h86v-22h-86zM778 592c1 -161 1 -323 0 -484c0 -67 -41 -107 -108 -107h-463c-65 0 -106 41 -107 106v244v240c0 69 41 109 110 109h459c68 0 109 -40 109 -108zM206 578c0 60 35 95 95 94c87 1 175 0 263 1c14 0 28 3 42 5
c-132 5 -263 5 -395 5c-61 0 -94 -33 -94 -93v-442v-19c2 0 4 0 5 -1c24 25 49 50 71 77c7 7 12 20 12 30c1 114 1 229 1 343zM648 219c0 60 0 120 1 179v184c0 42 -26 71 -68 72c-96 1 -192 1 -289 0c-42 -1 -68 -30 -68 -73v-364c0 -44 28 -72 72 -72h279
c46 0 73 27 73 74z" />
    <glyph glyph-name="E" unicode="&#xcb;" horiz-adv-x="779" 
d="M403 312v-75h101v-22h-129v209h127v-23h-99v-67h86v-22h-86zM778 592c1 -161 1 -323 0 -484c0 -67 -41 -107 -108 -107h-463c-65 0 -106 41 -107 106v244v240c0 69 41 109 110 109h459c68 0 109 -40 109 -108zM206 578c0 60 35 95 95 94c87 1 175 0 263 1c14 0 28 3 42 5
c-132 5 -263 5 -395 5c-61 0 -94 -33 -94 -93v-442v-19c2 0 4 0 5 -1c24 25 49 50 71 77c7 7 12 20 12 30c1 114 1 229 1 343zM648 219c0 60 0 120 1 179v184c0 42 -26 71 -68 72c-96 1 -192 1 -289 0c-42 -1 -68 -30 -68 -73v-364c0 -44 28 -72 72 -72h279
c46 0 73 27 73 74z" />
    <glyph glyph-name="E" unicode="&#xca;" horiz-adv-x="779" 
d="M403 312v-75h101v-22h-129v209h127v-23h-99v-67h86v-22h-86zM778 592c1 -161 1 -323 0 -484c0 -67 -41 -107 -108 -107h-463c-65 0 -106 41 -107 106v244v240c0 69 41 109 110 109h459c68 0 109 -40 109 -108zM206 578c0 60 35 95 95 94c87 1 175 0 263 1c14 0 28 3 42 5
c-132 5 -263 5 -395 5c-61 0 -94 -33 -94 -93v-442v-19c2 0 4 0 5 -1c24 25 49 50 71 77c7 7 12 20 12 30c1 114 1 229 1 343zM648 219c0 60 0 120 1 179v184c0 42 -26 71 -68 72c-96 1 -192 1 -289 0c-42 -1 -68 -30 -68 -73v-364c0 -44 28 -72 72 -72h279
c46 0 73 27 73 74z" />
    <glyph glyph-name="E" unicode="&#xc9;" horiz-adv-x="779" 
d="M403 312v-75h101v-22h-129v209h127v-23h-99v-67h86v-22h-86zM778 592c1 -161 1 -323 0 -484c0 -67 -41 -107 -108 -107h-463c-65 0 -106 41 -107 106v244v240c0 69 41 109 110 109h459c68 0 109 -40 109 -108zM206 578c0 60 35 95 95 94c87 1 175 0 263 1c14 0 28 3 42 5
c-132 5 -263 5 -395 5c-61 0 -94 -33 -94 -93v-442v-19c2 0 4 0 5 -1c24 25 49 50 71 77c7 7 12 20 12 30c1 114 1 229 1 343zM648 219c0 60 0 120 1 179v184c0 42 -26 71 -68 72c-96 1 -192 1 -289 0c-42 -1 -68 -30 -68 -73v-364c0 -44 28 -72 72 -72h279
c46 0 73 27 73 74z" />
    <glyph glyph-name="E" unicode="&#xc8;" horiz-adv-x="779" 
d="M403 312v-75h101v-22h-129v209h127v-23h-99v-67h86v-22h-86zM778 592c1 -161 1 -323 0 -484c0 -67 -41 -107 -108 -107h-463c-65 0 -106 41 -107 106v244v240c0 69 41 109 110 109h459c68 0 109 -40 109 -108zM206 578c0 60 35 95 95 94c87 1 175 0 263 1c14 0 28 3 42 5
c-132 5 -263 5 -395 5c-61 0 -94 -33 -94 -93v-442v-19c2 0 4 0 5 -1c24 25 49 50 71 77c7 7 12 20 12 30c1 114 1 229 1 343zM648 219c0 60 0 120 1 179v184c0 42 -26 71 -68 72c-96 1 -192 1 -289 0c-42 -1 -68 -30 -68 -73v-364c0 -44 28 -72 72 -72h279
c46 0 73 27 73 74z" />
    <glyph glyph-name="F" unicode="F" 
d="M374 215v209h131v-23h-103v-71h88v-23h-88v-92h-28zM778 592v-484c0 -67 -41 -107 -108 -107h-463c-65 0 -106 41 -107 106v244v240c0 69 41 109 110 109h459c68 0 109 -40 109 -108zM206 578c0 60 35 95 95 94c87 1 175 0 263 1c14 0 28 3 42 5c-132 5 -263 5 -395 5
c-61 0 -94 -33 -94 -93v-442v-19c2 0 4 0 5 -1c24 25 49 50 71 77c7 7 12 20 12 30c1 114 1 229 1 343zM648 219v179c0 61 1 123 0 184c0 42 -26 71 -67 72c-97 1 -193 1 -289 0c-43 -1 -69 -30 -69 -73v-364c0 -44 28 -72 73 -72h279c45 0 73 27 73 74z" />
    <glyph glyph-name="G" unicode="G" 
d="M490 297h-46v22h75v-76c-5 -8 -13 -15 -26 -22c-12 -6 -28 -9 -48 -9c-24 0 -44 7 -59 23c-16 16 -24 37 -24 62v43c0 26 7 46 23 62c15 16 34 24 58 24c23 0 42 -6 55 -18c14 -13 20 -28 20 -48l-1 -1h-27c0 13 -4 23 -12 32s-20 13 -35 13c-16 0 -29 -6 -39 -18
s-15 -27 -15 -45v-43c0 -19 6 -34 16 -46s23 -18 39 -18c12 0 22 2 29 5s13 7 17 11v47zM778 592c0 -161 1 -323 0 -484c0 -67 -41 -107 -108 -107h-463c-65 0 -106 41 -107 106v244v240c0 69 41 109 110 109h459c68 0 109 -40 109 -108zM206 578c0 60 35 95 95 94
c87 1 175 0 263 1c14 0 28 3 42 5c-132 5 -263 5 -395 5c-61 0 -94 -33 -94 -93v-442v-19c2 0 4 0 5 -1c24 25 49 50 71 77c7 7 12 20 12 30c1 114 1 229 1 343zM648 219c0 60 0 120 1 179v184c0 42 -26 71 -68 72c-96 1 -192 1 -289 0c-42 -1 -68 -30 -68 -73v-364
c0 -44 28 -72 72 -72h279c46 0 73 27 73 74z" />
    <glyph glyph-name="H" unicode="H" horiz-adv-x="779" 
d="M490 330v94h28v-209h-28v92h-102v-92h-28v209h28v-94h102zM778 592c1 -161 1 -323 0 -484c0 -67 -41 -107 -108 -107h-463c-65 0 -106 41 -107 106v244v240c0 69 41 109 110 109h459c68 0 109 -40 109 -108zM206 578c0 60 35 95 95 94c87 1 175 0 263 1c14 0 28 3 42 5
c-132 5 -263 5 -395 5c-61 0 -94 -33 -94 -93v-442v-19c2 0 4 0 5 -1c24 25 49 50 71 77c7 7 12 20 12 30c1 114 1 229 1 343zM648 219c0 60 0 120 1 179v184c0 42 -26 71 -68 72c-96 1 -192 1 -289 0c-42 -1 -68 -30 -68 -73v-364c0 -44 28 -72 72 -72h279
c46 0 73 27 73 74z" />
    <glyph glyph-name="I" unicode="I" horiz-adv-x="779" 
d="M453 215h-28v209h28v-209zM778 592c1 -161 1 -323 0 -484c0 -67 -41 -107 -108 -107h-463c-65 0 -106 41 -107 106v244v240c0 69 41 109 110 109h459c68 0 109 -40 109 -108zM206 578c0 60 35 95 95 94c87 1 175 0 263 1c14 0 28 3 42 5c-132 5 -263 5 -395 5
c-61 0 -94 -33 -94 -93v-442v-19c2 0 4 0 5 -1c24 25 49 50 71 77c7 7 12 20 12 30c1 114 1 229 1 343zM648 219c0 60 0 120 1 179v184c0 42 -26 71 -68 72c-96 1 -192 1 -289 0c-42 -1 -68 -30 -68 -73v-364c0 -44 28 -72 72 -72h279c46 0 73 27 73 74z" />
    <glyph glyph-name="I" unicode="&#xcf;" horiz-adv-x="779" 
d="M453 215h-28v209h28v-209zM778 592c1 -161 1 -323 0 -484c0 -67 -41 -107 -108 -107h-463c-65 0 -106 41 -107 106v244v240c0 69 41 109 110 109h459c68 0 109 -40 109 -108zM206 578c0 60 35 95 95 94c87 1 175 0 263 1c14 0 28 3 42 5c-132 5 -263 5 -395 5
c-61 0 -94 -33 -94 -93v-442v-19c2 0 4 0 5 -1c24 25 49 50 71 77c7 7 12 20 12 30c1 114 1 229 1 343zM648 219c0 60 0 120 1 179v184c0 42 -26 71 -68 72c-96 1 -192 1 -289 0c-42 -1 -68 -30 -68 -73v-364c0 -44 28 -72 72 -72h279c46 0 73 27 73 74z" />
    <glyph glyph-name="I" unicode="&#xce;" horiz-adv-x="779" 
d="M453 215h-28v209h28v-209zM778 592c1 -161 1 -323 0 -484c0 -67 -41 -107 -108 -107h-463c-65 0 -106 41 -107 106v244v240c0 69 41 109 110 109h459c68 0 109 -40 109 -108zM206 578c0 60 35 95 95 94c87 1 175 0 263 1c14 0 28 3 42 5c-132 5 -263 5 -395 5
c-61 0 -94 -33 -94 -93v-442v-19c2 0 4 0 5 -1c24 25 49 50 71 77c7 7 12 20 12 30c1 114 1 229 1 343zM648 219c0 60 0 120 1 179v184c0 42 -26 71 -68 72c-96 1 -192 1 -289 0c-42 -1 -68 -30 -68 -73v-364c0 -44 28 -72 72 -72h279c46 0 73 27 73 74z" />
    <glyph glyph-name="I" unicode="&#xcd;" horiz-adv-x="779" 
d="M453 215h-28v209h28v-209zM778 592c1 -161 1 -323 0 -484c0 -67 -41 -107 -108 -107h-463c-65 0 -106 41 -107 106v244v240c0 69 41 109 110 109h459c68 0 109 -40 109 -108zM206 578c0 60 35 95 95 94c87 1 175 0 263 1c14 0 28 3 42 5c-132 5 -263 5 -395 5
c-61 0 -94 -33 -94 -93v-442v-19c2 0 4 0 5 -1c24 25 49 50 71 77c7 7 12 20 12 30c1 114 1 229 1 343zM648 219c0 60 0 120 1 179v184c0 42 -26 71 -68 72c-96 1 -192 1 -289 0c-42 -1 -68 -30 -68 -73v-364c0 -44 28 -72 72 -72h279c46 0 73 27 73 74z" />
    <glyph glyph-name="I" unicode="&#xcc;" horiz-adv-x="779" 
d="M453 215h-28v209h28v-209zM778 592c1 -161 1 -323 0 -484c0 -67 -41 -107 -108 -107h-463c-65 0 -106 41 -107 106v244v240c0 69 41 109 110 109h459c68 0 109 -40 109 -108zM206 578c0 60 35 95 95 94c87 1 175 0 263 1c14 0 28 3 42 5c-132 5 -263 5 -395 5
c-61 0 -94 -33 -94 -93v-442v-19c2 0 4 0 5 -1c24 25 49 50 71 77c7 7 12 20 12 30c1 114 1 229 1 343zM648 219c0 60 0 120 1 179v184c0 42 -26 71 -68 72c-96 1 -192 1 -289 0c-42 -1 -68 -30 -68 -73v-364c0 -44 28 -72 72 -72h279c46 0 73 27 73 74z" />
    <glyph glyph-name="J" unicode="J" 
d="M474 275v149h28v-148c0 -20 -6 -35 -18 -47c-12 -11 -27 -17 -46 -17s-34 5 -45 15c-12 10 -17 25 -17 44l1 1h27c0 -12 3 -22 9 -29c7 -6 15 -9 26 -9c10 0 19 3 25 11c7 8 10 18 10 30zM778 592v-484c0 -67 -41 -107 -108 -107h-463c-65 0 -106 41 -107 106v244v240
c0 69 41 109 110 109h459c68 0 109 -40 109 -108zM206 578c0 60 35 95 95 94c87 1 175 0 263 1c14 0 28 3 42 5c-132 5 -263 5 -395 5c-61 0 -94 -33 -94 -93v-442v-19c2 0 4 0 5 -1c24 25 49 50 71 77c7 7 12 20 12 30c1 114 1 229 1 343zM648 219v179c0 61 1 123 0 184
c0 42 -26 71 -67 72c-97 1 -193 1 -289 0c-43 -1 -69 -30 -69 -73v-364c0 -44 28 -72 73 -72h279c45 0 73 27 73 74z" />
    <glyph glyph-name="K" unicode="K" horiz-adv-x="779" 
d="M513 423l-84 -99l90 -109h-34l-78 94h-19v-94h-28v209h28v-93h15l78 93h32v-1zM778 592c1 -161 1 -323 0 -484c0 -67 -41 -107 -108 -107h-463c-65 0 -106 41 -107 106v244v240c0 69 41 109 110 109h459c68 0 109 -40 109 -108zM206 578c0 60 35 95 95 94
c87 1 175 0 263 1c14 0 28 3 42 5c-132 5 -263 5 -395 5c-61 0 -94 -33 -94 -93v-442v-19c2 0 4 0 5 -1c24 25 49 50 71 77c7 7 12 20 12 30c1 114 1 229 1 343zM648 219c0 60 0 120 1 179v184c0 42 -26 71 -68 72c-96 1 -192 1 -289 0c-42 -1 -68 -30 -68 -73v-364
c0 -44 28 -72 72 -72h279c46 0 73 27 73 74z" />
    <glyph glyph-name="L" unicode="L" horiz-adv-x="779" 
d="M403 424v-187h102v-22h-131v209h29zM778 592c1 -161 1 -323 0 -484c0 -67 -41 -107 -108 -107h-463c-65 0 -106 41 -107 106v244v240c0 69 41 109 110 109h459c68 0 109 -40 109 -108zM206 578c0 60 35 95 95 94c87 1 175 0 263 1c14 0 28 3 42 5c-132 5 -263 5 -395 5
c-61 0 -94 -33 -94 -93v-442v-19c2 0 4 0 5 -1c24 25 49 50 71 77c7 7 12 20 12 30c1 114 1 229 1 343zM648 219c0 60 0 120 1 179v184c0 42 -26 71 -68 72c-96 1 -192 1 -289 0c-42 -1 -68 -30 -68 -73v-364c0 -44 28 -72 72 -72h279c46 0 73 27 73 74z" />
    <glyph glyph-name="M" unicode="M" horiz-adv-x="779" 
d="M441 254l66 170h35v-209h-28v157h-1l-63 -157h-20l-65 161v-161h-29v209h37l66 -170h2zM778 592c1 -161 1 -323 0 -484c0 -67 -41 -107 -108 -107h-463c-65 0 -106 41 -107 106v244v240c0 69 41 109 110 109h459c68 0 109 -40 109 -108zM206 578c0 60 35 95 95 94
c87 1 175 0 263 1c14 0 28 3 42 5c-132 5 -263 5 -395 5c-61 0 -94 -33 -94 -93v-442v-19c2 0 4 0 5 -1c24 25 49 50 71 77c7 7 12 20 12 30c1 114 1 229 1 343zM648 219c0 60 0 120 1 179v184c0 42 -26 71 -68 72c-96 1 -192 1 -289 0c-42 -1 -68 -30 -68 -73v-364
c0 -44 28 -72 72 -72h279c46 0 73 27 73 74z" />
    <glyph glyph-name="N" unicode="N" 
d="M490 264v160h28v-209h-28l-101 159h-1v-159h-28v209h28l101 -160h1zM778 592v-484c0 -67 -41 -107 -108 -107h-463c-65 0 -106 41 -107 106v244v240c0 69 41 109 110 109h459c68 0 109 -40 109 -108zM206 578c0 60 35 95 95 94c87 1 175 0 263 1c14 0 28 3 42 5
c-132 5 -263 5 -395 5c-61 0 -94 -33 -94 -93v-442v-19c2 0 4 0 5 -1c24 25 49 50 71 77c7 7 12 20 12 30c1 114 1 229 1 343zM648 219v179c0 61 1 123 0 184c0 42 -26 71 -67 72c-97 1 -193 1 -289 0c-43 -1 -69 -30 -69 -73v-364c0 -44 28 -72 73 -72h279
c45 0 73 27 73 74z" />
    <glyph glyph-name="N" unicode="&#xd1;" 
d="M490 264v160h28v-209h-28l-101 159h-1v-159h-28v209h28l101 -160h1zM778 592v-484c0 -67 -41 -107 -108 -107h-463c-65 0 -106 41 -107 106v244v240c0 69 41 109 110 109h459c68 0 109 -40 109 -108zM206 578c0 60 35 95 95 94c87 1 175 0 263 1c14 0 28 3 42 5
c-132 5 -263 5 -395 5c-61 0 -94 -33 -94 -93v-442v-19c2 0 4 0 5 -1c24 25 49 50 71 77c7 7 12 20 12 30c1 114 1 229 1 343zM648 219v179c0 61 1 123 0 184c0 42 -26 71 -67 72c-97 1 -193 1 -289 0c-43 -1 -69 -30 -69 -73v-364c0 -44 28 -72 73 -72h279
c45 0 73 27 73 74z" />
    <glyph glyph-name="O" unicode="O" horiz-adv-x="779" 
d="M438 426c25 0 46 -8 61 -25c16 -17 24 -38 24 -63v-38c0 -25 -8 -46 -24 -63c-15 -17 -36 -25 -61 -25c-24 0 -44 8 -59 25s-23 38 -23 63v38c0 25 8 46 23 63s35 25 59 25zM495 300v38c0 18 -5 34 -16 46c-10 13 -24 19 -41 19c-16 0 -30 -6 -39 -19
c-10 -11 -15 -28 -15 -46v-38c0 -19 5 -35 15 -47c9 -12 22 -18 39 -18s31 6 41 18c11 12 16 28 16 47zM778 592c1 -161 1 -323 0 -484c0 -67 -41 -107 -108 -107h-463c-65 0 -106 41 -107 106v244v240c0 69 41 109 110 109h459c68 0 109 -40 109 -108zM206 578
c0 60 35 95 95 94c87 1 175 0 263 1c14 0 28 3 42 5c-132 5 -263 5 -395 5c-61 0 -94 -33 -94 -93v-442v-19c2 0 4 0 5 -1c24 25 49 50 71 77c7 7 12 20 12 30c1 114 1 229 1 343zM648 219c0 60 0 120 1 179v184c0 42 -26 71 -68 72c-96 1 -192 1 -289 0
c-42 -1 -68 -30 -68 -73v-364c0 -44 28 -72 72 -72h279c46 0 73 27 73 74z" />
    <glyph glyph-name="O" unicode="&#xd8;" horiz-adv-x="779" 
d="M438 426c25 0 46 -8 61 -25c16 -17 24 -38 24 -63v-38c0 -25 -8 -46 -24 -63c-15 -17 -36 -25 -61 -25c-24 0 -44 8 -59 25s-23 38 -23 63v38c0 25 8 46 23 63s35 25 59 25zM495 300v38c0 18 -5 34 -16 46c-10 13 -24 19 -41 19c-16 0 -30 -6 -39 -19
c-10 -11 -15 -28 -15 -46v-38c0 -19 5 -35 15 -47c9 -12 22 -18 39 -18s31 6 41 18c11 12 16 28 16 47zM778 592c1 -161 1 -323 0 -484c0 -67 -41 -107 -108 -107h-463c-65 0 -106 41 -107 106v244v240c0 69 41 109 110 109h459c68 0 109 -40 109 -108zM206 578
c0 60 35 95 95 94c87 1 175 0 263 1c14 0 28 3 42 5c-132 5 -263 5 -395 5c-61 0 -94 -33 -94 -93v-442v-19c2 0 4 0 5 -1c24 25 49 50 71 77c7 7 12 20 12 30c1 114 1 229 1 343zM648 219c0 60 0 120 1 179v184c0 42 -26 71 -68 72c-96 1 -192 1 -289 0
c-42 -1 -68 -30 -68 -73v-364c0 -44 28 -72 72 -72h279c46 0 73 27 73 74z" />
    <glyph glyph-name="O" unicode="&#xd6;" horiz-adv-x="779" 
d="M438 426c25 0 46 -8 61 -25c16 -17 24 -38 24 -63v-38c0 -25 -8 -46 -24 -63c-15 -17 -36 -25 -61 -25c-24 0 -44 8 -59 25s-23 38 -23 63v38c0 25 8 46 23 63s35 25 59 25zM495 300v38c0 18 -5 34 -16 46c-10 13 -24 19 -41 19c-16 0 -30 -6 -39 -19
c-10 -11 -15 -28 -15 -46v-38c0 -19 5 -35 15 -47c9 -12 22 -18 39 -18s31 6 41 18c11 12 16 28 16 47zM778 592c1 -161 1 -323 0 -484c0 -67 -41 -107 -108 -107h-463c-65 0 -106 41 -107 106v244v240c0 69 41 109 110 109h459c68 0 109 -40 109 -108zM206 578
c0 60 35 95 95 94c87 1 175 0 263 1c14 0 28 3 42 5c-132 5 -263 5 -395 5c-61 0 -94 -33 -94 -93v-442v-19c2 0 4 0 5 -1c24 25 49 50 71 77c7 7 12 20 12 30c1 114 1 229 1 343zM648 219c0 60 0 120 1 179v184c0 42 -26 71 -68 72c-96 1 -192 1 -289 0
c-42 -1 -68 -30 -68 -73v-364c0 -44 28 -72 72 -72h279c46 0 73 27 73 74z" />
    <glyph glyph-name="O" unicode="&#xd5;" horiz-adv-x="779" 
d="M438 426c25 0 46 -8 61 -25c16 -17 24 -38 24 -63v-38c0 -25 -8 -46 -24 -63c-15 -17 -36 -25 -61 -25c-24 0 -44 8 -59 25s-23 38 -23 63v38c0 25 8 46 23 63s35 25 59 25zM495 300v38c0 18 -5 34 -16 46c-10 13 -24 19 -41 19c-16 0 -30 -6 -39 -19
c-10 -11 -15 -28 -15 -46v-38c0 -19 5 -35 15 -47c9 -12 22 -18 39 -18s31 6 41 18c11 12 16 28 16 47zM778 592c1 -161 1 -323 0 -484c0 -67 -41 -107 -108 -107h-463c-65 0 -106 41 -107 106v244v240c0 69 41 109 110 109h459c68 0 109 -40 109 -108zM206 578
c0 60 35 95 95 94c87 1 175 0 263 1c14 0 28 3 42 5c-132 5 -263 5 -395 5c-61 0 -94 -33 -94 -93v-442v-19c2 0 4 0 5 -1c24 25 49 50 71 77c7 7 12 20 12 30c1 114 1 229 1 343zM648 219c0 60 0 120 1 179v184c0 42 -26 71 -68 72c-96 1 -192 1 -289 0
c-42 -1 -68 -30 -68 -73v-364c0 -44 28 -72 72 -72h279c46 0 73 27 73 74z" />
    <glyph glyph-name="O" unicode="&#xd4;" horiz-adv-x="779" 
d="M438 426c25 0 46 -8 61 -25c16 -17 24 -38 24 -63v-38c0 -25 -8 -46 -24 -63c-15 -17 -36 -25 -61 -25c-24 0 -44 8 -59 25s-23 38 -23 63v38c0 25 8 46 23 63s35 25 59 25zM495 300v38c0 18 -5 34 -16 46c-10 13 -24 19 -41 19c-16 0 -30 -6 -39 -19
c-10 -11 -15 -28 -15 -46v-38c0 -19 5 -35 15 -47c9 -12 22 -18 39 -18s31 6 41 18c11 12 16 28 16 47zM778 592c1 -161 1 -323 0 -484c0 -67 -41 -107 -108 -107h-463c-65 0 -106 41 -107 106v244v240c0 69 41 109 110 109h459c68 0 109 -40 109 -108zM206 578
c0 60 35 95 95 94c87 1 175 0 263 1c14 0 28 3 42 5c-132 5 -263 5 -395 5c-61 0 -94 -33 -94 -93v-442v-19c2 0 4 0 5 -1c24 25 49 50 71 77c7 7 12 20 12 30c1 114 1 229 1 343zM648 219c0 60 0 120 1 179v184c0 42 -26 71 -68 72c-96 1 -192 1 -289 0
c-42 -1 -68 -30 -68 -73v-364c0 -44 28 -72 72 -72h279c46 0 73 27 73 74z" />
    <glyph glyph-name="O" unicode="&#xd3;" horiz-adv-x="779" 
d="M438 426c25 0 46 -8 61 -25c16 -17 24 -38 24 -63v-38c0 -25 -8 -46 -24 -63c-15 -17 -36 -25 -61 -25c-24 0 -44 8 -59 25s-23 38 -23 63v38c0 25 8 46 23 63s35 25 59 25zM495 300v38c0 18 -5 34 -16 46c-10 13 -24 19 -41 19c-16 0 -30 -6 -39 -19
c-10 -11 -15 -28 -15 -46v-38c0 -19 5 -35 15 -47c9 -12 22 -18 39 -18s31 6 41 18c11 12 16 28 16 47zM778 592c1 -161 1 -323 0 -484c0 -67 -41 -107 -108 -107h-463c-65 0 -106 41 -107 106v244v240c0 69 41 109 110 109h459c68 0 109 -40 109 -108zM206 578
c0 60 35 95 95 94c87 1 175 0 263 1c14 0 28 3 42 5c-132 5 -263 5 -395 5c-61 0 -94 -33 -94 -93v-442v-19c2 0 4 0 5 -1c24 25 49 50 71 77c7 7 12 20 12 30c1 114 1 229 1 343zM648 219c0 60 0 120 1 179v184c0 42 -26 71 -68 72c-96 1 -192 1 -289 0
c-42 -1 -68 -30 -68 -73v-364c0 -44 28 -72 72 -72h279c46 0 73 27 73 74z" />
    <glyph glyph-name="O" unicode="&#xd2;" horiz-adv-x="779" 
d="M438 426c25 0 46 -8 61 -25c16 -17 24 -38 24 -63v-38c0 -25 -8 -46 -24 -63c-15 -17 -36 -25 -61 -25c-24 0 -44 8 -59 25s-23 38 -23 63v38c0 25 8 46 23 63s35 25 59 25zM495 300v38c0 18 -5 34 -16 46c-10 13 -24 19 -41 19c-16 0 -30 -6 -39 -19
c-10 -11 -15 -28 -15 -46v-38c0 -19 5 -35 15 -47c9 -12 22 -18 39 -18s31 6 41 18c11 12 16 28 16 47zM778 592c1 -161 1 -323 0 -484c0 -67 -41 -107 -108 -107h-463c-65 0 -106 41 -107 106v244v240c0 69 41 109 110 109h459c68 0 109 -40 109 -108zM206 578
c0 60 35 95 95 94c87 1 175 0 263 1c14 0 28 3 42 5c-132 5 -263 5 -395 5c-61 0 -94 -33 -94 -93v-442v-19c2 0 4 0 5 -1c24 25 49 50 71 77c7 7 12 20 12 30c1 114 1 229 1 343zM648 219c0 60 0 120 1 179v184c0 42 -26 71 -68 72c-96 1 -192 1 -289 0
c-42 -1 -68 -30 -68 -73v-364c0 -44 28 -72 72 -72h279c46 0 73 27 73 74z" />
    <glyph glyph-name="P" unicode="P" horiz-adv-x="779" 
d="M444 424c22 0 40 -6 52 -17c12 -12 18 -27 18 -46s-6 -34 -18 -45s-30 -17 -52 -17h-52v-84h-28v209h80zM476 332c7 8 10 17 10 29s-3 21 -10 29s-18 12 -32 12h-52v-81h52c14 0 25 4 32 11zM778 592c1 -161 1 -323 0 -484c0 -67 -41 -107 -108 -107h-463
c-65 0 -106 41 -107 106v244v240c0 69 41 109 110 109h459c68 0 109 -40 109 -108zM206 578c0 60 35 95 95 94c87 1 175 0 263 1c14 0 28 3 42 5c-132 5 -263 5 -395 5c-61 0 -94 -33 -94 -93v-442v-19c2 0 4 0 5 -1c24 25 49 50 71 77c7 7 12 20 12 30c1 114 1 229 1 343z
M648 219c0 60 0 120 1 179v184c0 42 -26 71 -68 72c-96 1 -192 1 -289 0c-42 -1 -68 -30 -68 -73v-364c0 -44 28 -72 72 -72h279c46 0 73 27 73 74z" />
    <glyph glyph-name="Q" unicode="Q" horiz-adv-x="779" 
d="M512 269c-3 -9 -8 -18 -14 -27l31 -30l-19 -18l-32 31c-6 -5 -13 -8 -21 -10s-16 -3 -25 -3c-24 0 -44 8 -59 25s-23 38 -23 63v38c0 25 8 46 23 63s35 25 59 25c25 0 46 -8 61 -25c16 -17 24 -38 24 -63v-38c0 -11 -2 -21 -5 -31zM488 300v38c0 18 -5 34 -15 46
c-10 13 -24 19 -42 19c-16 0 -29 -6 -39 -19c-10 -11 -14 -28 -14 -46v-38c0 -19 4 -35 14 -47s23 -18 39 -18c18 0 32 6 42 18s15 28 15 47zM778 592c1 -161 1 -323 0 -484c0 -67 -41 -107 -108 -107h-463c-65 0 -106 41 -107 106v244v240c0 69 41 109 110 109h459
c68 0 109 -40 109 -108zM206 578c0 60 35 95 95 94c87 1 175 0 263 1c14 0 28 3 42 5c-132 5 -263 5 -395 5c-61 0 -94 -33 -94 -93v-442v-19c2 0 4 0 5 -1c24 25 49 50 71 77c7 7 12 20 12 30c1 114 1 229 1 343zM648 219c0 60 0 120 1 179v184c0 42 -26 71 -68 72
c-96 1 -192 1 -289 0c-42 -1 -68 -30 -68 -73v-364c0 -44 28 -72 72 -72h279c46 0 73 27 73 74z" />
    <glyph glyph-name="R" unicode="R" 
d="M505 248c0 -6 1 -12 1 -18c2 -4 4 -9 8 -12v-3h-30c-3 3 -5 8 -7 14c-1 7 -1 13 -1 20v19c0 11 -3 20 -10 27c-6 7 -15 10 -26 10h-49v-90h-28v208h72c23 0 40 -5 52 -15c13 -10 18 -25 18 -44c0 -11 -3 -20 -8 -28c-6 -8 -14 -14 -24 -19c11 -4 20 -10 24 -18
c5 -9 8 -19 8 -31v-20zM467 337c7 6 10 15 10 27s-3 21 -10 27c-7 7 -18 10 -32 10h-43v-74h40c16 0 28 4 35 10zM778 592v-484c0 -67 -40 -107 -107 -107h-463c-66 0 -107 41 -107 106c-1 81 0 163 0 244v240c0 69 40 109 109 109h460c68 0 108 -40 108 -108zM206 578
c0 60 35 95 95 94c88 1 175 0 263 1c14 0 29 3 43 5c-133 5 -264 5 -396 5c-60 0 -93 -33 -93 -93v-442v-19c1 0 3 0 5 -1c23 25 48 50 71 77c7 7 12 20 12 30v343zM648 219c1 60 0 120 1 179v184c0 42 -27 71 -68 72c-97 1 -192 1 -289 0c-42 -1 -69 -30 -69 -73v-364
c0 -44 28 -72 73 -72h279c46 0 73 27 73 74z" />
    <glyph glyph-name="S" unicode="S" 
d="M449 331c21 -5 36 -13 46 -25c12 -10 17 -23 17 -39c0 -17 -6 -30 -20 -40c-13 -11 -30 -15 -51 -15c-20 0 -38 5 -54 16c-15 12 -23 27 -22 46v1h27c0 -13 5 -24 15 -31s22 -10 34 -10c14 0 24 3 32 9s12 14 12 25c0 9 -4 17 -11 23c-7 7 -18 12 -36 16
c-21 6 -37 13 -49 24c-12 10 -18 23 -18 38c0 17 7 31 19 41c13 11 30 16 51 16c22 0 39 -6 52 -18c13 -13 20 -27 19 -44v-1h-27c0 12 -5 22 -13 30s-19 11 -31 11c-13 0 -24 -3 -31 -9c-7 -7 -10 -15 -10 -25c0 -9 3 -17 11 -23s20 -11 38 -16zM778 592v-484
c0 -67 -41 -107 -108 -107h-463c-65 0 -106 41 -107 106v244v240c0 69 41 109 110 109h459c68 0 109 -40 109 -108zM206 578c0 60 35 95 95 94c87 1 175 0 263 1c14 0 28 3 42 5c-132 5 -263 5 -395 5c-61 0 -94 -33 -94 -93v-442v-19c2 0 4 0 5 -1c24 25 49 50 71 77
c7 7 12 20 12 30c1 114 1 229 1 343zM648 219v179c0 61 1 123 0 184c0 42 -26 71 -67 72c-97 1 -193 1 -289 0c-43 -1 -69 -30 -69 -73v-364c0 -44 28 -72 73 -72h279c45 0 73 27 73 74z" />
    <glyph glyph-name="T" unicode="T" horiz-adv-x="779" 
d="M357 401v23h165v-23h-69v-186h-28v186h-68zM778 592c1 -161 1 -323 0 -484c0 -67 -41 -107 -108 -107h-463c-65 0 -106 41 -107 106v244v240c0 69 41 109 110 109h459c68 0 109 -40 109 -108zM206 578c0 60 35 95 95 94c87 1 175 0 263 1c14 0 28 3 42 5
c-132 5 -263 5 -395 5c-61 0 -94 -33 -94 -93v-442v-19c2 0 4 0 5 -1c24 25 49 50 71 77c7 7 12 20 12 30c1 114 1 229 1 343zM648 219c0 60 0 120 1 179v184c0 42 -26 71 -68 72c-96 1 -192 1 -289 0c-42 -1 -68 -30 -68 -73v-364c0 -44 28 -72 72 -72h279
c46 0 73 27 73 74z" />
    <glyph glyph-name="U" unicode="U" 
d="M490 285v139h28v-139c0 -23 -7 -41 -23 -53c-15 -13 -33 -20 -57 -20c-23 0 -41 7 -56 20c-14 12 -21 31 -21 53v139h28v-139c0 -16 4 -29 13 -38s21 -13 36 -13s27 4 37 13s15 22 15 38zM778 592v-484c0 -67 -41 -107 -108 -107h-463c-65 0 -106 41 -107 106v244v240
c0 69 41 109 110 109h459c68 0 109 -40 109 -108zM206 578c0 60 35 95 95 94c87 1 175 0 263 1c14 0 28 3 42 5c-132 5 -263 5 -395 5c-61 0 -94 -33 -94 -93v-442v-19c2 0 4 0 5 -1c24 25 49 50 71 77c7 7 12 20 12 30c1 114 1 229 1 343zM648 219c0 60 0 120 1 179v184
c0 42 -26 71 -68 72c-96 1 -192 1 -289 0c-42 -1 -68 -30 -68 -73v-364c0 -44 28 -72 72 -72h279c46 0 73 27 73 74z" />
    <glyph glyph-name="U" unicode="&#xdc;" 
d="M490 285v139h28v-139c0 -23 -7 -41 -23 -53c-15 -13 -33 -20 -57 -20c-23 0 -41 7 -56 20c-14 12 -21 31 -21 53v139h28v-139c0 -16 4 -29 13 -38s21 -13 36 -13s27 4 37 13s15 22 15 38zM778 592v-484c0 -67 -41 -107 -108 -107h-463c-65 0 -106 41 -107 106v244v240
c0 69 41 109 110 109h459c68 0 109 -40 109 -108zM206 578c0 60 35 95 95 94c87 1 175 0 263 1c14 0 28 3 42 5c-132 5 -263 5 -395 5c-61 0 -94 -33 -94 -93v-442v-19c2 0 4 0 5 -1c24 25 49 50 71 77c7 7 12 20 12 30c1 114 1 229 1 343zM648 219c0 60 0 120 1 179v184
c0 42 -26 71 -68 72c-96 1 -192 1 -289 0c-42 -1 -68 -30 -68 -73v-364c0 -44 28 -72 72 -72h279c46 0 73 27 73 74z" />
    <glyph glyph-name="U" unicode="&#xdb;" 
d="M490 285v139h28v-139c0 -23 -7 -41 -23 -53c-15 -13 -33 -20 -57 -20c-23 0 -41 7 -56 20c-14 12 -21 31 -21 53v139h28v-139c0 -16 4 -29 13 -38s21 -13 36 -13s27 4 37 13s15 22 15 38zM778 592v-484c0 -67 -41 -107 -108 -107h-463c-65 0 -106 41 -107 106v244v240
c0 69 41 109 110 109h459c68 0 109 -40 109 -108zM206 578c0 60 35 95 95 94c87 1 175 0 263 1c14 0 28 3 42 5c-132 5 -263 5 -395 5c-61 0 -94 -33 -94 -93v-442v-19c2 0 4 0 5 -1c24 25 49 50 71 77c7 7 12 20 12 30c1 114 1 229 1 343zM648 219c0 60 0 120 1 179v184
c0 42 -26 71 -68 72c-96 1 -192 1 -289 0c-42 -1 -68 -30 -68 -73v-364c0 -44 28 -72 72 -72h279c46 0 73 27 73 74z" />
    <glyph glyph-name="U" unicode="&#xda;" 
d="M490 285v139h28v-139c0 -23 -7 -41 -23 -53c-15 -13 -33 -20 -57 -20c-23 0 -41 7 -56 20c-14 12 -21 31 -21 53v139h28v-139c0 -16 4 -29 13 -38s21 -13 36 -13s27 4 37 13s15 22 15 38zM778 592v-484c0 -67 -41 -107 -108 -107h-463c-65 0 -106 41 -107 106v244v240
c0 69 41 109 110 109h459c68 0 109 -40 109 -108zM206 578c0 60 35 95 95 94c87 1 175 0 263 1c14 0 28 3 42 5c-132 5 -263 5 -395 5c-61 0 -94 -33 -94 -93v-442v-19c2 0 4 0 5 -1c24 25 49 50 71 77c7 7 12 20 12 30c1 114 1 229 1 343zM648 219c0 60 0 120 1 179v184
c0 42 -26 71 -68 72c-96 1 -192 1 -289 0c-42 -1 -68 -30 -68 -73v-364c0 -44 28 -72 72 -72h279c46 0 73 27 73 74z" />
    <glyph glyph-name="U" unicode="&#xd9;" 
d="M490 285v139h28v-139c0 -23 -7 -41 -23 -53c-15 -13 -33 -20 -57 -20c-23 0 -41 7 -56 20c-14 12 -21 31 -21 53v139h28v-139c0 -16 4 -29 13 -38s21 -13 36 -13s27 4 37 13s15 22 15 38zM778 592v-484c0 -67 -41 -107 -108 -107h-463c-65 0 -106 41 -107 106v244v240
c0 69 41 109 110 109h459c68 0 109 -40 109 -108zM206 578c0 60 35 95 95 94c87 1 175 0 263 1c14 0 28 3 42 5c-132 5 -263 5 -395 5c-61 0 -94 -33 -94 -93v-442v-19c2 0 4 0 5 -1c24 25 49 50 71 77c7 7 12 20 12 30c1 114 1 229 1 343zM648 219c0 60 0 120 1 179v184
c0 42 -26 71 -68 72c-96 1 -192 1 -289 0c-42 -1 -68 -30 -68 -73v-364c0 -44 28 -72 72 -72h279c46 0 73 27 73 74z" />
    <glyph glyph-name="V" unicode="V" horiz-adv-x="779" 
d="M444 270l54 154h31l-78 -209h-24l-77 209h30l54 -154l5 -17zM778 592c1 -161 1 -323 0 -484c0 -67 -41 -107 -108 -107h-463c-65 0 -106 41 -107 106v244v240c0 69 41 109 110 109h459c68 0 109 -40 109 -108zM206 578c0 60 35 95 95 94c87 1 175 0 263 1c14 0 28 3 42 5
c-132 5 -263 5 -395 5c-61 0 -94 -33 -94 -93v-442v-19c2 0 4 0 5 -1c24 25 49 50 71 77c7 7 12 20 12 30c1 114 1 229 1 343zM648 219c0 60 0 120 1 179v184c0 42 -26 71 -68 72c-96 1 -192 1 -289 0c-42 -1 -68 -30 -68 -73v-364c0 -44 28 -72 72 -72h279
c46 0 73 27 73 74z" />
    <glyph glyph-name="W" unicode="W" horiz-adv-x="779" 
d="M500 288l30 136h31l-51 -209h-25l-42 145l-3 19h-1l-3 -19l-42 -145h-26l-50 209h30l31 -136l3 -28h1l5 28l37 136h28l37 -136l5 -28h1zM778 592c1 -161 1 -323 0 -484c0 -67 -41 -107 -108 -107h-463c-65 0 -106 41 -107 106v244v240c0 69 41 109 110 109h459
c68 0 109 -40 109 -108zM206 578c0 60 35 95 95 94c87 1 175 0 263 1c14 0 28 3 42 5c-132 5 -263 5 -395 5c-61 0 -94 -33 -94 -93v-442v-19c2 0 4 0 5 -1c24 25 49 50 71 77c7 7 12 20 12 30c1 114 1 229 1 343zM648 219c0 60 0 120 1 179v184c0 42 -26 71 -68 72
c-96 1 -192 1 -289 0c-42 -1 -68 -30 -68 -73v-364c0 -44 28 -72 72 -72h279c46 0 73 27 73 74z" />
    <glyph glyph-name="X" unicode="X" 
d="M522 424l-67 -104l68 -105h-33l-50 83l-51 -83h-34l68 105l-66 104h34l48 -82l49 82h34zM778 592v-484c0 -67 -40 -107 -107 -107h-463c-66 0 -107 41 -107 106c-1 81 0 163 0 244v240c0 69 40 109 109 109h460c68 0 108 -40 108 -108zM206 578c0 60 35 95 95 94
c88 1 175 0 263 1c14 0 29 3 43 5c-133 5 -264 5 -396 5c-60 0 -93 -33 -93 -93v-442v-19c1 0 3 0 5 -1c23 25 48 50 71 77c7 7 12 20 12 30v343zM648 219c1 60 0 120 1 179v184c0 42 -27 71 -68 72c-97 1 -192 1 -289 0c-42 -1 -69 -30 -69 -73v-364c0 -44 28 -72 73 -72
h279c46 0 73 27 73 74z" />
    <glyph glyph-name="Y" unicode="Y" 
d="M439 318l55 106h32l-74 -136v-73h-28v75l-72 134h33zM778 592v-484c0 -67 -41 -107 -108 -107h-463c-65 0 -106 41 -107 106v244v240c0 69 41 109 110 109h459c68 0 109 -40 109 -108zM206 578c0 60 35 95 95 94c87 1 175 0 263 1c14 0 28 3 42 5c-132 5 -263 5 -395 5
c-61 0 -94 -33 -94 -93v-442v-19c2 0 4 0 5 -1c24 25 49 50 71 77c7 7 12 20 12 30c1 114 1 229 1 343zM648 219v179c0 61 1 123 0 184c0 42 -26 71 -67 72c-97 1 -193 1 -289 0c-43 -1 -69 -30 -69 -73v-364c0 -44 28 -72 73 -72h279c45 0 73 27 73 74z" />
    <glyph glyph-name="Y" unicode="&#xdd;" 
d="M439 318l55 106h32l-74 -136v-73h-28v75l-72 134h33zM778 592v-484c0 -67 -41 -107 -108 -107h-463c-65 0 -106 41 -107 106v244v240c0 69 41 109 110 109h459c68 0 109 -40 109 -108zM206 578c0 60 35 95 95 94c87 1 175 0 263 1c14 0 28 3 42 5c-132 5 -263 5 -395 5
c-61 0 -94 -33 -94 -93v-442v-19c2 0 4 0 5 -1c24 25 49 50 71 77c7 7 12 20 12 30c1 114 1 229 1 343zM648 219v179c0 61 1 123 0 184c0 42 -26 71 -67 72c-97 1 -193 1 -289 0c-43 -1 -69 -30 -69 -73v-364c0 -44 28 -72 73 -72h279c45 0 73 27 73 74z" />
    <glyph glyph-name="Z" unicode="Z" 
d="M509 403l-112 -166h117v-22h-149v21l111 165h-109v23h142v-21zM778 592v-484c0 -67 -40 -107 -107 -107h-463c-66 0 -107 41 -107 106c-1 81 0 163 0 244v240c0 69 40 109 109 109h460c68 0 108 -40 108 -108zM206 578c0 60 35 95 95 94c88 1 175 0 263 1c14 0 29 3 43 5
c-133 5 -264 5 -396 5c-60 0 -93 -33 -93 -93v-442v-19c1 0 3 0 5 -1c23 25 48 50 71 77c7 7 12 20 12 30v343zM648 219c1 60 0 120 1 179v184c0 42 -27 71 -68 72c-97 1 -192 1 -289 0c-42 -1 -69 -30 -69 -73v-364c0 -44 28 -72 73 -72h279c46 0 73 27 73 74z" />
    <glyph glyph-name="bracketleft" unicode="[" horiz-adv-x="779" 
d="M411 170v283h56v-22h-27v-239h27v-22h-56zM778 592c1 -161 1 -323 0 -484c0 -67 -41 -107 -108 -107h-463c-65 0 -106 41 -107 106v244v240c0 69 41 109 110 109h459c68 0 109 -40 109 -108zM206 578c0 60 35 95 95 94c87 1 175 0 263 1c14 0 28 3 42 5
c-132 5 -263 5 -395 5c-61 0 -94 -33 -94 -93v-442v-19c2 0 4 0 5 -1c24 25 49 50 71 77c7 7 12 20 12 30c1 114 1 229 1 343zM648 219c0 60 0 120 1 179v184c0 42 -26 71 -68 72c-96 1 -192 1 -289 0c-42 -1 -68 -30 -68 -73v-364c0 -44 28 -72 72 -72h279
c46 0 73 27 73 74z" />
    <glyph glyph-name="backslash" unicode="\" 
d="M382 424h27l87 -227h-26zM778 592v-484c0 -67 -41 -107 -108 -107h-463c-65 0 -106 41 -107 106v244v240c0 69 41 109 110 109h459c68 0 109 -40 109 -108zM206 578c0 60 35 95 95 94c87 1 175 0 263 1c14 0 28 3 42 5c-132 5 -263 5 -395 5c-61 0 -94 -33 -94 -93v-442
v-19c2 0 4 0 5 -1c24 25 49 50 71 77c7 7 12 20 12 30c1 114 1 229 1 343zM648 219v179c0 61 1 123 0 184c0 42 -26 71 -67 72c-97 1 -193 1 -289 0c-43 -1 -69 -30 -69 -73v-364c0 -44 28 -72 73 -72h279c45 0 73 27 73 74z" />
    <glyph glyph-name="bracketright" unicode="]" 
d="M411 431v22h55v-283h-55v22h27v239h-27zM778 592v-484c0 -67 -41 -107 -108 -107h-463c-65 0 -106 41 -107 106v244v240c0 69 41 109 110 109h459c68 0 109 -40 109 -108zM206 578c0 60 35 95 95 94c87 1 175 0 263 1c14 0 28 3 42 5c-132 5 -263 5 -395 5
c-61 0 -94 -33 -94 -93v-442v-19c2 0 4 0 5 -1c24 25 49 50 71 77c7 7 12 20 12 30c1 114 1 229 1 343zM648 219v179c0 61 1 123 0 184c0 42 -26 71 -67 72c-97 1 -193 1 -289 0c-43 -1 -69 -30 -69 -73v-364c0 -44 28 -72 73 -72h279c45 0 73 27 73 74z" />
    <glyph glyph-name="asciicircum" unicode="^" horiz-adv-x="779" 
d="M430 424h19l43 -105h-26l-24 61l-2 9h-1l-2 -9l-24 -61h-26zM778 592c1 -161 1 -323 0 -484c0 -67 -41 -107 -108 -107h-463c-65 0 -106 41 -107 106v244v240c0 69 41 109 110 109h459c68 0 109 -40 109 -108zM206 578c0 60 35 95 95 94c87 1 175 0 263 1c14 0 28 3 42 5
c-132 5 -263 5 -395 5c-61 0 -94 -33 -94 -93v-442v-19c2 0 4 0 5 -1c24 25 49 50 71 77c7 7 12 20 12 30c1 114 1 229 1 343zM648 219c0 60 0 120 1 179v184c0 42 -26 71 -68 72c-96 1 -192 1 -289 0c-42 -1 -68 -30 -68 -73v-364c0 -44 28 -72 72 -72h279
c46 0 73 27 73 74z" />
    <glyph glyph-name="underscore" unicode="_" horiz-adv-x="779" 
d="M506 193h-133v22h133v-22zM778 592c1 -161 1 -323 0 -484c0 -67 -41 -107 -108 -107h-463c-65 0 -106 41 -107 106v244v240c0 69 41 109 110 109h459c68 0 109 -40 109 -108zM206 578c0 60 35 95 95 94c87 1 175 0 263 1c14 0 28 3 42 5c-132 5 -263 5 -395 5
c-61 0 -94 -33 -94 -93v-442v-19c2 0 4 0 5 -1c24 25 49 50 71 77c7 7 12 20 12 30c1 114 1 229 1 343zM648 219c0 60 0 120 1 179v184c0 42 -26 71 -68 72c-96 1 -192 1 -289 0c-42 -1 -68 -30 -68 -73v-364c0 -44 28 -72 72 -72h279c46 0 73 27 73 74z" />
    <glyph glyph-name="grave" unicode="`" horiz-adv-x="779" 
d="M410 432h34l25 -38h-23zM778 592c1 -161 1 -323 0 -484c0 -67 -41 -107 -108 -107h-463c-65 0 -106 41 -107 106v244v240c0 69 41 109 110 109h459c68 0 109 -40 109 -108zM206 578c0 60 35 95 95 94c87 1 175 0 263 1c14 0 28 3 42 5c-132 5 -263 5 -395 5
c-61 0 -94 -33 -94 -93v-442v-19c2 0 4 0 5 -1c24 25 49 50 71 77c7 7 12 20 12 30c1 114 1 229 1 343zM648 219c0 60 0 120 1 179v184c0 42 -26 71 -68 72c-96 1 -192 1 -289 0c-42 -1 -68 -30 -68 -73v-364c0 -44 28 -72 72 -72h279c46 0 73 27 73 74z" />
    <glyph glyph-name="a" unicode="a" horiz-adv-x="1096" 
d="M433 268v-41h56v-12h-71v115h70v-12h-55v-37h48v-13h-48zM545 302c9 0 16 -3 21 -9c5 -5 8 -13 8 -24v-54h-15v53c0 8 -2 13 -5 16c-2 4 -7 5 -13 5c-5 0 -9 0 -12 -3c-4 -2 -6 -4 -8 -8v-63h-16v85h14l1 -13c3 5 6 8 11 11c4 2 9 4 14 4zM630 226c1 1 3 1 3 1l2 -11
c-2 0 -4 -1 -6 -2c-2 0 -4 -1 -6 -1c-7 0 -11 2 -15 6s-6 10 -6 18v52h-13v11h13v20h16v-20h16v-11h-16v-52c0 -4 1 -7 3 -9c1 -1 3 -2 6 -2h3zM684 302c12 0 19 -2 25 -9c6 -8 9 -17 9 -29v-8h-55c0 -9 2 -16 6 -21c4 -6 10 -8 17 -8c6 0 11 0 14 2c4 1 8 3 11 6l6 -10
c-3 -4 -7 -6 -12 -8c-6 -2 -12 -3 -19 -3c-12 0 -21 4 -28 12c-7 7 -10 17 -10 30v4c0 11 3 22 10 30s16 12 26 12zM703 267v2c0 6 -2 12 -5 15c-2 4 -7 6 -14 6c-5 0 -9 -2 -13 -6c-4 -5 -6 -10 -7 -16v-1h39zM772 302c2 0 2 -1 3 -1s2 -1 3 -1l-2 -14h-8c-4 0 -8 0 -11 -2
c-2 -2 -4 -5 -6 -8v-61h-16v85h14l1 -12c3 4 6 7 10 10c3 2 7 4 12 4zM1096 592v-484c0 -67 -41 -107 -108 -107h-781c-66 0 -106 40 -107 106v244v240c1 69 40 109 110 109h777c68 0 109 -40 109 -108zM206 578c0 60 35 95 95 94c88 1 493 0 581 1c14 0 28 3 42 5
c-132 5 -581 5 -713 5c-60 0 -93 -33 -94 -93v-442v-19c2 0 3 0 5 -1c24 25 49 50 71 77c7 7 12 20 12 30c1 114 1 229 1 343zM966 219v179c0 61 1 123 0 184c0 42 -26 71 -67 72c-97 1 -510 1 -607 0c-42 -1 -69 -30 -69 -73v-364c0 -44 28 -72 73 -72h597
c45 0 73 27 73 74z" />
    <glyph glyph-name="a" unicode="&#xe5;" horiz-adv-x="1096" 
d="M433 268v-41h56v-12h-71v115h70v-12h-55v-37h48v-13h-48zM545 302c9 0 16 -3 21 -9c5 -5 8 -13 8 -24v-54h-15v53c0 8 -2 13 -5 16c-2 4 -7 5 -13 5c-5 0 -9 0 -12 -3c-4 -2 -6 -4 -8 -8v-63h-16v85h14l1 -13c3 5 6 8 11 11c4 2 9 4 14 4zM630 226c1 1 3 1 3 1l2 -11
c-2 0 -4 -1 -6 -2c-2 0 -4 -1 -6 -1c-7 0 -11 2 -15 6s-6 10 -6 18v52h-13v11h13v20h16v-20h16v-11h-16v-52c0 -4 1 -7 3 -9c1 -1 3 -2 6 -2h3zM684 302c12 0 19 -2 25 -9c6 -8 9 -17 9 -29v-8h-55c0 -9 2 -16 6 -21c4 -6 10 -8 17 -8c6 0 11 0 14 2c4 1 8 3 11 6l6 -10
c-3 -4 -7 -6 -12 -8c-6 -2 -12 -3 -19 -3c-12 0 -21 4 -28 12c-7 7 -10 17 -10 30v4c0 11 3 22 10 30s16 12 26 12zM703 267v2c0 6 -2 12 -5 15c-2 4 -7 6 -14 6c-5 0 -9 -2 -13 -6c-4 -5 -6 -10 -7 -16v-1h39zM772 302c2 0 2 -1 3 -1s2 -1 3 -1l-2 -14h-8c-4 0 -8 0 -11 -2
c-2 -2 -4 -5 -6 -8v-61h-16v85h14l1 -12c3 4 6 7 10 10c3 2 7 4 12 4zM1096 592v-484c0 -67 -41 -107 -108 -107h-781c-66 0 -106 40 -107 106v244v240c1 69 40 109 110 109h777c68 0 109 -40 109 -108zM206 578c0 60 35 95 95 94c88 1 493 0 581 1c14 0 28 3 42 5
c-132 5 -581 5 -713 5c-60 0 -93 -33 -94 -93v-442v-19c2 0 3 0 5 -1c24 25 49 50 71 77c7 7 12 20 12 30c1 114 1 229 1 343zM966 219v179c0 61 1 123 0 184c0 42 -26 71 -67 72c-97 1 -510 1 -607 0c-42 -1 -69 -30 -69 -73v-364c0 -44 28 -72 73 -72h597
c45 0 73 27 73 74z" />
    <glyph glyph-name="a" unicode="&#xe4;" horiz-adv-x="1096" 
d="M433 268v-41h56v-12h-71v115h70v-12h-55v-37h48v-13h-48zM545 302c9 0 16 -3 21 -9c5 -5 8 -13 8 -24v-54h-15v53c0 8 -2 13 -5 16c-2 4 -7 5 -13 5c-5 0 -9 0 -12 -3c-4 -2 -6 -4 -8 -8v-63h-16v85h14l1 -13c3 5 6 8 11 11c4 2 9 4 14 4zM630 226c1 1 3 1 3 1l2 -11
c-2 0 -4 -1 -6 -2c-2 0 -4 -1 -6 -1c-7 0 -11 2 -15 6s-6 10 -6 18v52h-13v11h13v20h16v-20h16v-11h-16v-52c0 -4 1 -7 3 -9c1 -1 3 -2 6 -2h3zM684 302c12 0 19 -2 25 -9c6 -8 9 -17 9 -29v-8h-55c0 -9 2 -16 6 -21c4 -6 10 -8 17 -8c6 0 11 0 14 2c4 1 8 3 11 6l6 -10
c-3 -4 -7 -6 -12 -8c-6 -2 -12 -3 -19 -3c-12 0 -21 4 -28 12c-7 7 -10 17 -10 30v4c0 11 3 22 10 30s16 12 26 12zM703 267v2c0 6 -2 12 -5 15c-2 4 -7 6 -14 6c-5 0 -9 -2 -13 -6c-4 -5 -6 -10 -7 -16v-1h39zM772 302c2 0 2 -1 3 -1s2 -1 3 -1l-2 -14h-8c-4 0 -8 0 -11 -2
c-2 -2 -4 -5 -6 -8v-61h-16v85h14l1 -12c3 4 6 7 10 10c3 2 7 4 12 4zM1096 592v-484c0 -67 -41 -107 -108 -107h-781c-66 0 -106 40 -107 106v244v240c1 69 40 109 110 109h777c68 0 109 -40 109 -108zM206 578c0 60 35 95 95 94c88 1 493 0 581 1c14 0 28 3 42 5
c-132 5 -581 5 -713 5c-60 0 -93 -33 -94 -93v-442v-19c2 0 3 0 5 -1c24 25 49 50 71 77c7 7 12 20 12 30c1 114 1 229 1 343zM966 219v179c0 61 1 123 0 184c0 42 -26 71 -67 72c-97 1 -510 1 -607 0c-42 -1 -69 -30 -69 -73v-364c0 -44 28 -72 73 -72h597
c45 0 73 27 73 74z" />
    <glyph glyph-name="a" unicode="&#xe3;" horiz-adv-x="1096" 
d="M433 268v-41h56v-12h-71v115h70v-12h-55v-37h48v-13h-48zM545 302c9 0 16 -3 21 -9c5 -5 8 -13 8 -24v-54h-15v53c0 8 -2 13 -5 16c-2 4 -7 5 -13 5c-5 0 -9 0 -12 -3c-4 -2 -6 -4 -8 -8v-63h-16v85h14l1 -13c3 5 6 8 11 11c4 2 9 4 14 4zM630 226c1 1 3 1 3 1l2 -11
c-2 0 -4 -1 -6 -2c-2 0 -4 -1 -6 -1c-7 0 -11 2 -15 6s-6 10 -6 18v52h-13v11h13v20h16v-20h16v-11h-16v-52c0 -4 1 -7 3 -9c1 -1 3 -2 6 -2h3zM684 302c12 0 19 -2 25 -9c6 -8 9 -17 9 -29v-8h-55c0 -9 2 -16 6 -21c4 -6 10 -8 17 -8c6 0 11 0 14 2c4 1 8 3 11 6l6 -10
c-3 -4 -7 -6 -12 -8c-6 -2 -12 -3 -19 -3c-12 0 -21 4 -28 12c-7 7 -10 17 -10 30v4c0 11 3 22 10 30s16 12 26 12zM703 267v2c0 6 -2 12 -5 15c-2 4 -7 6 -14 6c-5 0 -9 -2 -13 -6c-4 -5 -6 -10 -7 -16v-1h39zM772 302c2 0 2 -1 3 -1s2 -1 3 -1l-2 -14h-8c-4 0 -8 0 -11 -2
c-2 -2 -4 -5 -6 -8v-61h-16v85h14l1 -12c3 4 6 7 10 10c3 2 7 4 12 4zM1096 592v-484c0 -67 -41 -107 -108 -107h-781c-66 0 -106 40 -107 106v244v240c1 69 40 109 110 109h777c68 0 109 -40 109 -108zM206 578c0 60 35 95 95 94c88 1 493 0 581 1c14 0 28 3 42 5
c-132 5 -581 5 -713 5c-60 0 -93 -33 -94 -93v-442v-19c2 0 3 0 5 -1c24 25 49 50 71 77c7 7 12 20 12 30c1 114 1 229 1 343zM966 219v179c0 61 1 123 0 184c0 42 -26 71 -67 72c-97 1 -510 1 -607 0c-42 -1 -69 -30 -69 -73v-364c0 -44 28 -72 73 -72h597
c45 0 73 27 73 74z" />
    <glyph glyph-name="a" unicode="&#xe2;" horiz-adv-x="1096" 
d="M433 268v-41h56v-12h-71v115h70v-12h-55v-37h48v-13h-48zM545 302c9 0 16 -3 21 -9c5 -5 8 -13 8 -24v-54h-15v53c0 8 -2 13 -5 16c-2 4 -7 5 -13 5c-5 0 -9 0 -12 -3c-4 -2 -6 -4 -8 -8v-63h-16v85h14l1 -13c3 5 6 8 11 11c4 2 9 4 14 4zM630 226c1 1 3 1 3 1l2 -11
c-2 0 -4 -1 -6 -2c-2 0 -4 -1 -6 -1c-7 0 -11 2 -15 6s-6 10 -6 18v52h-13v11h13v20h16v-20h16v-11h-16v-52c0 -4 1 -7 3 -9c1 -1 3 -2 6 -2h3zM684 302c12 0 19 -2 25 -9c6 -8 9 -17 9 -29v-8h-55c0 -9 2 -16 6 -21c4 -6 10 -8 17 -8c6 0 11 0 14 2c4 1 8 3 11 6l6 -10
c-3 -4 -7 -6 -12 -8c-6 -2 -12 -3 -19 -3c-12 0 -21 4 -28 12c-7 7 -10 17 -10 30v4c0 11 3 22 10 30s16 12 26 12zM703 267v2c0 6 -2 12 -5 15c-2 4 -7 6 -14 6c-5 0 -9 -2 -13 -6c-4 -5 -6 -10 -7 -16v-1h39zM772 302c2 0 2 -1 3 -1s2 -1 3 -1l-2 -14h-8c-4 0 -8 0 -11 -2
c-2 -2 -4 -5 -6 -8v-61h-16v85h14l1 -12c3 4 6 7 10 10c3 2 7 4 12 4zM1096 592v-484c0 -67 -41 -107 -108 -107h-781c-66 0 -106 40 -107 106v244v240c1 69 40 109 110 109h777c68 0 109 -40 109 -108zM206 578c0 60 35 95 95 94c88 1 493 0 581 1c14 0 28 3 42 5
c-132 5 -581 5 -713 5c-60 0 -93 -33 -94 -93v-442v-19c2 0 3 0 5 -1c24 25 49 50 71 77c7 7 12 20 12 30c1 114 1 229 1 343zM966 219v179c0 61 1 123 0 184c0 42 -26 71 -67 72c-97 1 -510 1 -607 0c-42 -1 -69 -30 -69 -73v-364c0 -44 28 -72 73 -72h597
c45 0 73 27 73 74z" />
    <glyph glyph-name="a" unicode="&#xe1;" horiz-adv-x="1096" 
d="M433 268v-41h56v-12h-71v115h70v-12h-55v-37h48v-13h-48zM545 302c9 0 16 -3 21 -9c5 -5 8 -13 8 -24v-54h-15v53c0 8 -2 13 -5 16c-2 4 -7 5 -13 5c-5 0 -9 0 -12 -3c-4 -2 -6 -4 -8 -8v-63h-16v85h14l1 -13c3 5 6 8 11 11c4 2 9 4 14 4zM630 226c1 1 3 1 3 1l2 -11
c-2 0 -4 -1 -6 -2c-2 0 -4 -1 -6 -1c-7 0 -11 2 -15 6s-6 10 -6 18v52h-13v11h13v20h16v-20h16v-11h-16v-52c0 -4 1 -7 3 -9c1 -1 3 -2 6 -2h3zM684 302c12 0 19 -2 25 -9c6 -8 9 -17 9 -29v-8h-55c0 -9 2 -16 6 -21c4 -6 10 -8 17 -8c6 0 11 0 14 2c4 1 8 3 11 6l6 -10
c-3 -4 -7 -6 -12 -8c-6 -2 -12 -3 -19 -3c-12 0 -21 4 -28 12c-7 7 -10 17 -10 30v4c0 11 3 22 10 30s16 12 26 12zM703 267v2c0 6 -2 12 -5 15c-2 4 -7 6 -14 6c-5 0 -9 -2 -13 -6c-4 -5 -6 -10 -7 -16v-1h39zM772 302c2 0 2 -1 3 -1s2 -1 3 -1l-2 -14h-8c-4 0 -8 0 -11 -2
c-2 -2 -4 -5 -6 -8v-61h-16v85h14l1 -12c3 4 6 7 10 10c3 2 7 4 12 4zM1096 592v-484c0 -67 -41 -107 -108 -107h-781c-66 0 -106 40 -107 106v244v240c1 69 40 109 110 109h777c68 0 109 -40 109 -108zM206 578c0 60 35 95 95 94c88 1 493 0 581 1c14 0 28 3 42 5
c-132 5 -581 5 -713 5c-60 0 -93 -33 -94 -93v-442v-19c2 0 3 0 5 -1c24 25 49 50 71 77c7 7 12 20 12 30c1 114 1 229 1 343zM966 219v179c0 61 1 123 0 184c0 42 -26 71 -67 72c-97 1 -510 1 -607 0c-42 -1 -69 -30 -69 -73v-364c0 -44 28 -72 73 -72h597
c45 0 73 27 73 74z" />
    <glyph glyph-name="a" unicode="&#xe0;" horiz-adv-x="1096" 
d="M433 268v-41h56v-12h-71v115h70v-12h-55v-37h48v-13h-48zM545 302c9 0 16 -3 21 -9c5 -5 8 -13 8 -24v-54h-15v53c0 8 -2 13 -5 16c-2 4 -7 5 -13 5c-5 0 -9 0 -12 -3c-4 -2 -6 -4 -8 -8v-63h-16v85h14l1 -13c3 5 6 8 11 11c4 2 9 4 14 4zM630 226c1 1 3 1 3 1l2 -11
c-2 0 -4 -1 -6 -2c-2 0 -4 -1 -6 -1c-7 0 -11 2 -15 6s-6 10 -6 18v52h-13v11h13v20h16v-20h16v-11h-16v-52c0 -4 1 -7 3 -9c1 -1 3 -2 6 -2h3zM684 302c12 0 19 -2 25 -9c6 -8 9 -17 9 -29v-8h-55c0 -9 2 -16 6 -21c4 -6 10 -8 17 -8c6 0 11 0 14 2c4 1 8 3 11 6l6 -10
c-3 -4 -7 -6 -12 -8c-6 -2 -12 -3 -19 -3c-12 0 -21 4 -28 12c-7 7 -10 17 -10 30v4c0 11 3 22 10 30s16 12 26 12zM703 267v2c0 6 -2 12 -5 15c-2 4 -7 6 -14 6c-5 0 -9 -2 -13 -6c-4 -5 -6 -10 -7 -16v-1h39zM772 302c2 0 2 -1 3 -1s2 -1 3 -1l-2 -14h-8c-4 0 -8 0 -11 -2
c-2 -2 -4 -5 -6 -8v-61h-16v85h14l1 -12c3 4 6 7 10 10c3 2 7 4 12 4zM1096 592v-484c0 -67 -41 -107 -108 -107h-781c-66 0 -106 40 -107 106v244v240c1 69 40 109 110 109h777c68 0 109 -40 109 -108zM206 578c0 60 35 95 95 94c88 1 493 0 581 1c14 0 28 3 42 5
c-132 5 -581 5 -713 5c-60 0 -93 -33 -94 -93v-442v-19c2 0 3 0 5 -1c24 25 49 50 71 77c7 7 12 20 12 30c1 114 1 229 1 343zM966 219v179c0 61 1 123 0 184c0 42 -26 71 -67 72c-97 1 -510 1 -607 0c-42 -1 -69 -30 -69 -73v-364c0 -44 28 -72 73 -72h597
c45 0 73 27 73 74z" />
    <glyph glyph-name="b" unicode="b" 
d="M386 330h13l40 -115h-15l-11 29h-43l-10 -29h-16zM375 257h35l-17 50h-1zM472 215h-16v123h16v-123zM529 226c1 1 2 1 2 1l2 -11c-1 0 -3 -1 -5 -2c-2 0 -4 -1 -6 -1c-7 0 -12 2 -15 6c-4 4 -6 10 -6 18v52h-13v11h13v20h16v-20h16v-11h-16v-52c0 -4 1 -7 2 -9
c2 -1 4 -2 7 -2h3zM778 592v-484c0 -67 -40 -107 -107 -107h-463c-66 0 -107 41 -107 106c-1 81 0 163 0 244v240c0 69 40 109 109 109h460c68 0 108 -40 108 -108zM206 578c0 60 35 95 95 94c88 1 175 0 263 1c14 0 29 3 43 5c-133 5 -264 5 -396 5c-60 0 -93 -33 -93 -93
v-442v-19c1 0 3 0 5 -1c23 25 48 50 71 77c7 7 12 20 12 30v343zM648 219c0 60 0 120 1 179v184c0 42 -27 71 -68 72c-97 1 -192 1 -289 0c-42 -1 -69 -30 -69 -73v-364c0 -44 28 -72 73 -72h279c46 0 73 27 73 74z" />
    <glyph glyph-name="c" unicode="c" horiz-adv-x="837" 
d="M376 309c-5 -7 -8 -16 -8 -27v-21c0 -11 2 -19 7 -26c6 -7 13 -10 21 -10c9 0 15 2 20 7c5 4 7 11 7 19h15v-1c0 -10 -3 -20 -11 -27c-7 -7 -18 -10 -31 -10s-23 5 -31 14s-13 21 -13 35v20c0 14 5 26 13 35s18 14 31 14c14 0 24 -3 32 -10c7 -7 11 -16 11 -28h-15
c0 7 -2 14 -7 19s-11 7 -20 7s-16 -3 -21 -10zM491 226c1 1 2 1 2 1l2 -11c-2 0 -3 -1 -5 -2c-3 0 -5 -1 -7 -1c-6 0 -11 2 -15 6s-5 10 -5 18v52h-14v11h14v20h15v-20h16v-11h-16v-52c0 -4 1 -7 3 -9c2 -1 4 -2 6 -2h4zM548 302c1 0 2 -1 3 -1s2 -1 3 -1l-3 -14h-8
c-3 0 -7 0 -10 -2s-5 -5 -6 -8v-61h-16v85h14l2 -12c2 4 5 7 9 10c4 2 7 4 12 4zM585 215h-16v123h16v-123zM837 592v-484c0 -67 -41 -107 -107 -107h-523c-65 0 -106 41 -107 106v244v240c0 69 41 109 110 109h519c67 0 108 -40 108 -108zM206 578c0 60 35 95 95 94
c87 1 234 0 322 1c14 0 29 3 43 5c-133 5 -323 5 -455 5c-61 0 -94 -33 -94 -93v-442v-19c2 0 4 0 5 -1c24 25 49 50 71 77c7 7 12 20 12 30c1 114 1 229 1 343zM707 219c1 60 0 120 1 179v184c0 42 -27 71 -68 72c-97 1 -252 1 -348 0c-43 -1 -69 -30 -69 -73v-364
c0 -44 28 -72 73 -72h338c46 0 73 27 73 74z" />
    <glyph glyph-name="c" unicode="&#xe7;" horiz-adv-x="837" 
d="M376 309c-5 -7 -8 -16 -8 -27v-21c0 -11 2 -19 7 -26c6 -7 13 -10 21 -10c9 0 15 2 20 7c5 4 7 11 7 19h15v-1c0 -10 -3 -20 -11 -27c-7 -7 -18 -10 -31 -10s-23 5 -31 14s-13 21 -13 35v20c0 14 5 26 13 35s18 14 31 14c14 0 24 -3 32 -10c7 -7 11 -16 11 -28h-15
c0 7 -2 14 -7 19s-11 7 -20 7s-16 -3 -21 -10zM491 226c1 1 2 1 2 1l2 -11c-2 0 -3 -1 -5 -2c-3 0 -5 -1 -7 -1c-6 0 -11 2 -15 6s-5 10 -5 18v52h-14v11h14v20h15v-20h16v-11h-16v-52c0 -4 1 -7 3 -9c2 -1 4 -2 6 -2h4zM548 302c1 0 2 -1 3 -1s2 -1 3 -1l-3 -14h-8
c-3 0 -7 0 -10 -2s-5 -5 -6 -8v-61h-16v85h14l2 -12c2 4 5 7 9 10c4 2 7 4 12 4zM585 215h-16v123h16v-123zM837 592v-484c0 -67 -41 -107 -107 -107h-523c-65 0 -106 41 -107 106v244v240c0 69 41 109 110 109h519c67 0 108 -40 108 -108zM206 578c0 60 35 95 95 94
c87 1 234 0 322 1c14 0 29 3 43 5c-133 5 -323 5 -455 5c-61 0 -94 -33 -94 -93v-442v-19c2 0 4 0 5 -1c24 25 49 50 71 77c7 7 12 20 12 30c1 114 1 229 1 343zM707 219c1 60 0 120 1 179v184c0 42 -27 71 -68 72c-97 1 -252 1 -348 0c-43 -1 -69 -30 -69 -73v-364
c0 -44 28 -72 73 -72h338c46 0 73 27 73 74z" />
    <glyph glyph-name="d" unicode="d" horiz-adv-x="779" 
d="M361 215v115h72v-12h-56v-40h48v-13h-48v-50h-16zM488 302c10 0 17 -3 22 -9c5 -5 8 -13 8 -24v-54h-16v53c0 8 -2 13 -4 16c-3 4 -8 5 -14 5c-5 0 -9 0 -12 -3c-3 -2 -6 -4 -8 -8v-63h-16v85h14l1 -13c3 5 7 8 11 11c4 2 9 4 14 4zM778 592c1 -161 1 -323 0 -484
c0 -67 -41 -107 -108 -107h-463c-65 0 -106 41 -107 106v244v240c0 69 41 109 110 109h459c68 0 109 -40 109 -108zM206 578c0 60 35 95 95 94c87 1 175 0 263 1c14 0 28 3 42 5c-132 5 -263 5 -395 5c-61 0 -94 -33 -94 -93v-442v-19c2 0 4 0 5 -1c24 25 49 50 71 77
c7 7 12 20 12 30c1 114 1 229 1 343zM648 219c0 60 0 120 1 179v184c0 42 -26 71 -68 72c-96 1 -192 1 -289 0c-42 -1 -68 -30 -68 -73v-364c0 -44 28 -72 72 -72h279c46 0 73 27 73 74z" />
    <glyph glyph-name="e" unicode="e" horiz-adv-x="1096" 
d="M469 318v12h91v-12h-38v-103h-15v103h-38zM632 232c0 -3 1 -6 1 -10c0 -3 1 -6 2 -8h-16c-1 2 -1 5 -1 7c-1 2 -1 4 -1 6c-3 -5 -6 -8 -11 -11c-5 -2 -10 -4 -15 -4c-9 0 -16 3 -21 7c-5 5 -7 11 -7 19c0 9 4 15 10 19c6 5 16 7 27 7h17v9c0 5 -1 9 -5 12
c-3 3 -7 4 -13 4c-5 0 -9 -1 -12 -4c-3 -2 -5 -5 -5 -9h-14v1c-1 6 2 12 8 17s14 8 24 8s17 -3 23 -8s9 -12 9 -21v-41zM616 241v14h-18c-6 0 -11 -2 -15 -5s-5 -7 -5 -11s1 -7 4 -10c2 -2 5 -3 10 -3c6 0 11 2 15 5c5 3 7 6 9 10zM694 302c10 0 17 -4 23 -13
c6 -8 9 -20 9 -33v-2c0 -12 -3 -22 -9 -29c-6 -8 -14 -12 -24 -12c-5 0 -10 1 -14 3c-4 3 -8 6 -11 10l-2 -12h-12v124h15v-48c3 3 7 6 11 8s8 4 14 4zM711 254v3c0 10 -1 18 -5 24c-4 5 -9 9 -17 9c-4 0 -8 -2 -12 -4c-3 -3 -5 -6 -8 -10v-37c3 -4 5 -7 8 -10
c4 -2 8 -3 13 -3c7 0 12 3 16 8s5 12 5 20zM1096 592v-484c0 -67 -41 -107 -108 -107h-781c-65 0 -106 41 -107 106v244v240c0 69 41 109 110 109h777c68 0 109 -40 109 -108zM206 578c0 60 35 95 95 94c87 1 493 0 581 1c14 0 28 3 42 5c-132 5 -581 5 -713 5
c-61 0 -94 -33 -94 -93v-442v-19c2 0 4 0 5 -1c24 25 49 50 71 77c7 7 12 20 12 30c1 114 1 229 1 343zM966 219c0 60 0 120 1 179v184c0 42 -27 71 -68 72c-97 1 -510 1 -607 0c-42 -1 -68 -30 -68 -73v-364c0 -44 28 -72 72 -72h597c46 0 73 27 73 74z" />
    <glyph glyph-name="e" unicode="&#xeb;" horiz-adv-x="1096" 
d="M469 318v12h91v-12h-38v-103h-15v103h-38zM632 232c0 -3 1 -6 1 -10c0 -3 1 -6 2 -8h-16c-1 2 -1 5 -1 7c-1 2 -1 4 -1 6c-3 -5 -6 -8 -11 -11c-5 -2 -10 -4 -15 -4c-9 0 -16 3 -21 7c-5 5 -7 11 -7 19c0 9 4 15 10 19c6 5 16 7 27 7h17v9c0 5 -1 9 -5 12
c-3 3 -7 4 -13 4c-5 0 -9 -1 -12 -4c-3 -2 -5 -5 -5 -9h-14v1c-1 6 2 12 8 17s14 8 24 8s17 -3 23 -8s9 -12 9 -21v-41zM616 241v14h-18c-6 0 -11 -2 -15 -5s-5 -7 -5 -11s1 -7 4 -10c2 -2 5 -3 10 -3c6 0 11 2 15 5c5 3 7 6 9 10zM694 302c10 0 17 -4 23 -13
c6 -8 9 -20 9 -33v-2c0 -12 -3 -22 -9 -29c-6 -8 -14 -12 -24 -12c-5 0 -10 1 -14 3c-4 3 -8 6 -11 10l-2 -12h-12v124h15v-48c3 3 7 6 11 8s8 4 14 4zM711 254v3c0 10 -1 18 -5 24c-4 5 -9 9 -17 9c-4 0 -8 -2 -12 -4c-3 -3 -5 -6 -8 -10v-37c3 -4 5 -7 8 -10
c4 -2 8 -3 13 -3c7 0 12 3 16 8s5 12 5 20zM1096 592v-484c0 -67 -41 -107 -108 -107h-781c-65 0 -106 41 -107 106v244v240c0 69 41 109 110 109h777c68 0 109 -40 109 -108zM206 578c0 60 35 95 95 94c87 1 493 0 581 1c14 0 28 3 42 5c-132 5 -581 5 -713 5
c-61 0 -94 -33 -94 -93v-442v-19c2 0 4 0 5 -1c24 25 49 50 71 77c7 7 12 20 12 30c1 114 1 229 1 343zM966 219c0 60 0 120 1 179v184c0 42 -27 71 -68 72c-97 1 -510 1 -607 0c-42 -1 -68 -30 -68 -73v-364c0 -44 28 -72 72 -72h597c46 0 73 27 73 74z" />
    <glyph glyph-name="e" unicode="&#xea;" horiz-adv-x="1096" 
d="M469 318v12h91v-12h-38v-103h-15v103h-38zM632 232c0 -3 1 -6 1 -10c0 -3 1 -6 2 -8h-16c-1 2 -1 5 -1 7c-1 2 -1 4 -1 6c-3 -5 -6 -8 -11 -11c-5 -2 -10 -4 -15 -4c-9 0 -16 3 -21 7c-5 5 -7 11 -7 19c0 9 4 15 10 19c6 5 16 7 27 7h17v9c0 5 -1 9 -5 12
c-3 3 -7 4 -13 4c-5 0 -9 -1 -12 -4c-3 -2 -5 -5 -5 -9h-14v1c-1 6 2 12 8 17s14 8 24 8s17 -3 23 -8s9 -12 9 -21v-41zM616 241v14h-18c-6 0 -11 -2 -15 -5s-5 -7 -5 -11s1 -7 4 -10c2 -2 5 -3 10 -3c6 0 11 2 15 5c5 3 7 6 9 10zM694 302c10 0 17 -4 23 -13
c6 -8 9 -20 9 -33v-2c0 -12 -3 -22 -9 -29c-6 -8 -14 -12 -24 -12c-5 0 -10 1 -14 3c-4 3 -8 6 -11 10l-2 -12h-12v124h15v-48c3 3 7 6 11 8s8 4 14 4zM711 254v3c0 10 -1 18 -5 24c-4 5 -9 9 -17 9c-4 0 -8 -2 -12 -4c-3 -3 -5 -6 -8 -10v-37c3 -4 5 -7 8 -10
c4 -2 8 -3 13 -3c7 0 12 3 16 8s5 12 5 20zM1096 592v-484c0 -67 -41 -107 -108 -107h-781c-65 0 -106 41 -107 106v244v240c0 69 41 109 110 109h777c68 0 109 -40 109 -108zM206 578c0 60 35 95 95 94c87 1 493 0 581 1c14 0 28 3 42 5c-132 5 -581 5 -713 5
c-61 0 -94 -33 -94 -93v-442v-19c2 0 4 0 5 -1c24 25 49 50 71 77c7 7 12 20 12 30c1 114 1 229 1 343zM966 219c0 60 0 120 1 179v184c0 42 -27 71 -68 72c-97 1 -510 1 -607 0c-42 -1 -68 -30 -68 -73v-364c0 -44 28 -72 72 -72h597c46 0 73 27 73 74z" />
    <glyph glyph-name="e" unicode="&#xe9;" horiz-adv-x="1096" 
d="M469 318v12h91v-12h-38v-103h-15v103h-38zM632 232c0 -3 1 -6 1 -10c0 -3 1 -6 2 -8h-16c-1 2 -1 5 -1 7c-1 2 -1 4 -1 6c-3 -5 -6 -8 -11 -11c-5 -2 -10 -4 -15 -4c-9 0 -16 3 -21 7c-5 5 -7 11 -7 19c0 9 4 15 10 19c6 5 16 7 27 7h17v9c0 5 -1 9 -5 12
c-3 3 -7 4 -13 4c-5 0 -9 -1 -12 -4c-3 -2 -5 -5 -5 -9h-14v1c-1 6 2 12 8 17s14 8 24 8s17 -3 23 -8s9 -12 9 -21v-41zM616 241v14h-18c-6 0 -11 -2 -15 -5s-5 -7 -5 -11s1 -7 4 -10c2 -2 5 -3 10 -3c6 0 11 2 15 5c5 3 7 6 9 10zM694 302c10 0 17 -4 23 -13
c6 -8 9 -20 9 -33v-2c0 -12 -3 -22 -9 -29c-6 -8 -14 -12 -24 -12c-5 0 -10 1 -14 3c-4 3 -8 6 -11 10l-2 -12h-12v124h15v-48c3 3 7 6 11 8s8 4 14 4zM711 254v3c0 10 -1 18 -5 24c-4 5 -9 9 -17 9c-4 0 -8 -2 -12 -4c-3 -3 -5 -6 -8 -10v-37c3 -4 5 -7 8 -10
c4 -2 8 -3 13 -3c7 0 12 3 16 8s5 12 5 20zM1096 592v-484c0 -67 -41 -107 -108 -107h-781c-65 0 -106 41 -107 106v244v240c0 69 41 109 110 109h777c68 0 109 -40 109 -108zM206 578c0 60 35 95 95 94c87 1 493 0 581 1c14 0 28 3 42 5c-132 5 -581 5 -713 5
c-61 0 -94 -33 -94 -93v-442v-19c2 0 4 0 5 -1c24 25 49 50 71 77c7 7 12 20 12 30c1 114 1 229 1 343zM966 219c0 60 0 120 1 179v184c0 42 -27 71 -68 72c-97 1 -510 1 -607 0c-42 -1 -68 -30 -68 -73v-364c0 -44 28 -72 72 -72h597c46 0 73 27 73 74z" />
    <glyph glyph-name="e" unicode="&#xe8;" horiz-adv-x="1096" 
d="M469 318v12h91v-12h-38v-103h-15v103h-38zM632 232c0 -3 1 -6 1 -10c0 -3 1 -6 2 -8h-16c-1 2 -1 5 -1 7c-1 2 -1 4 -1 6c-3 -5 -6 -8 -11 -11c-5 -2 -10 -4 -15 -4c-9 0 -16 3 -21 7c-5 5 -7 11 -7 19c0 9 4 15 10 19c6 5 16 7 27 7h17v9c0 5 -1 9 -5 12
c-3 3 -7 4 -13 4c-5 0 -9 -1 -12 -4c-3 -2 -5 -5 -5 -9h-14v1c-1 6 2 12 8 17s14 8 24 8s17 -3 23 -8s9 -12 9 -21v-41zM616 241v14h-18c-6 0 -11 -2 -15 -5s-5 -7 -5 -11s1 -7 4 -10c2 -2 5 -3 10 -3c6 0 11 2 15 5c5 3 7 6 9 10zM694 302c10 0 17 -4 23 -13
c6 -8 9 -20 9 -33v-2c0 -12 -3 -22 -9 -29c-6 -8 -14 -12 -24 -12c-5 0 -10 1 -14 3c-4 3 -8 6 -11 10l-2 -12h-12v124h15v-48c3 3 7 6 11 8s8 4 14 4zM711 254v3c0 10 -1 18 -5 24c-4 5 -9 9 -17 9c-4 0 -8 -2 -12 -4c-3 -3 -5 -6 -8 -10v-37c3 -4 5 -7 8 -10
c4 -2 8 -3 13 -3c7 0 12 3 16 8s5 12 5 20zM1096 592v-484c0 -67 -41 -107 -108 -107h-781c-65 0 -106 41 -107 106v244v240c0 69 41 109 110 109h777c68 0 109 -40 109 -108zM206 578c0 60 35 95 95 94c87 1 493 0 581 1c14 0 28 3 42 5c-132 5 -581 5 -713 5
c-61 0 -94 -33 -94 -93v-442v-19c2 0 4 0 5 -1c24 25 49 50 71 77c7 7 12 20 12 30c1 114 1 229 1 343zM966 219c0 60 0 120 1 179v184c0 42 -27 71 -68 72c-97 1 -510 1 -607 0c-42 -1 -68 -30 -68 -73v-364c0 -44 28 -72 72 -72h597c46 0 73 27 73 74z" />
    <glyph glyph-name="f" unicode="f" horiz-adv-x="1112" 
d="M257 309c-5 -7 -8 -16 -8 -27v-21c0 -11 3 -19 8 -26s12 -10 21 -10s15 2 20 7c5 4 7 11 7 19h14v-1c0 -10 -3 -20 -11 -27c-7 -7 -18 -10 -31 -10s-23 5 -31 14s-13 21 -13 35v20c0 14 5 26 13 35s18 14 31 14c14 0 24 -3 32 -10c7 -7 11 -16 11 -28h-15
c0 7 -2 14 -7 19s-11 7 -20 7s-16 -3 -21 -10zM404 232c0 -3 2 -6 2 -10c0 -3 0 -6 1 -8h-16c-1 2 -1 5 -1 7c-1 2 -1 4 -1 6c-2 -5 -6 -8 -11 -11c-5 -2 -10 -4 -15 -4c-9 0 -16 3 -20 7c-5 5 -7 11 -7 19c0 9 3 15 9 19c7 5 16 7 27 7h17v9c0 5 -1 9 -4 12
c-4 3 -8 4 -13 4c-6 0 -10 -1 -13 -4c-3 -2 -5 -5 -5 -9h-14v1c-1 6 3 12 8 17c6 5 14 8 24 8s17 -3 23 -8s9 -12 9 -21v-41zM388 241v14h-17c-6 0 -11 -1 -15 -5c-4 -3 -5 -7 -5 -11s1 -7 3 -9c3 -2 6 -3 11 -3s10 1 15 4c4 3 7 6 8 10zM466 302c11 0 19 -4 25 -13
c6 -8 8 -19 8 -33v-2c0 -12 -2 -22 -8 -29c-6 -8 -14 -12 -25 -12c-5 0 -10 1 -14 3s-7 4 -10 8v-41h-15v117h11l3 -11c3 4 6 7 10 9c5 2 9 4 15 4zM484 254h-1v2c0 9 -2 18 -6 23c-4 6 -9 10 -17 10c-4 0 -8 -2 -11 -4c-3 -1 -5 -4 -7 -8v-41c1 -3 4 -7 7 -8
c3 -2 8 -3 12 -3c8 0 13 3 17 8c3 6 6 13 6 21zM576 255c5 -4 8 -9 8 -18c0 -8 -3 -14 -9 -18c-6 -5 -14 -7 -24 -7c-11 0 -19 2 -26 8c-6 5 -10 12 -9 19v1h15c0 -6 2 -10 6 -12c4 -3 8 -4 13 -4c6 0 10 2 13 4c4 2 5 5 5 9s-1 6 -4 9c-2 2 -7 4 -14 5c-10 3 -18 6 -23 10
c-6 3 -8 9 -8 15c0 7 2 13 8 18s14 8 23 8c10 0 18 -3 24 -9c6 -5 9 -11 9 -18h-15c0 3 -2 7 -5 10s-8 4 -13 4s-9 -1 -12 -4c-3 -2 -4 -5 -4 -8c0 -4 1 -7 3 -8c3 -2 7 -4 15 -5c10 -2 18 -5 24 -9zM661 330v-103h56v-12h-72v115h16zM766 302c12 0 21 -4 28 -12
s11 -19 11 -32v-2c0 -13 -4 -23 -11 -31s-16 -12 -28 -12s-21 4 -28 12s-10 18 -10 31v2c0 13 3 23 10 31s16 13 28 13zM789 257v1c0 9 -2 17 -6 23c-4 5 -10 9 -17 9s-13 -4 -17 -9c-4 -6 -6 -13 -6 -23v-1c0 -9 2 -17 6 -23s10 -8 17 -8s13 2 17 8s6 14 6 23zM841 281
c-4 -6 -5 -13 -5 -24v-3c0 -8 2 -15 5 -21s9 -9 17 -9c5 0 8 2 12 5s6 7 6 12h15v-1c0 -7 -4 -13 -10 -19s-14 -9 -23 -9c-12 0 -21 4 -28 13c-6 8 -9 18 -9 30v3c0 12 3 23 9 31c7 8 16 12 28 12c9 0 17 -3 23 -9s9 -13 9 -21v-1h-14c0 6 -2 10 -5 14s-8 5 -13 5
c-8 0 -14 -3 -17 -8zM976 300l-31 -39l33 -46h-18l-28 39h-8v-39h-16v123h16v-71h8l25 33h19zM1112 592v-484c0 -67 -41 -107 -108 -107h-797c-65 0 -106 41 -107 106v244v240c0 69 41 109 110 109h793c68 0 109 -40 109 -108zM206 578c0 60 35 95 95 94c87 1 509 0 597 1
c14 0 28 3 42 5c-132 5 -597 5 -729 5c-61 0 -94 -33 -94 -93v-442v-19c2 0 4 0 5 -1c24 25 49 50 71 77c7 7 12 20 12 30c1 114 1 229 1 343zM982 219c0 60 0 120 1 179v184c0 42 -27 71 -68 72c-96 1 -526 1 -623 0c-42 -1 -68 -30 -68 -73v-364c0 -44 28 -72 72 -72h613
c46 0 73 27 73 74z" />
    <glyph glyph-name="g" unicode="g" horiz-adv-x="1491" 
d="M678 279c12 -3 21 -8 27 -14c6 -5 9 -12 9 -21s-3 -17 -10 -22c-8 -6 -17 -9 -29 -9c-11 0 -21 3 -30 9c-8 6 -12 15 -12 25v1h15c0 -7 3 -13 8 -17c6 -4 12 -6 19 -6s12 2 17 5c4 3 6 7 6 13c0 5 -1 10 -5 13c-4 4 -11 7 -20 9c-12 4 -21 8 -28 13c-6 6 -9 13 -9 21
c0 10 4 17 11 23s16 9 27 9c12 0 22 -3 29 -10s10 -15 10 -24v-1h-15c0 7 -2 12 -7 16c-4 5 -10 7 -17 7s-13 -2 -17 -6c-3 -3 -6 -8 -6 -13s3 -9 7 -12c4 -4 11 -6 20 -9zM774 302c9 0 16 -3 21 -9c5 -5 8 -14 8 -25v-53h-16v54c0 7 -2 12 -4 15c-3 4 -8 5 -14 5
c-4 0 -8 -1 -12 -3c-3 -1 -5 -4 -8 -7v-65h-15v124h15v-49c3 4 7 7 11 9s9 4 14 4zM843 215h-16v85h16v-85zM843 323h-16v15h16v-15zM900 340c2 0 3 -1 6 -1c1 0 3 0 5 -1l-2 -12s-1 1 -3 1h-4c-5 0 -8 -2 -10 -4c-3 -3 -4 -7 -4 -12v-11h16v-11h-16v-74h-15v74h-14v11h14
v11c0 9 2 16 7 21s11 8 20 8zM953 226c1 1 2 1 2 1l2 -11c-1 0 -3 -1 -5 -2c-2 0 -4 -1 -7 -1c-6 0 -11 2 -15 6c-3 4 -5 10 -5 18v52h-14v11h14v20h16v-20h16v-11h-16v-52c0 -4 1 -7 2 -9c2 -1 4 -2 7 -2h3zM1490 592c0 -161 0 -323 1 -484c0 -67 -41 -107 -108 -107h-1175
c-65 0 -106 41 -107 106v244v240c0 69 40 109 110 109h1171c67 0 108 -40 108 -108zM206 578c0 60 35 95 94 94c88 1 888 0 975 1c14 0 29 3 43 5c-132 5 -975 5 -1107 5c-60 0 -93 -33 -93 -93v-442v-19c1 0 3 0 5 -1c23 25 48 50 71 77c7 7 12 20 12 30v343zM1360 219
c1 60 0 120 1 179v184c0 42 -27 71 -68 72c-96 1 -904 1 -1000 0c-43 -1 -69 -30 -69 -73v-364c0 -44 28 -72 73 -72h990c46 0 73 27 73 74z" />
    <glyph glyph-name="h" unicode="h" horiz-adv-x="1490" 
d="M467 276c8 -1 14 -4 19 -9c4 -6 6 -12 6 -20c0 -11 -3 -19 -10 -24s-16 -8 -28 -8h-46v115h38c12 0 21 -3 28 -8s10 -13 10 -23c0 -5 -1 -9 -4 -14c-4 -4 -8 -7 -13 -9zM424 318v-37h25c6 0 11 1 14 4c4 4 6 8 6 14s-2 11 -6 14s-9 5 -17 5h-22zM470 232c4 4 6 9 6 14
c0 7 -2 11 -6 16c-4 4 -9 6 -16 6h-30v-41h30c7 0 13 2 16 5zM575 232c0 -3 2 -6 2 -10c0 -3 1 -6 2 -8h-16c-1 2 -1 5 -2 7v6c-3 -5 -7 -8 -11 -11c-5 -2 -10 -4 -15 -4c-10 0 -16 3 -21 7c-5 5 -7 11 -7 19c0 9 3 15 10 19c6 5 15 7 27 7h16v9c0 5 -1 9 -4 12s-7 4 -13 4
c-5 0 -9 -1 -12 -4c-3 -2 -5 -5 -5 -9h-15v1c0 6 3 12 9 17s14 8 24 8c9 0 17 -3 23 -8s8 -12 8 -21v-41zM560 241v14h-17c-7 0 -12 -1 -15 -5c-4 -3 -6 -7 -6 -11s2 -7 4 -9s5 -3 10 -3c6 0 11 1 15 4c5 3 7 6 9 10zM615 281c-3 -6 -5 -13 -5 -24v-3c0 -8 3 -15 6 -21
s9 -9 17 -9c4 0 8 2 12 5s5 7 5 12h14v-1c0 -7 -3 -13 -9 -19c-7 -6 -14 -9 -23 -9c-12 0 -22 4 -28 13c-6 8 -10 18 -10 30v3c0 12 4 23 10 31s16 12 27 12c10 0 18 -3 24 -9s8 -13 8 -21v-1h-14c0 6 -1 10 -5 14c-3 4 -7 5 -13 5c-7 0 -13 -3 -16 -8zM750 300l-31 -39
l34 -46h-19l-28 39h-8v-39h-15v123h15v-71h8l26 33h18zM822 255c5 -4 8 -9 9 -18c0 -8 -4 -14 -9 -18c-7 -5 -15 -7 -25 -7s-19 2 -26 8c-6 5 -9 12 -9 19v1h15c0 -6 3 -10 6 -12c4 -3 8 -4 14 -4c5 0 9 2 13 4c3 2 5 5 5 9s-2 6 -4 9c-2 2 -8 4 -15 5c-10 3 -18 6 -23 10
c-5 3 -8 9 -8 15c0 7 3 13 9 18s14 8 23 8s18 -3 23 -9c6 -5 9 -11 9 -18h-15c0 3 -2 7 -5 10s-7 4 -12 4c-6 0 -10 -1 -13 -4c-2 -2 -4 -5 -4 -8c0 -4 2 -7 4 -8c2 -2 7 -4 14 -5c11 -2 19 -5 24 -9zM889 302c11 0 19 -4 25 -13c6 -8 8 -19 8 -33v-2c0 -12 -2 -22 -8 -29
c-6 -8 -14 -12 -25 -12c-5 0 -10 1 -14 3s-7 4 -10 8v-41h-15v117h11l3 -11c3 4 6 7 10 9c5 2 9 4 15 4zM907 254h-1v2c0 9 -2 17 -6 23s-9 10 -17 10c-4 0 -8 -2 -11 -4c-3 -1 -5 -4 -7 -8v-41c1 -3 4 -7 7 -8c3 -2 8 -3 12 -3c8 0 13 3 17 8c3 6 6 13 6 21zM1008 232
c0 -3 1 -6 1 -10c0 -3 1 -6 2 -8h-16c-1 2 -1 5 -1 7c-1 2 -1 4 -1 6c-2 -5 -6 -8 -11 -11c-5 -2 -10 -4 -15 -4c-9 0 -16 3 -21 7c-4 5 -7 11 -7 19c0 9 4 15 10 19c7 5 16 7 27 7h17v9c0 5 -1 9 -5 12c-3 3 -7 4 -12 4c-6 0 -10 -1 -13 -4c-3 -2 -5 -5 -5 -9h-14v1
c-1 6 2 12 8 17s14 8 24 8s17 -3 23 -8s9 -12 9 -21v-41zM992 241v14h-17c-6 0 -11 -1 -15 -5c-4 -3 -5 -7 -5 -11s1 -7 3 -9s6 -3 11 -3s10 1 15 4c4 3 7 6 8 10zM1048 281c-4 -6 -6 -13 -5 -24v-3c0 -8 2 -15 5 -21s9 -9 17 -9c5 0 9 2 12 5c4 3 6 7 6 12h14v-1
c0 -7 -4 -13 -10 -19s-14 -9 -23 -9c-12 0 -21 4 -28 13c-6 8 -9 18 -9 30v3c0 12 3 23 9 31c7 8 17 12 28 12c10 0 18 -3 24 -9c5 -6 8 -13 8 -21v-1h-14c0 6 -1 10 -5 14c-3 4 -7 5 -13 5c-7 0 -13 -3 -16 -8zM1148 302c11 0 20 -4 25 -9c6 -8 8 -17 8 -29v-8h-54
c0 -9 2 -16 6 -21c4 -6 9 -8 17 -8c5 0 10 0 14 2c4 1 8 3 10 6l6 -10c-3 -4 -6 -6 -12 -8c-5 -2 -11 -3 -18 -3c-12 0 -22 4 -29 12c-7 7 -10 17 -10 30v4c0 11 4 22 11 30s16 12 26 12zM1166 267v2c0 6 -1 12 -4 15c-3 4 -8 6 -14 6s-10 -2 -14 -6c-3 -5 -6 -10 -6 -16v-1
h38zM1490 592v-484c0 -67 -41 -107 -107 -107h-1175c-66 0 -107 41 -107 106c-1 81 0 163 0 244v240c0 69 40 109 109 109h1171c68 0 109 -40 109 -108zM206 578c0 60 35 95 94 94c88 1 888 0 975 1c14 0 29 3 43 5c-132 5 -975 5 -1107 5c-60 0 -93 -33 -93 -93v-442v-19
c1 0 3 0 5 -1c23 25 48 50 71 77c7 7 12 20 12 30v343zM1360 219c0 60 0 120 1 179v184c0 42 -27 71 -68 72c-96 1 -904 1 -1000 0c-43 -1 -69 -30 -69 -73v-364c0 -44 28 -72 73 -72h990c46 0 73 27 73 74z" />
    <glyph glyph-name="i" unicode="i" horiz-adv-x="1096" 
d="M414 215h-15v115h15v-115zM481 302c9 0 17 -3 21 -9c5 -5 8 -13 8 -24v-54h-16v53c0 8 -1 13 -4 16c-3 4 -7 5 -13 5c-5 0 -10 0 -13 -3c-3 -2 -6 -4 -8 -8v-63h-15v85h14l1 -13c2 5 6 8 10 11c5 2 10 4 15 4zM589 255c6 -4 8 -9 9 -18c0 -8 -3 -14 -9 -18
c-7 -5 -15 -7 -25 -7s-19 2 -25 8c-7 5 -10 12 -10 19v1h15c0 -6 3 -10 6 -12c4 -3 8 -4 14 -4c5 0 10 2 13 4s5 5 5 9s-1 6 -4 9c-2 2 -8 4 -15 5c-10 3 -17 6 -23 10c-5 3 -8 9 -8 15c0 7 3 13 9 18s14 8 23 8c10 0 18 -3 24 -9c5 -5 8 -11 8 -18h-15c0 3 -2 7 -5 10
s-7 4 -12 4c-6 0 -10 -1 -13 -4c-2 -2 -4 -5 -4 -8c0 -4 2 -7 4 -8c2 -2 7 -4 14 -5c11 -2 19 -5 24 -9zM649 302c12 0 19 -2 25 -9c6 -8 9 -17 9 -29v-8h-55c0 -9 3 -16 6 -21c4 -6 10 -8 18 -8c5 0 10 0 14 2c3 1 7 3 10 6l6 -10c-3 -4 -7 -6 -12 -8s-11 -3 -18 -3
c-13 0 -22 4 -29 12c-7 7 -10 17 -10 30v4c0 11 4 22 11 30s15 12 25 12zM668 267v2c0 6 -1 12 -4 15c-3 4 -8 6 -14 6c-5 0 -10 -2 -13 -6c-4 -5 -6 -10 -7 -16v-1h38zM738 302c1 0 1 -1 2 -1c2 0 3 -1 3 -1l-2 -14h-8c-4 0 -8 0 -10 -2c-3 -2 -5 -5 -7 -8v-61h-15v85h14
l1 -12c3 4 6 7 9 10c4 2 8 4 13 4zM793 226c1 1 2 1 2 1l2 -11c-2 0 -3 -1 -5 -2c-3 0 -5 -1 -7 -1c-6 0 -11 2 -15 6s-5 10 -5 18v52h-14v11h14v20h15v-20h16v-11h-16v-52c0 -4 1 -7 3 -9c2 -1 4 -2 6 -2h4zM1096 592v-484c0 -67 -41 -107 -108 -107h-781
c-65 0 -106 41 -107 106v244v240c0 69 41 109 110 109h777c68 0 109 -40 109 -108zM206 578c0 60 35 95 95 94c87 1 493 0 581 1c14 0 28 3 42 5c-132 5 -581 5 -713 5c-61 0 -94 -33 -94 -93v-442v-19c2 0 4 0 5 -1c24 25 49 50 71 77c7 7 12 20 12 30c1 114 1 229 1 343z
M966 219c0 60 0 120 1 179v184c0 42 -27 71 -68 72c-97 1 -510 1 -607 0c-42 -1 -68 -30 -68 -73v-364c0 -44 28 -72 72 -72h597c46 0 73 27 73 74z" />
    <glyph glyph-name="i" unicode="&#xef;" horiz-adv-x="1096" 
d="M414 215h-15v115h15v-115zM481 302c9 0 17 -3 21 -9c5 -5 8 -13 8 -24v-54h-16v53c0 8 -1 13 -4 16c-3 4 -7 5 -13 5c-5 0 -10 0 -13 -3c-3 -2 -6 -4 -8 -8v-63h-15v85h14l1 -13c2 5 6 8 10 11c5 2 10 4 15 4zM589 255c6 -4 8 -9 9 -18c0 -8 -3 -14 -9 -18
c-7 -5 -15 -7 -25 -7s-19 2 -25 8c-7 5 -10 12 -10 19v1h15c0 -6 3 -10 6 -12c4 -3 8 -4 14 -4c5 0 10 2 13 4s5 5 5 9s-1 6 -4 9c-2 2 -8 4 -15 5c-10 3 -17 6 -23 10c-5 3 -8 9 -8 15c0 7 3 13 9 18s14 8 23 8c10 0 18 -3 24 -9c5 -5 8 -11 8 -18h-15c0 3 -2 7 -5 10
s-7 4 -12 4c-6 0 -10 -1 -13 -4c-2 -2 -4 -5 -4 -8c0 -4 2 -7 4 -8c2 -2 7 -4 14 -5c11 -2 19 -5 24 -9zM649 302c12 0 19 -2 25 -9c6 -8 9 -17 9 -29v-8h-55c0 -9 3 -16 6 -21c4 -6 10 -8 18 -8c5 0 10 0 14 2c3 1 7 3 10 6l6 -10c-3 -4 -7 -6 -12 -8s-11 -3 -18 -3
c-13 0 -22 4 -29 12c-7 7 -10 17 -10 30v4c0 11 4 22 11 30s15 12 25 12zM668 267v2c0 6 -1 12 -4 15c-3 4 -8 6 -14 6c-5 0 -10 -2 -13 -6c-4 -5 -6 -10 -7 -16v-1h38zM738 302c1 0 1 -1 2 -1c2 0 3 -1 3 -1l-2 -14h-8c-4 0 -8 0 -10 -2c-3 -2 -5 -5 -7 -8v-61h-15v85h14
l1 -12c3 4 6 7 9 10c4 2 8 4 13 4zM793 226c1 1 2 1 2 1l2 -11c-2 0 -3 -1 -5 -2c-3 0 -5 -1 -7 -1c-6 0 -11 2 -15 6s-5 10 -5 18v52h-14v11h14v20h15v-20h16v-11h-16v-52c0 -4 1 -7 3 -9c2 -1 4 -2 6 -2h4zM1096 592v-484c0 -67 -41 -107 -108 -107h-781
c-65 0 -106 41 -107 106v244v240c0 69 41 109 110 109h777c68 0 109 -40 109 -108zM206 578c0 60 35 95 95 94c87 1 493 0 581 1c14 0 28 3 42 5c-132 5 -581 5 -713 5c-61 0 -94 -33 -94 -93v-442v-19c2 0 4 0 5 -1c24 25 49 50 71 77c7 7 12 20 12 30c1 114 1 229 1 343z
M966 219c0 60 0 120 1 179v184c0 42 -27 71 -68 72c-97 1 -510 1 -607 0c-42 -1 -68 -30 -68 -73v-364c0 -44 28 -72 72 -72h597c46 0 73 27 73 74z" />
    <glyph glyph-name="i" unicode="&#xee;" horiz-adv-x="1096" 
d="M414 215h-15v115h15v-115zM481 302c9 0 17 -3 21 -9c5 -5 8 -13 8 -24v-54h-16v53c0 8 -1 13 -4 16c-3 4 -7 5 -13 5c-5 0 -10 0 -13 -3c-3 -2 -6 -4 -8 -8v-63h-15v85h14l1 -13c2 5 6 8 10 11c5 2 10 4 15 4zM589 255c6 -4 8 -9 9 -18c0 -8 -3 -14 -9 -18
c-7 -5 -15 -7 -25 -7s-19 2 -25 8c-7 5 -10 12 -10 19v1h15c0 -6 3 -10 6 -12c4 -3 8 -4 14 -4c5 0 10 2 13 4s5 5 5 9s-1 6 -4 9c-2 2 -8 4 -15 5c-10 3 -17 6 -23 10c-5 3 -8 9 -8 15c0 7 3 13 9 18s14 8 23 8c10 0 18 -3 24 -9c5 -5 8 -11 8 -18h-15c0 3 -2 7 -5 10
s-7 4 -12 4c-6 0 -10 -1 -13 -4c-2 -2 -4 -5 -4 -8c0 -4 2 -7 4 -8c2 -2 7 -4 14 -5c11 -2 19 -5 24 -9zM649 302c12 0 19 -2 25 -9c6 -8 9 -17 9 -29v-8h-55c0 -9 3 -16 6 -21c4 -6 10 -8 18 -8c5 0 10 0 14 2c3 1 7 3 10 6l6 -10c-3 -4 -7 -6 -12 -8s-11 -3 -18 -3
c-13 0 -22 4 -29 12c-7 7 -10 17 -10 30v4c0 11 4 22 11 30s15 12 25 12zM668 267v2c0 6 -1 12 -4 15c-3 4 -8 6 -14 6c-5 0 -10 -2 -13 -6c-4 -5 -6 -10 -7 -16v-1h38zM738 302c1 0 1 -1 2 -1c2 0 3 -1 3 -1l-2 -14h-8c-4 0 -8 0 -10 -2c-3 -2 -5 -5 -7 -8v-61h-15v85h14
l1 -12c3 4 6 7 9 10c4 2 8 4 13 4zM793 226c1 1 2 1 2 1l2 -11c-2 0 -3 -1 -5 -2c-3 0 -5 -1 -7 -1c-6 0 -11 2 -15 6s-5 10 -5 18v52h-14v11h14v20h15v-20h16v-11h-16v-52c0 -4 1 -7 3 -9c2 -1 4 -2 6 -2h4zM1096 592v-484c0 -67 -41 -107 -108 -107h-781
c-65 0 -106 41 -107 106v244v240c0 69 41 109 110 109h777c68 0 109 -40 109 -108zM206 578c0 60 35 95 95 94c87 1 493 0 581 1c14 0 28 3 42 5c-132 5 -581 5 -713 5c-61 0 -94 -33 -94 -93v-442v-19c2 0 4 0 5 -1c24 25 49 50 71 77c7 7 12 20 12 30c1 114 1 229 1 343z
M966 219c0 60 0 120 1 179v184c0 42 -27 71 -68 72c-97 1 -510 1 -607 0c-42 -1 -68 -30 -68 -73v-364c0 -44 28 -72 72 -72h597c46 0 73 27 73 74z" />
    <glyph glyph-name="i" unicode="&#xed;" horiz-adv-x="1096" 
d="M414 215h-15v115h15v-115zM481 302c9 0 17 -3 21 -9c5 -5 8 -13 8 -24v-54h-16v53c0 8 -1 13 -4 16c-3 4 -7 5 -13 5c-5 0 -10 0 -13 -3c-3 -2 -6 -4 -8 -8v-63h-15v85h14l1 -13c2 5 6 8 10 11c5 2 10 4 15 4zM589 255c6 -4 8 -9 9 -18c0 -8 -3 -14 -9 -18
c-7 -5 -15 -7 -25 -7s-19 2 -25 8c-7 5 -10 12 -10 19v1h15c0 -6 3 -10 6 -12c4 -3 8 -4 14 -4c5 0 10 2 13 4s5 5 5 9s-1 6 -4 9c-2 2 -8 4 -15 5c-10 3 -17 6 -23 10c-5 3 -8 9 -8 15c0 7 3 13 9 18s14 8 23 8c10 0 18 -3 24 -9c5 -5 8 -11 8 -18h-15c0 3 -2 7 -5 10
s-7 4 -12 4c-6 0 -10 -1 -13 -4c-2 -2 -4 -5 -4 -8c0 -4 2 -7 4 -8c2 -2 7 -4 14 -5c11 -2 19 -5 24 -9zM649 302c12 0 19 -2 25 -9c6 -8 9 -17 9 -29v-8h-55c0 -9 3 -16 6 -21c4 -6 10 -8 18 -8c5 0 10 0 14 2c3 1 7 3 10 6l6 -10c-3 -4 -7 -6 -12 -8s-11 -3 -18 -3
c-13 0 -22 4 -29 12c-7 7 -10 17 -10 30v4c0 11 4 22 11 30s15 12 25 12zM668 267v2c0 6 -1 12 -4 15c-3 4 -8 6 -14 6c-5 0 -10 -2 -13 -6c-4 -5 -6 -10 -7 -16v-1h38zM738 302c1 0 1 -1 2 -1c2 0 3 -1 3 -1l-2 -14h-8c-4 0 -8 0 -10 -2c-3 -2 -5 -5 -7 -8v-61h-15v85h14
l1 -12c3 4 6 7 9 10c4 2 8 4 13 4zM793 226c1 1 2 1 2 1l2 -11c-2 0 -3 -1 -5 -2c-3 0 -5 -1 -7 -1c-6 0 -11 2 -15 6s-5 10 -5 18v52h-14v11h14v20h15v-20h16v-11h-16v-52c0 -4 1 -7 3 -9c2 -1 4 -2 6 -2h4zM1096 592v-484c0 -67 -41 -107 -108 -107h-781
c-65 0 -106 41 -107 106v244v240c0 69 41 109 110 109h777c68 0 109 -40 109 -108zM206 578c0 60 35 95 95 94c87 1 493 0 581 1c14 0 28 3 42 5c-132 5 -581 5 -713 5c-61 0 -94 -33 -94 -93v-442v-19c2 0 4 0 5 -1c24 25 49 50 71 77c7 7 12 20 12 30c1 114 1 229 1 343z
M966 219c0 60 0 120 1 179v184c0 42 -27 71 -68 72c-97 1 -510 1 -607 0c-42 -1 -68 -30 -68 -73v-364c0 -44 28 -72 72 -72h597c46 0 73 27 73 74z" />
    <glyph glyph-name="i" unicode="&#xec;" horiz-adv-x="1096" 
d="M414 215h-15v115h15v-115zM481 302c9 0 17 -3 21 -9c5 -5 8 -13 8 -24v-54h-16v53c0 8 -1 13 -4 16c-3 4 -7 5 -13 5c-5 0 -10 0 -13 -3c-3 -2 -6 -4 -8 -8v-63h-15v85h14l1 -13c2 5 6 8 10 11c5 2 10 4 15 4zM589 255c6 -4 8 -9 9 -18c0 -8 -3 -14 -9 -18
c-7 -5 -15 -7 -25 -7s-19 2 -25 8c-7 5 -10 12 -10 19v1h15c0 -6 3 -10 6 -12c4 -3 8 -4 14 -4c5 0 10 2 13 4s5 5 5 9s-1 6 -4 9c-2 2 -8 4 -15 5c-10 3 -17 6 -23 10c-5 3 -8 9 -8 15c0 7 3 13 9 18s14 8 23 8c10 0 18 -3 24 -9c5 -5 8 -11 8 -18h-15c0 3 -2 7 -5 10
s-7 4 -12 4c-6 0 -10 -1 -13 -4c-2 -2 -4 -5 -4 -8c0 -4 2 -7 4 -8c2 -2 7 -4 14 -5c11 -2 19 -5 24 -9zM649 302c12 0 19 -2 25 -9c6 -8 9 -17 9 -29v-8h-55c0 -9 3 -16 6 -21c4 -6 10 -8 18 -8c5 0 10 0 14 2c3 1 7 3 10 6l6 -10c-3 -4 -7 -6 -12 -8s-11 -3 -18 -3
c-13 0 -22 4 -29 12c-7 7 -10 17 -10 30v4c0 11 4 22 11 30s15 12 25 12zM668 267v2c0 6 -1 12 -4 15c-3 4 -8 6 -14 6c-5 0 -10 -2 -13 -6c-4 -5 -6 -10 -7 -16v-1h38zM738 302c1 0 1 -1 2 -1c2 0 3 -1 3 -1l-2 -14h-8c-4 0 -8 0 -10 -2c-3 -2 -5 -5 -7 -8v-61h-15v85h14
l1 -12c3 4 6 7 9 10c4 2 8 4 13 4zM793 226c1 1 2 1 2 1l2 -11c-2 0 -3 -1 -5 -2c-3 0 -5 -1 -7 -1c-6 0 -11 2 -15 6s-5 10 -5 18v52h-14v11h14v20h15v-20h16v-11h-16v-52c0 -4 1 -7 3 -9c2 -1 4 -2 6 -2h4zM1096 592v-484c0 -67 -41 -107 -108 -107h-781
c-65 0 -106 41 -107 106v244v240c0 69 41 109 110 109h777c68 0 109 -40 109 -108zM206 578c0 60 35 95 95 94c87 1 493 0 581 1c14 0 28 3 42 5c-132 5 -581 5 -713 5c-61 0 -94 -33 -94 -93v-442v-19c2 0 4 0 5 -1c24 25 49 50 71 77c7 7 12 20 12 30c1 114 1 229 1 343z
M966 219c0 60 0 120 1 179v184c0 42 -27 71 -68 72c-97 1 -510 1 -607 0c-42 -1 -68 -30 -68 -73v-364c0 -44 28 -72 72 -72h597c46 0 73 27 73 74z" />
    <glyph glyph-name="j" unicode="j" horiz-adv-x="800" 
d="M316 278v52h15v-115h-15v50h-56v-50h-16v115h16v-52h56zM390 302c12 0 21 -4 28 -12s10 -19 10 -32v-2c0 -13 -3 -23 -10 -31s-16 -12 -28 -12s-21 4 -28 12s-10 18 -10 31v2c0 13 3 23 10 31s16 13 28 13zM413 257v1c0 9 -2 17 -6 23c-4 5 -10 9 -17 9s-13 -4 -17 -9
c-4 -6 -6 -13 -6 -23v-1c0 -9 2 -17 6 -23c5 -6 10 -8 17 -8s13 2 17 8s6 14 6 23zM538 302c9 0 16 -3 20 -9c5 -6 8 -15 8 -27v-51h-16v51c0 8 -1 14 -4 18s-7 5 -13 5c-5 0 -10 -1 -13 -5s-5 -9 -6 -14v-56h-15v51c0 9 -1 14 -5 18c-3 4 -7 6 -13 6c-4 0 -8 -1 -11 -3
c-4 -2 -6 -4 -7 -8v-63h-16v85h14l1 -11c3 4 7 7 11 9s10 4 15 4s11 -2 14 -4c4 -3 7 -7 10 -12c2 5 6 9 10 11c5 3 10 5 16 5zM621 302c12 0 19 -2 25 -9c6 -8 9 -17 9 -29v-8h-55c0 -9 3 -16 6 -21c4 -6 10 -8 18 -8c5 0 10 1 14 2c3 1 7 3 10 6l6 -10c-3 -4 -7 -6 -12 -8
s-11 -3 -18 -3c-13 0 -22 4 -29 12c-7 7 -10 17 -10 30v4c0 11 4 22 11 30s15 12 25 12zM640 267v2c0 6 -1 12 -4 15c-3 4 -8 6 -14 6c-5 0 -10 -2 -13 -6c-4 -5 -6 -10 -7 -16v-1h38zM800 592v-484c0 -67 -41 -107 -108 -107h-485c-65 0 -106 41 -107 106v244v240
c0 69 41 109 110 109h481c68 0 109 -40 109 -108zM206 578c0 60 35 95 95 94c87 1 197 0 284 1c14 0 29 3 43 5c-133 5 -285 5 -417 5c-61 0 -94 -33 -94 -93v-442v-19c2 0 4 0 5 -1c24 25 49 50 71 77c7 7 12 20 12 30c1 114 1 229 1 343zM670 219v179c0 61 1 123 0 184
c0 42 -26 71 -67 72c-97 1 -214 1 -311 0c-42 -1 -68 -30 -68 -73v-364c0 -44 28 -72 72 -72h301c45 0 73 27 73 74z" />
    <glyph glyph-name="k" unicode="k" horiz-adv-x="1096" 
d="M415 330c15 0 27 -5 36 -14c9 -10 13 -21 13 -36v-16c0 -14 -4 -26 -13 -35s-21 -14 -36 -14h-36v115h36zM449 264v17c0 10 -3 19 -9 26s-15 11 -25 11h-21v-91h21c10 0 19 3 25 10s9 17 9 27zM519 302c11 0 18 -2 24 -9c6 -8 9 -17 9 -29v-8h-54c0 -9 2 -16 6 -21
c3 -6 9 -8 17 -8c5 0 10 0 14 2c4 1 7 3 10 6l6 -10c-3 -4 -7 -6 -12 -8s-11 -3 -18 -3c-13 0 -22 4 -29 12c-7 7 -10 17 -10 30v4c0 11 4 22 11 30s15 12 26 12zM537 267v2c0 6 -1 12 -4 15c-3 4 -7 6 -14 6c-5 0 -10 -2 -13 -6c-4 -5 -6 -10 -7 -16v-1h38zM588 215h-16
v123h16v-123zM644 302c11 0 19 -2 25 -9c6 -8 8 -17 8 -29v-8h-54c0 -9 2 -16 6 -21c4 -6 10 -8 17 -8c6 0 10 0 14 2c4 1 8 3 10 6l6 -10c-2 -4 -6 -6 -11 -8c-6 -2 -12 -3 -19 -3c-12 0 -21 4 -28 12c-7 7 -11 17 -11 30v4c0 11 4 22 11 30s16 12 26 12zM663 267v2
c0 6 -2 12 -4 15c-3 4 -8 6 -14 6s-10 -2 -14 -6c-4 -5 -6 -10 -6 -16v-1h38zM729 226c1 1 2 1 2 1l2 -11c-1 0 -3 -1 -5 -2c-2 0 -4 -1 -6 -1c-7 0 -12 2 -15 6c-4 4 -6 10 -6 18v52h-13v11h13v20h16v-20h16v-11h-16v-52c0 -4 1 -7 2 -9c2 -1 4 -2 7 -2h3zM783 302
c11 0 19 -2 25 -9c6 -8 8 -17 8 -29v-8h-54c0 -9 2 -16 6 -21c4 -6 10 -8 17 -8c6 0 10 0 14 2c4 1 8 3 10 6l6 -10c-2 -4 -6 -6 -12 -8c-5 -2 -11 -3 -18 -3c-12 0 -21 4 -28 12c-7 7 -11 17 -11 30v4c0 11 4 22 11 30s16 12 26 12zM802 267v2c0 6 -2 12 -4 15
c-3 4 -8 6 -14 6s-10 -2 -14 -6c-4 -5 -6 -10 -6 -16v-1h38zM1096 592v-484c0 -67 -41 -107 -108 -107h-781c-65 0 -106 41 -107 106v244v240c0 69 41 109 110 109h777c68 0 109 -40 109 -108zM206 578c0 60 35 95 95 94c87 1 493 0 581 1c14 0 28 3 42 5
c-132 5 -581 5 -713 5c-61 0 -94 -33 -94 -93v-442v-19c2 0 4 0 5 -1c24 25 49 50 71 77c7 7 12 20 12 30c1 114 1 229 1 343zM966 219v179c0 61 1 123 0 184c0 42 -26 71 -68 72c-96 1 -510 1 -606 0c-43 -1 -69 -30 -69 -73v-364c0 -44 28 -72 73 -72h596
c46 0 74 27 74 74z" />
    <glyph glyph-name="l" unicode="l" horiz-adv-x="779" 
d="M331 268v-41h55v-12h-70v115h70v-12h-55v-37h47v-13h-47zM443 302c9 0 16 -3 21 -9c5 -5 8 -13 8 -24v-54h-16v53c0 8 -1 13 -4 16c-3 4 -8 5 -14 5c-4 0 -9 0 -12 -3c-3 -2 -6 -4 -8 -8v-63h-16v85h14l1 -13c3 5 7 8 11 11c4 2 9 4 15 4zM548 291h-1v47h16v-123h-12
l-2 11c-3 -4 -6 -7 -10 -10c-5 -2 -10 -3 -15 -3c-10 0 -18 4 -24 12c-6 7 -9 17 -9 29v2c0 14 3 25 9 33s14 13 25 13c5 0 9 -2 13 -3c4 -2 7 -4 10 -8zM548 238v39c-2 4 -5 7 -8 9s-7 3 -11 3c-8 0 -13 -3 -17 -9s-5 -15 -5 -24v-2c0 -8 2 -15 5 -20s9 -8 16 -8
c5 0 9 2 12 3c3 2 6 5 8 9zM778 592c1 -161 1 -323 0 -484c0 -67 -41 -107 -108 -107h-463c-65 0 -106 41 -107 106v244v240c0 69 41 109 110 109h459c68 0 109 -40 109 -108zM206 578c0 60 35 95 95 94c87 1 175 0 263 1c14 0 28 3 42 5c-132 5 -263 5 -395 5
c-61 0 -94 -33 -94 -93v-442v-19c2 0 4 0 5 -1c24 25 49 50 71 77c7 7 12 20 12 30c1 114 1 229 1 343zM648 219c0 60 0 120 1 179v184c0 42 -26 71 -68 72c-96 1 -192 1 -289 0c-42 -1 -68 -30 -68 -73v-364c0 -44 28 -72 72 -72h279c46 0 73 27 73 74z" />
    <glyph glyph-name="m" unicode="m" horiz-adv-x="779" 
d="M336 268v-41h56v-12h-72v115h70v-12h-54v-37h47v-13h-47zM465 255c5 -4 8 -9 8 -18c0 -8 -3 -14 -9 -18c-6 -5 -14 -7 -24 -7c-11 0 -19 2 -26 8c-6 5 -10 12 -9 19v1h15c0 -6 2 -10 6 -12c4 -3 8 -4 13 -4c6 0 10 2 13 4c4 2 5 5 5 9s-1 6 -4 9c-2 2 -7 4 -14 5
c-10 3 -18 6 -23 10c-6 3 -8 9 -8 15c0 7 2 13 8 18s14 8 23 8c10 0 18 -3 24 -9c6 -5 9 -11 9 -18h-15c0 3 -2 7 -5 10s-8 4 -13 4s-9 -1 -12 -4c-3 -2 -4 -5 -4 -8c0 -4 1 -7 4 -8c2 -2 7 -4 14 -5c10 -2 18 -5 24 -9zM509 281c-3 -6 -5 -13 -4 -24v-3c0 -8 2 -15 6 -21
c3 -6 9 -9 16 -9c5 0 9 2 13 5c3 3 5 7 5 12h14v-1c0 -7 -3 -13 -10 -19c-6 -6 -14 -9 -22 -9c-13 0 -22 4 -28 13c-7 8 -10 18 -10 30v3c0 12 3 23 10 31c6 8 15 12 27 12c9 0 17 -3 23 -9s9 -13 9 -21v-1h-14c0 6 -2 10 -5 14s-7 5 -13 5c-7 0 -13 -3 -17 -8zM778 592
c1 -161 1 -323 0 -484c0 -67 -41 -107 -108 -107h-463c-65 0 -106 41 -107 106v244v240c0 69 41 109 110 109h459c68 0 109 -40 109 -108zM206 578c0 60 35 95 95 94c87 1 175 0 263 1c14 0 28 3 42 5c-132 5 -263 5 -395 5c-61 0 -94 -33 -94 -93v-442v-19c2 0 4 0 5 -1
c24 25 49 50 71 77c7 7 12 20 12 30c1 114 1 229 1 343zM648 219c0 60 0 120 1 179v184c0 42 -26 71 -68 72c-96 1 -192 1 -289 0c-42 -1 -68 -30 -68 -73v-364c0 -44 28 -72 72 -72h279c46 0 73 27 73 74z" />
    <glyph glyph-name="n" unicode="n" horiz-adv-x="1491" 
d="M455 309c-6 -7 -8 -16 -8 -27v-21c0 -11 2 -19 7 -26c6 -7 13 -10 21 -10c9 0 15 2 20 7c5 4 7 11 7 19h15v-1c0 -10 -3 -20 -11 -27s-18 -10 -31 -10s-23 5 -31 14c-9 9 -13 21 -13 35v20c0 14 4 26 13 35c8 9 18 14 31 14c14 0 24 -3 32 -10c7 -7 11 -16 11 -28h-15
c0 7 -2 14 -7 19s-12 7 -20 7c-9 0 -16 -3 -21 -10zM570 302c12 0 22 -4 28 -12c7 -8 10 -19 10 -32v-2c0 -13 -3 -23 -10 -31s-16 -12 -28 -12s-21 4 -28 12s-10 18 -10 31v2c0 13 3 23 10 31s16 13 28 13zM593 257v1c0 9 -2 17 -6 23c-4 5 -9 9 -17 9c-7 0 -13 -4 -17 -9
c-3 -6 -6 -13 -6 -23v-1c0 -9 3 -17 6 -23c5 -6 10 -8 18 -8c7 0 13 2 16 8c4 6 6 14 6 23zM718 302c9 0 16 -3 21 -9c4 -6 7 -15 7 -27v-51h-15v51c0 8 -2 14 -5 18c-2 4 -7 5 -13 5c-5 0 -9 -1 -13 -5c-3 -4 -5 -9 -6 -14v-56h-15v51c0 9 -1 14 -4 18c-4 4 -8 6 -13 6
s-9 -1 -12 -3s-6 -4 -7 -8v-63h-16v85h14l1 -11c3 4 7 7 11 9s10 4 15 4s10 -2 15 -4c3 -3 7 -7 9 -12c2 5 6 9 11 11c4 3 9 5 15 5zM859 302c9 0 16 -3 21 -9s7 -15 7 -27v-51h-15v51c0 8 -2 14 -5 18c-2 4 -7 5 -13 5c-5 0 -9 -1 -13 -5c-3 -4 -5 -9 -5 -14v-56h-16v51
c0 9 -1 14 -4 18c-4 4 -8 6 -13 6s-9 -1 -12 -3s-6 -4 -7 -8v-63h-16v85h14l1 -11c3 4 7 7 11 9s10 4 15 4c6 0 10 -2 15 -4c3 -3 7 -7 9 -12c3 5 6 9 11 11c4 3 9 5 15 5zM976 232c0 -3 2 -6 2 -10c0 -3 0 -6 1 -8h-16c0 2 0 5 -1 7v6c-3 -5 -7 -8 -12 -11
c-5 -2 -9 -4 -15 -4c-9 0 -15 3 -20 7c-5 5 -7 11 -7 19c0 9 3 15 9 19c7 5 16 7 27 7h17v9c0 5 -1 9 -4 12c-4 3 -8 4 -13 4c-6 0 -9 -1 -13 -4c-3 -2 -4 -5 -4 -9h-15v1c-1 6 3 12 9 17s14 8 23 8c10 0 18 -3 23 -8c6 -5 9 -12 9 -21v-41zM961 241v14h-17
c-7 0 -12 -1 -15 -5c-4 -3 -6 -7 -6 -11s2 -7 4 -9s5 -3 10 -3c6 0 11 1 15 4c5 3 7 6 9 10zM1039 302c9 0 17 -3 22 -9c4 -5 7 -13 7 -24v-54h-15v53c0 8 -2 13 -5 16c-2 4 -7 5 -13 5c-5 0 -9 0 -13 -3c-3 -2 -6 -4 -8 -8v-63h-15v85h14l1 -13c2 5 6 8 11 11c4 2 9 4 14 4
zM1144 291h-1v47h16v-123h-12l-2 11c-3 -4 -6 -7 -11 -10c-4 -2 -9 -3 -14 -3c-10 0 -18 4 -24 12c-6 7 -9 17 -9 29v2c0 14 3 25 9 33s14 13 24 13c6 0 10 -2 14 -3c4 -2 7 -4 10 -8zM1144 238v39c-2 4 -5 7 -8 9s-7 3 -11 3c-8 0 -13 -3 -17 -9s-5 -15 -5 -24v-2
c0 -8 2 -15 5 -20s9 -8 16 -8c5 0 9 2 12 3c3 2 5 5 8 9zM1490 592c0 -161 0 -323 1 -484c0 -67 -41 -107 -108 -107h-1175c-65 0 -106 41 -107 106v244v240c0 69 40 109 110 109h1171c67 0 108 -40 108 -108zM206 578c0 60 35 95 94 94c88 1 888 0 975 1c14 0 29 3 43 5
c-132 5 -975 5 -1107 5c-60 0 -93 -33 -93 -93v-442v-19c1 0 3 0 5 -1c23 25 48 50 71 77c7 7 12 20 12 30v343zM1360 219c1 60 0 120 1 179v184c0 42 -27 71 -68 72c-96 1 -904 1 -1000 0c-43 -1 -69 -30 -69 -73v-364c0 -44 28 -72 73 -72h990c46 0 73 27 73 74z" />
    <glyph glyph-name="n" unicode="&#xf1;" horiz-adv-x="1491" 
d="M455 309c-6 -7 -8 -16 -8 -27v-21c0 -11 2 -19 7 -26c6 -7 13 -10 21 -10c9 0 15 2 20 7c5 4 7 11 7 19h15v-1c0 -10 -3 -20 -11 -27s-18 -10 -31 -10s-23 5 -31 14c-9 9 -13 21 -13 35v20c0 14 4 26 13 35c8 9 18 14 31 14c14 0 24 -3 32 -10c7 -7 11 -16 11 -28h-15
c0 7 -2 14 -7 19s-12 7 -20 7c-9 0 -16 -3 -21 -10zM570 302c12 0 22 -4 28 -12c7 -8 10 -19 10 -32v-2c0 -13 -3 -23 -10 -31s-16 -12 -28 -12s-21 4 -28 12s-10 18 -10 31v2c0 13 3 23 10 31s16 13 28 13zM593 257v1c0 9 -2 17 -6 23c-4 5 -9 9 -17 9c-7 0 -13 -4 -17 -9
c-3 -6 -6 -13 -6 -23v-1c0 -9 3 -17 6 -23c5 -6 10 -8 18 -8c7 0 13 2 16 8c4 6 6 14 6 23zM718 302c9 0 16 -3 21 -9c4 -6 7 -15 7 -27v-51h-15v51c0 8 -2 14 -5 18c-2 4 -7 5 -13 5c-5 0 -9 -1 -13 -5c-3 -4 -5 -9 -6 -14v-56h-15v51c0 9 -1 14 -4 18c-4 4 -8 6 -13 6
s-9 -1 -12 -3s-6 -4 -7 -8v-63h-16v85h14l1 -11c3 4 7 7 11 9s10 4 15 4s10 -2 15 -4c3 -3 7 -7 9 -12c2 5 6 9 11 11c4 3 9 5 15 5zM859 302c9 0 16 -3 21 -9s7 -15 7 -27v-51h-15v51c0 8 -2 14 -5 18c-2 4 -7 5 -13 5c-5 0 -9 -1 -13 -5c-3 -4 -5 -9 -5 -14v-56h-16v51
c0 9 -1 14 -4 18c-4 4 -8 6 -13 6s-9 -1 -12 -3s-6 -4 -7 -8v-63h-16v85h14l1 -11c3 4 7 7 11 9s10 4 15 4c6 0 10 -2 15 -4c3 -3 7 -7 9 -12c3 5 6 9 11 11c4 3 9 5 15 5zM976 232c0 -3 2 -6 2 -10c0 -3 0 -6 1 -8h-16c0 2 0 5 -1 7v6c-3 -5 -7 -8 -12 -11
c-5 -2 -9 -4 -15 -4c-9 0 -15 3 -20 7c-5 5 -7 11 -7 19c0 9 3 15 9 19c7 5 16 7 27 7h17v9c0 5 -1 9 -4 12c-4 3 -8 4 -13 4c-6 0 -9 -1 -13 -4c-3 -2 -4 -5 -4 -9h-15v1c-1 6 3 12 9 17s14 8 23 8c10 0 18 -3 23 -8c6 -5 9 -12 9 -21v-41zM961 241v14h-17
c-7 0 -12 -1 -15 -5c-4 -3 -6 -7 -6 -11s2 -7 4 -9s5 -3 10 -3c6 0 11 1 15 4c5 3 7 6 9 10zM1039 302c9 0 17 -3 22 -9c4 -5 7 -13 7 -24v-54h-15v53c0 8 -2 13 -5 16c-2 4 -7 5 -13 5c-5 0 -9 0 -13 -3c-3 -2 -6 -4 -8 -8v-63h-15v85h14l1 -13c2 5 6 8 11 11c4 2 9 4 14 4
zM1144 291h-1v47h16v-123h-12l-2 11c-3 -4 -6 -7 -11 -10c-4 -2 -9 -3 -14 -3c-10 0 -18 4 -24 12c-6 7 -9 17 -9 29v2c0 14 3 25 9 33s14 13 24 13c6 0 10 -2 14 -3c4 -2 7 -4 10 -8zM1144 238v39c-2 4 -5 7 -8 9s-7 3 -11 3c-8 0 -13 -3 -17 -9s-5 -15 -5 -24v-2
c0 -8 2 -15 5 -20s9 -8 16 -8c5 0 9 2 12 3c3 2 5 5 8 9zM1490 592c0 -161 0 -323 1 -484c0 -67 -41 -107 -108 -107h-1175c-65 0 -106 41 -107 106v244v240c0 69 40 109 110 109h1171c67 0 108 -40 108 -108zM206 578c0 60 35 95 94 94c88 1 888 0 975 1c14 0 29 3 43 5
c-132 5 -975 5 -1107 5c-60 0 -93 -33 -93 -93v-442v-19c1 0 3 0 5 -1c23 25 48 50 71 77c7 7 12 20 12 30v343zM1360 219c1 60 0 120 1 179v184c0 42 -27 71 -68 72c-96 1 -904 1 -1000 0c-43 -1 -69 -30 -69 -73v-364c0 -44 28 -72 73 -72h990c46 0 73 27 73 74z" />
    <glyph glyph-name="o" unicode="o" horiz-adv-x="1096" 
d="M413 331c14 0 25 -4 34 -14c9 -9 13 -21 13 -35v-20c0 -14 -4 -26 -13 -35s-20 -14 -34 -14c-13 0 -24 5 -33 14c-8 9 -12 21 -12 35v20c0 14 4 26 12 35c9 9 20 14 33 14zM444 262v21c0 10 -3 19 -9 26c-5 7 -13 10 -22 10c-10 0 -17 -3 -22 -10s-8 -16 -8 -26v-21
c0 -10 3 -19 8 -26s12 -10 22 -10c9 0 17 4 23 10c6 7 8 15 8 26zM520 302c10 0 18 -4 24 -13c6 -8 9 -19 9 -33v-2c0 -12 -3 -22 -9 -29c-5 -8 -14 -12 -24 -12c-5 0 -10 1 -14 3s-7 4 -10 8v-41h-16v117h12l3 -11c3 4 6 7 10 9s9 4 15 4zM537 254v2c0 9 -2 17 -6 23
s-9 10 -17 10c-4 0 -8 -2 -11 -4c-3 -1 -5 -4 -8 -8v-41c2 -3 5 -7 8 -8c3 -2 8 -3 12 -3c7 0 13 3 17 8c3 6 5 13 5 21zM606 226c1 1 1 1 2 1l2 -11c-1 0 -3 -1 -5 -2c-2 0 -5 -1 -7 -1c-6 0 -11 2 -15 6s-5 10 -5 18v52h-14v11h14v20h15v-20h17v-11h-17v-52
c0 -4 2 -7 3 -9c2 -1 4 -2 7 -2h3zM643 323h-16v15h16v-15zM643 215h-16v85h16v-85zM702 302c12 0 21 -4 28 -12s10 -19 10 -32v-2c0 -13 -3 -23 -10 -31s-16 -12 -28 -12s-21 4 -28 12s-11 18 -11 31v2c0 13 4 23 11 31s16 13 28 13zM724 257v1c0 9 -2 17 -6 23
c-4 5 -9 9 -17 9c-7 0 -13 -4 -17 -9c-3 -6 -5 -13 -5 -23v-1c0 -9 2 -17 5 -23c5 -6 10 -8 18 -8c7 0 13 2 16 8c4 6 6 14 6 23zM799 302c9 0 17 -3 22 -9c5 -5 7 -13 7 -24v-54h-15v53c0 8 -1 13 -5 16c-2 4 -7 5 -13 5c-5 0 -9 0 -13 -3c-3 -2 -5 -4 -8 -8v-63h-15v85h14
l1 -13c3 5 6 8 11 11c4 2 9 4 14 4zM1096 592v-484c0 -67 -41 -107 -108 -107h-781c-65 0 -106 41 -107 106v244v240c0 69 41 109 110 109h777c68 0 109 -40 109 -108zM206 578c0 60 35 95 95 94c87 1 493 0 581 1c14 0 28 3 42 5c-132 5 -581 5 -713 5
c-61 0 -94 -33 -94 -93v-442v-19c2 0 4 0 5 -1c24 25 49 50 71 77c7 7 12 20 12 30c1 114 1 229 1 343zM966 219v179c0 61 1 123 0 184c0 42 -26 71 -68 72c-96 1 -510 1 -606 0c-43 -1 -69 -30 -69 -73v-364c0 -44 28 -72 73 -72h596c46 0 74 27 74 74z" />
    <glyph glyph-name="o" unicode="&#xf8;" horiz-adv-x="1096" 
d="M413 331c14 0 25 -4 34 -14c9 -9 13 -21 13 -35v-20c0 -14 -4 -26 -13 -35s-20 -14 -34 -14c-13 0 -24 5 -33 14c-8 9 -12 21 -12 35v20c0 14 4 26 12 35c9 9 20 14 33 14zM444 262v21c0 10 -3 19 -9 26c-5 7 -13 10 -22 10c-10 0 -17 -3 -22 -10s-8 -16 -8 -26v-21
c0 -10 3 -19 8 -26s12 -10 22 -10c9 0 17 4 23 10c6 7 8 15 8 26zM520 302c10 0 18 -4 24 -13c6 -8 9 -19 9 -33v-2c0 -12 -3 -22 -9 -29c-5 -8 -14 -12 -24 -12c-5 0 -10 1 -14 3s-7 4 -10 8v-41h-16v117h12l3 -11c3 4 6 7 10 9s9 4 15 4zM537 254v2c0 9 -2 17 -6 23
s-9 10 -17 10c-4 0 -8 -2 -11 -4c-3 -1 -5 -4 -8 -8v-41c2 -3 5 -7 8 -8c3 -2 8 -3 12 -3c7 0 13 3 17 8c3 6 5 13 5 21zM606 226c1 1 1 1 2 1l2 -11c-1 0 -3 -1 -5 -2c-2 0 -5 -1 -7 -1c-6 0 -11 2 -15 6s-5 10 -5 18v52h-14v11h14v20h15v-20h17v-11h-17v-52
c0 -4 2 -7 3 -9c2 -1 4 -2 7 -2h3zM643 323h-16v15h16v-15zM643 215h-16v85h16v-85zM702 302c12 0 21 -4 28 -12s10 -19 10 -32v-2c0 -13 -3 -23 -10 -31s-16 -12 -28 -12s-21 4 -28 12s-11 18 -11 31v2c0 13 4 23 11 31s16 13 28 13zM724 257v1c0 9 -2 17 -6 23
c-4 5 -9 9 -17 9c-7 0 -13 -4 -17 -9c-3 -6 -5 -13 -5 -23v-1c0 -9 2 -17 5 -23c5 -6 10 -8 18 -8c7 0 13 2 16 8c4 6 6 14 6 23zM799 302c9 0 17 -3 22 -9c5 -5 7 -13 7 -24v-54h-15v53c0 8 -1 13 -5 16c-2 4 -7 5 -13 5c-5 0 -9 0 -13 -3c-3 -2 -5 -4 -8 -8v-63h-15v85h14
l1 -13c3 5 6 8 11 11c4 2 9 4 14 4zM1096 592v-484c0 -67 -41 -107 -108 -107h-781c-65 0 -106 41 -107 106v244v240c0 69 41 109 110 109h777c68 0 109 -40 109 -108zM206 578c0 60 35 95 95 94c87 1 493 0 581 1c14 0 28 3 42 5c-132 5 -581 5 -713 5
c-61 0 -94 -33 -94 -93v-442v-19c2 0 4 0 5 -1c24 25 49 50 71 77c7 7 12 20 12 30c1 114 1 229 1 343zM966 219v179c0 61 1 123 0 184c0 42 -26 71 -68 72c-96 1 -510 1 -606 0c-43 -1 -69 -30 -69 -73v-364c0 -44 28 -72 73 -72h596c46 0 74 27 74 74z" />
    <glyph glyph-name="o" unicode="&#xf6;" horiz-adv-x="1096" 
d="M413 331c14 0 25 -4 34 -14c9 -9 13 -21 13 -35v-20c0 -14 -4 -26 -13 -35s-20 -14 -34 -14c-13 0 -24 5 -33 14c-8 9 -12 21 -12 35v20c0 14 4 26 12 35c9 9 20 14 33 14zM444 262v21c0 10 -3 19 -9 26c-5 7 -13 10 -22 10c-10 0 -17 -3 -22 -10s-8 -16 -8 -26v-21
c0 -10 3 -19 8 -26s12 -10 22 -10c9 0 17 4 23 10c6 7 8 15 8 26zM520 302c10 0 18 -4 24 -13c6 -8 9 -19 9 -33v-2c0 -12 -3 -22 -9 -29c-5 -8 -14 -12 -24 -12c-5 0 -10 1 -14 3s-7 4 -10 8v-41h-16v117h12l3 -11c3 4 6 7 10 9s9 4 15 4zM537 254v2c0 9 -2 17 -6 23
s-9 10 -17 10c-4 0 -8 -2 -11 -4c-3 -1 -5 -4 -8 -8v-41c2 -3 5 -7 8 -8c3 -2 8 -3 12 -3c7 0 13 3 17 8c3 6 5 13 5 21zM606 226c1 1 1 1 2 1l2 -11c-1 0 -3 -1 -5 -2c-2 0 -5 -1 -7 -1c-6 0 -11 2 -15 6s-5 10 -5 18v52h-14v11h14v20h15v-20h17v-11h-17v-52
c0 -4 2 -7 3 -9c2 -1 4 -2 7 -2h3zM643 323h-16v15h16v-15zM643 215h-16v85h16v-85zM702 302c12 0 21 -4 28 -12s10 -19 10 -32v-2c0 -13 -3 -23 -10 -31s-16 -12 -28 -12s-21 4 -28 12s-11 18 -11 31v2c0 13 4 23 11 31s16 13 28 13zM724 257v1c0 9 -2 17 -6 23
c-4 5 -9 9 -17 9c-7 0 -13 -4 -17 -9c-3 -6 -5 -13 -5 -23v-1c0 -9 2 -17 5 -23c5 -6 10 -8 18 -8c7 0 13 2 16 8c4 6 6 14 6 23zM799 302c9 0 17 -3 22 -9c5 -5 7 -13 7 -24v-54h-15v53c0 8 -1 13 -5 16c-2 4 -7 5 -13 5c-5 0 -9 0 -13 -3c-3 -2 -5 -4 -8 -8v-63h-15v85h14
l1 -13c3 5 6 8 11 11c4 2 9 4 14 4zM1096 592v-484c0 -67 -41 -107 -108 -107h-781c-65 0 -106 41 -107 106v244v240c0 69 41 109 110 109h777c68 0 109 -40 109 -108zM206 578c0 60 35 95 95 94c87 1 493 0 581 1c14 0 28 3 42 5c-132 5 -581 5 -713 5
c-61 0 -94 -33 -94 -93v-442v-19c2 0 4 0 5 -1c24 25 49 50 71 77c7 7 12 20 12 30c1 114 1 229 1 343zM966 219v179c0 61 1 123 0 184c0 42 -26 71 -68 72c-96 1 -510 1 -606 0c-43 -1 -69 -30 -69 -73v-364c0 -44 28 -72 73 -72h596c46 0 74 27 74 74z" />
    <glyph glyph-name="o" unicode="&#xf5;" horiz-adv-x="1096" 
d="M413 331c14 0 25 -4 34 -14c9 -9 13 -21 13 -35v-20c0 -14 -4 -26 -13 -35s-20 -14 -34 -14c-13 0 -24 5 -33 14c-8 9 -12 21 -12 35v20c0 14 4 26 12 35c9 9 20 14 33 14zM444 262v21c0 10 -3 19 -9 26c-5 7 -13 10 -22 10c-10 0 -17 -3 -22 -10s-8 -16 -8 -26v-21
c0 -10 3 -19 8 -26s12 -10 22 -10c9 0 17 4 23 10c6 7 8 15 8 26zM520 302c10 0 18 -4 24 -13c6 -8 9 -19 9 -33v-2c0 -12 -3 -22 -9 -29c-5 -8 -14 -12 -24 -12c-5 0 -10 1 -14 3s-7 4 -10 8v-41h-16v117h12l3 -11c3 4 6 7 10 9s9 4 15 4zM537 254v2c0 9 -2 17 -6 23
s-9 10 -17 10c-4 0 -8 -2 -11 -4c-3 -1 -5 -4 -8 -8v-41c2 -3 5 -7 8 -8c3 -2 8 -3 12 -3c7 0 13 3 17 8c3 6 5 13 5 21zM606 226c1 1 1 1 2 1l2 -11c-1 0 -3 -1 -5 -2c-2 0 -5 -1 -7 -1c-6 0 -11 2 -15 6s-5 10 -5 18v52h-14v11h14v20h15v-20h17v-11h-17v-52
c0 -4 2 -7 3 -9c2 -1 4 -2 7 -2h3zM643 323h-16v15h16v-15zM643 215h-16v85h16v-85zM702 302c12 0 21 -4 28 -12s10 -19 10 -32v-2c0 -13 -3 -23 -10 -31s-16 -12 -28 -12s-21 4 -28 12s-11 18 -11 31v2c0 13 4 23 11 31s16 13 28 13zM724 257v1c0 9 -2 17 -6 23
c-4 5 -9 9 -17 9c-7 0 -13 -4 -17 -9c-3 -6 -5 -13 -5 -23v-1c0 -9 2 -17 5 -23c5 -6 10 -8 18 -8c7 0 13 2 16 8c4 6 6 14 6 23zM799 302c9 0 17 -3 22 -9c5 -5 7 -13 7 -24v-54h-15v53c0 8 -1 13 -5 16c-2 4 -7 5 -13 5c-5 0 -9 0 -13 -3c-3 -2 -5 -4 -8 -8v-63h-15v85h14
l1 -13c3 5 6 8 11 11c4 2 9 4 14 4zM1096 592v-484c0 -67 -41 -107 -108 -107h-781c-65 0 -106 41 -107 106v244v240c0 69 41 109 110 109h777c68 0 109 -40 109 -108zM206 578c0 60 35 95 95 94c87 1 493 0 581 1c14 0 28 3 42 5c-132 5 -581 5 -713 5
c-61 0 -94 -33 -94 -93v-442v-19c2 0 4 0 5 -1c24 25 49 50 71 77c7 7 12 20 12 30c1 114 1 229 1 343zM966 219v179c0 61 1 123 0 184c0 42 -26 71 -68 72c-96 1 -510 1 -606 0c-43 -1 -69 -30 -69 -73v-364c0 -44 28 -72 73 -72h596c46 0 74 27 74 74z" />
    <glyph glyph-name="o" unicode="&#xf4;" horiz-adv-x="1096" 
d="M413 331c14 0 25 -4 34 -14c9 -9 13 -21 13 -35v-20c0 -14 -4 -26 -13 -35s-20 -14 -34 -14c-13 0 -24 5 -33 14c-8 9 -12 21 -12 35v20c0 14 4 26 12 35c9 9 20 14 33 14zM444 262v21c0 10 -3 19 -9 26c-5 7 -13 10 -22 10c-10 0 -17 -3 -22 -10s-8 -16 -8 -26v-21
c0 -10 3 -19 8 -26s12 -10 22 -10c9 0 17 4 23 10c6 7 8 15 8 26zM520 302c10 0 18 -4 24 -13c6 -8 9 -19 9 -33v-2c0 -12 -3 -22 -9 -29c-5 -8 -14 -12 -24 -12c-5 0 -10 1 -14 3s-7 4 -10 8v-41h-16v117h12l3 -11c3 4 6 7 10 9s9 4 15 4zM537 254v2c0 9 -2 17 -6 23
s-9 10 -17 10c-4 0 -8 -2 -11 -4c-3 -1 -5 -4 -8 -8v-41c2 -3 5 -7 8 -8c3 -2 8 -3 12 -3c7 0 13 3 17 8c3 6 5 13 5 21zM606 226c1 1 1 1 2 1l2 -11c-1 0 -3 -1 -5 -2c-2 0 -5 -1 -7 -1c-6 0 -11 2 -15 6s-5 10 -5 18v52h-14v11h14v20h15v-20h17v-11h-17v-52
c0 -4 2 -7 3 -9c2 -1 4 -2 7 -2h3zM643 323h-16v15h16v-15zM643 215h-16v85h16v-85zM702 302c12 0 21 -4 28 -12s10 -19 10 -32v-2c0 -13 -3 -23 -10 -31s-16 -12 -28 -12s-21 4 -28 12s-11 18 -11 31v2c0 13 4 23 11 31s16 13 28 13zM724 257v1c0 9 -2 17 -6 23
c-4 5 -9 9 -17 9c-7 0 -13 -4 -17 -9c-3 -6 -5 -13 -5 -23v-1c0 -9 2 -17 5 -23c5 -6 10 -8 18 -8c7 0 13 2 16 8c4 6 6 14 6 23zM799 302c9 0 17 -3 22 -9c5 -5 7 -13 7 -24v-54h-15v53c0 8 -1 13 -5 16c-2 4 -7 5 -13 5c-5 0 -9 0 -13 -3c-3 -2 -5 -4 -8 -8v-63h-15v85h14
l1 -13c3 5 6 8 11 11c4 2 9 4 14 4zM1096 592v-484c0 -67 -41 -107 -108 -107h-781c-65 0 -106 41 -107 106v244v240c0 69 41 109 110 109h777c68 0 109 -40 109 -108zM206 578c0 60 35 95 95 94c87 1 493 0 581 1c14 0 28 3 42 5c-132 5 -581 5 -713 5
c-61 0 -94 -33 -94 -93v-442v-19c2 0 4 0 5 -1c24 25 49 50 71 77c7 7 12 20 12 30c1 114 1 229 1 343zM966 219v179c0 61 1 123 0 184c0 42 -26 71 -68 72c-96 1 -510 1 -606 0c-43 -1 -69 -30 -69 -73v-364c0 -44 28 -72 73 -72h596c46 0 74 27 74 74z" />
    <glyph glyph-name="o" unicode="&#xf3;" horiz-adv-x="1096" 
d="M413 331c14 0 25 -4 34 -14c9 -9 13 -21 13 -35v-20c0 -14 -4 -26 -13 -35s-20 -14 -34 -14c-13 0 -24 5 -33 14c-8 9 -12 21 -12 35v20c0 14 4 26 12 35c9 9 20 14 33 14zM444 262v21c0 10 -3 19 -9 26c-5 7 -13 10 -22 10c-10 0 -17 -3 -22 -10s-8 -16 -8 -26v-21
c0 -10 3 -19 8 -26s12 -10 22 -10c9 0 17 4 23 10c6 7 8 15 8 26zM520 302c10 0 18 -4 24 -13c6 -8 9 -19 9 -33v-2c0 -12 -3 -22 -9 -29c-5 -8 -14 -12 -24 -12c-5 0 -10 1 -14 3s-7 4 -10 8v-41h-16v117h12l3 -11c3 4 6 7 10 9s9 4 15 4zM537 254v2c0 9 -2 17 -6 23
s-9 10 -17 10c-4 0 -8 -2 -11 -4c-3 -1 -5 -4 -8 -8v-41c2 -3 5 -7 8 -8c3 -2 8 -3 12 -3c7 0 13 3 17 8c3 6 5 13 5 21zM606 226c1 1 1 1 2 1l2 -11c-1 0 -3 -1 -5 -2c-2 0 -5 -1 -7 -1c-6 0 -11 2 -15 6s-5 10 -5 18v52h-14v11h14v20h15v-20h17v-11h-17v-52
c0 -4 2 -7 3 -9c2 -1 4 -2 7 -2h3zM643 323h-16v15h16v-15zM643 215h-16v85h16v-85zM702 302c12 0 21 -4 28 -12s10 -19 10 -32v-2c0 -13 -3 -23 -10 -31s-16 -12 -28 -12s-21 4 -28 12s-11 18 -11 31v2c0 13 4 23 11 31s16 13 28 13zM724 257v1c0 9 -2 17 -6 23
c-4 5 -9 9 -17 9c-7 0 -13 -4 -17 -9c-3 -6 -5 -13 -5 -23v-1c0 -9 2 -17 5 -23c5 -6 10 -8 18 -8c7 0 13 2 16 8c4 6 6 14 6 23zM799 302c9 0 17 -3 22 -9c5 -5 7 -13 7 -24v-54h-15v53c0 8 -1 13 -5 16c-2 4 -7 5 -13 5c-5 0 -9 0 -13 -3c-3 -2 -5 -4 -8 -8v-63h-15v85h14
l1 -13c3 5 6 8 11 11c4 2 9 4 14 4zM1096 592v-484c0 -67 -41 -107 -108 -107h-781c-65 0 -106 41 -107 106v244v240c0 69 41 109 110 109h777c68 0 109 -40 109 -108zM206 578c0 60 35 95 95 94c87 1 493 0 581 1c14 0 28 3 42 5c-132 5 -581 5 -713 5
c-61 0 -94 -33 -94 -93v-442v-19c2 0 4 0 5 -1c24 25 49 50 71 77c7 7 12 20 12 30c1 114 1 229 1 343zM966 219v179c0 61 1 123 0 184c0 42 -26 71 -68 72c-96 1 -510 1 -606 0c-43 -1 -69 -30 -69 -73v-364c0 -44 28 -72 73 -72h596c46 0 74 27 74 74z" />
    <glyph glyph-name="o" unicode="&#xf2;" horiz-adv-x="1096" 
d="M413 331c14 0 25 -4 34 -14c9 -9 13 -21 13 -35v-20c0 -14 -4 -26 -13 -35s-20 -14 -34 -14c-13 0 -24 5 -33 14c-8 9 -12 21 -12 35v20c0 14 4 26 12 35c9 9 20 14 33 14zM444 262v21c0 10 -3 19 -9 26c-5 7 -13 10 -22 10c-10 0 -17 -3 -22 -10s-8 -16 -8 -26v-21
c0 -10 3 -19 8 -26s12 -10 22 -10c9 0 17 4 23 10c6 7 8 15 8 26zM520 302c10 0 18 -4 24 -13c6 -8 9 -19 9 -33v-2c0 -12 -3 -22 -9 -29c-5 -8 -14 -12 -24 -12c-5 0 -10 1 -14 3s-7 4 -10 8v-41h-16v117h12l3 -11c3 4 6 7 10 9s9 4 15 4zM537 254v2c0 9 -2 17 -6 23
s-9 10 -17 10c-4 0 -8 -2 -11 -4c-3 -1 -5 -4 -8 -8v-41c2 -3 5 -7 8 -8c3 -2 8 -3 12 -3c7 0 13 3 17 8c3 6 5 13 5 21zM606 226c1 1 1 1 2 1l2 -11c-1 0 -3 -1 -5 -2c-2 0 -5 -1 -7 -1c-6 0 -11 2 -15 6s-5 10 -5 18v52h-14v11h14v20h15v-20h17v-11h-17v-52
c0 -4 2 -7 3 -9c2 -1 4 -2 7 -2h3zM643 323h-16v15h16v-15zM643 215h-16v85h16v-85zM702 302c12 0 21 -4 28 -12s10 -19 10 -32v-2c0 -13 -3 -23 -10 -31s-16 -12 -28 -12s-21 4 -28 12s-11 18 -11 31v2c0 13 4 23 11 31s16 13 28 13zM724 257v1c0 9 -2 17 -6 23
c-4 5 -9 9 -17 9c-7 0 -13 -4 -17 -9c-3 -6 -5 -13 -5 -23v-1c0 -9 2 -17 5 -23c5 -6 10 -8 18 -8c7 0 13 2 16 8c4 6 6 14 6 23zM799 302c9 0 17 -3 22 -9c5 -5 7 -13 7 -24v-54h-15v53c0 8 -1 13 -5 16c-2 4 -7 5 -13 5c-5 0 -9 0 -13 -3c-3 -2 -5 -4 -8 -8v-63h-15v85h14
l1 -13c3 5 6 8 11 11c4 2 9 4 14 4zM1096 592v-484c0 -67 -41 -107 -108 -107h-781c-65 0 -106 41 -107 106v244v240c0 69 41 109 110 109h777c68 0 109 -40 109 -108zM206 578c0 60 35 95 95 94c87 1 493 0 581 1c14 0 28 3 42 5c-132 5 -581 5 -713 5
c-61 0 -94 -33 -94 -93v-442v-19c2 0 4 0 5 -1c24 25 49 50 71 77c7 7 12 20 12 30c1 114 1 229 1 343zM966 219v179c0 61 1 123 0 184c0 42 -26 71 -68 72c-96 1 -510 1 -606 0c-43 -1 -69 -30 -69 -73v-364c0 -44 28 -72 73 -72h596c46 0 74 27 74 74z" />
    <glyph glyph-name="p" unicode="p" 
d="M288 330v-103h56v-12h-71v115h15zM394 302c12 0 21 -4 28 -12s10 -19 10 -32v-2c0 -13 -3 -23 -10 -31s-16 -12 -28 -12s-21 4 -28 12s-11 18 -11 31v2c0 13 4 23 11 31s16 13 28 13zM416 257v1c0 9 -1 17 -6 23c-4 5 -9 9 -17 9c-7 0 -13 -4 -17 -9c-3 -6 -5 -13 -5 -23
v-1c0 -9 1 -17 5 -23c5 -6 10 -8 18 -8c7 0 13 2 16 8c4 6 6 14 6 23zM468 281c-3 -6 -5 -13 -4 -24v-3c0 -8 2 -15 5 -21s9 -9 17 -9c5 0 8 2 12 5s6 7 6 12h14v-1c0 -7 -4 -13 -10 -19c-7 -6 -14 -9 -23 -9c-12 0 -21 4 -28 13c-6 8 -9 18 -9 30v3c0 12 3 23 9 31
c7 8 16 12 28 12c9 0 17 -3 23 -9s8 -13 8 -21v-1h-14c0 6 -1 10 -4 14c-4 4 -8 5 -13 5c-8 0 -14 -3 -17 -8zM603 300l-31 -39l34 -46h-18l-29 39h-8v-39h-16v123h16v-71h8l25 33h19zM365 465v-114h-15l-56 87v-87h-16v114h16l55 -88h1v88h15zM459 436v-85h-14l-1 12
c-3 -4 -6 -8 -10 -10c-5 -3 -10 -4 -15 -4c-9 0 -17 3 -22 9c-4 6 -7 16 -7 28v50h16v-50c0 -10 1 -16 3 -19c3 -4 7 -6 13 -6c5 0 9 1 13 4c4 2 7 5 8 9v62h16zM549 405v-55h-16v51c0 8 -1 14 -4 18s-8 5 -13 5s-9 -1 -12 -2c-3 -2 -5 -5 -7 -8v-63h-16v85h14l2 -12
c2 5 6 8 10 10c5 2 10 3 15 3c6 0 11 -1 15 -4c4 -2 7 -6 9 -11c3 4 6 8 11 11s10 4 15 4c9 0 16 -3 21 -9s7 -15 7 -27v-51h-15v51c0 8 -2 14 -4 18c-3 4 -7 5 -13 5s-10 -1 -13 -5c-4 -4 -6 -9 -6 -14zM778 592v-484c0 -67 -41 -107 -108 -107h-463
c-65 0 -106 41 -107 106v244v240c0 69 41 109 110 109h459c68 0 109 -40 109 -108zM206 578c0 60 35 95 95 94c87 1 175 0 263 1c14 0 28 3 42 5c-132 5 -263 5 -395 5c-61 0 -94 -33 -94 -93v-442v-19c2 0 4 0 5 -1c24 25 49 50 71 77c7 7 12 20 12 30c1 114 1 229 1 343z
M648 219v179c0 61 1 123 0 184c0 42 -26 71 -67 72c-97 1 -193 1 -289 0c-43 -1 -69 -30 -69 -73v-364c0 -44 28 -72 73 -72h279c45 0 73 27 73 74z" />
    <glyph glyph-name="q" unicode="q" horiz-adv-x="779" 
d="M778 592c1 -161 1 -323 0 -484c0 -67 -41 -107 -108 -107h-463c-65 0 -106 41 -107 106v244v240c0 69 41 109 110 109h459c68 0 109 -40 109 -108zM206 578c0 60 35 95 95 94c87 1 175 0 263 1c14 0 28 3 42 5c-132 5 -263 5 -395 5c-61 0 -94 -33 -94 -93v-442v-19
c2 0 4 0 5 -1c24 25 49 50 71 77c7 7 12 20 12 30c1 114 1 229 1 343zM648 219c0 60 0 120 1 179v184c0 42 -26 71 -68 72c-96 1 -192 1 -289 0c-42 -1 -68 -30 -68 -73v-364c0 -44 28 -72 72 -72h279c46 0 73 27 73 74zM439 351l32 -56h-28v-87h-7v87h-29z" />
    <glyph glyph-name="r" unicode="r" 
d="M442 351v-87h29l-32 -56l-32 56h29v87h6zM778 592v-484c0 -67 -41 -107 -108 -107h-463c-65 0 -106 41 -107 106v244v240c0 69 41 109 110 109h459c68 0 109 -40 109 -108zM206 578c0 60 35 95 95 94c87 1 175 0 263 1c14 0 28 3 42 5c-132 5 -263 5 -395 5
c-61 0 -94 -33 -94 -93v-442v-19c2 0 4 0 5 -1c24 25 49 50 71 77c7 7 12 20 12 30c1 114 1 229 1 343zM648 219v179c0 61 1 123 0 184c0 42 -26 71 -67 72c-97 1 -193 1 -289 0c-43 -1 -69 -30 -69 -73v-364c0 -44 28 -72 73 -72h279c45 0 73 27 73 74z" />
    <glyph glyph-name="s" unicode="s" 
d="M424 311v-28h86v-7h-86v-29l-56 32zM778 592v-484c0 -67 -40 -107 -107 -107h-463c-66 0 -107 41 -107 106c-1 81 0 163 0 244v240c0 69 40 109 109 109h460c68 0 108 -40 108 -108zM206 578c0 60 35 95 95 94c88 1 175 0 263 1c14 0 29 3 43 5c-133 5 -264 5 -396 5
c-60 0 -93 -33 -93 -93v-442v-19c1 0 3 0 5 -1c23 25 48 50 71 77c7 7 12 20 12 30v343zM648 219c1 60 0 120 1 179v184c0 42 -27 71 -68 72c-97 1 -192 1 -289 0c-42 -1 -69 -30 -69 -73v-364c0 -44 28 -72 73 -72h279c46 0 73 27 73 74z" />
    <glyph glyph-name="s" unicode="&#xdf;" 
d="M424 311v-28h86v-7h-86v-29l-56 32zM778 592v-484c0 -67 -40 -107 -107 -107h-463c-66 0 -107 41 -107 106c-1 81 0 163 0 244v240c0 69 40 109 109 109h460c68 0 108 -40 108 -108zM206 578c0 60 35 95 95 94c88 1 175 0 263 1c14 0 29 3 43 5c-133 5 -264 5 -396 5
c-60 0 -93 -33 -93 -93v-442v-19c1 0 3 0 5 -1c23 25 48 50 71 77c7 7 12 20 12 30v343zM648 219c1 60 0 120 1 179v184c0 42 -27 71 -68 72c-97 1 -192 1 -289 0c-42 -1 -69 -30 -69 -73v-364c0 -44 28 -72 73 -72h279c46 0 73 27 73 74z" />
    <glyph glyph-name="t" unicode="t" 
d="M455 283v28l55 -32l-55 -32v29h-87v7h87zM778 592v-484c0 -67 -40 -107 -107 -107h-463c-66 0 -107 41 -107 106c-1 81 0 163 0 244v240c0 69 40 109 109 109h460c68 0 108 -40 108 -108zM206 578c0 60 35 95 95 94c88 1 175 0 263 1c14 0 29 3 43 5
c-133 5 -264 5 -396 5c-60 0 -93 -33 -93 -93v-442v-19c1 0 3 0 5 -1c23 25 48 50 71 77c7 7 12 20 12 30v343zM648 219c1 60 0 120 1 179v184c0 42 -27 71 -68 72c-97 1 -192 1 -289 0c-42 -1 -69 -30 -69 -73v-364c0 -44 28 -72 73 -72h279c46 0 73 27 73 74z" />
    <glyph glyph-name="u" unicode="u" 
d="M298 330c12 0 22 -4 28 -10c7 -6 11 -15 11 -25s-4 -18 -11 -25c-7 -6 -16 -9 -28 -9h-29v-46h-15v115h44zM316 279c3 5 6 10 6 16c0 7 -3 12 -6 16c-4 5 -10 7 -18 7h-28v-45h28c8 0 14 2 18 6zM409 289l1 11h13v-85c0 -11 -3 -20 -10 -25c-6 -6 -16 -9 -27 -9
c-5 0 -9 0 -14 2c-4 1 -8 2 -12 4l2 12c3 -1 6 -2 11 -4c4 -1 8 -1 12 -1c8 0 14 2 17 5c4 3 5 9 5 16v10c-3 -4 -6 -7 -10 -9c-4 -1 -9 -2 -14 -2c-10 0 -18 4 -24 11c-6 8 -8 17 -8 30v1c0 14 2 25 8 34c6 8 14 12 25 12c6 0 11 0 15 -3c3 -3 7 -6 10 -10zM408 238v39
c-2 4 -5 7 -8 9s-7 3 -12 3c-7 0 -13 -3 -16 -9c-4 -6 -6 -15 -6 -24v-2c0 -8 2 -15 6 -20c3 -6 8 -8 16 -8c5 0 8 1 12 3c3 2 6 5 8 9zM484 330c15 0 27 -5 36 -14c9 -10 13 -21 13 -36v-16c0 -14 -4 -26 -13 -35s-21 -14 -36 -14h-36v115h36zM518 264v17c0 10 -3 19 -9 26
c-7 7 -15 11 -25 11h-21v-91h21c10 0 19 3 25 10s9 17 9 27zM595 302c9 0 17 -3 22 -9c4 -5 7 -13 7 -24v-54h-15v53c0 8 -2 13 -5 16c-2 4 -7 5 -13 5c-5 0 -9 0 -13 -3c-3 -2 -6 -4 -8 -8v-63h-15v85h14l1 -13c2 5 6 8 11 11c4 2 9 4 14 4zM778 592v-484
c0 -67 -41 -107 -108 -107h-463c-65 0 -106 41 -107 106v244v240c0 69 41 109 110 109h459c68 0 109 -40 109 -108zM206 578c0 60 35 95 95 94c87 1 175 0 263 1c14 0 28 3 42 5c-132 5 -263 5 -395 5c-61 0 -94 -33 -94 -93v-442v-19c2 0 4 0 5 -1c24 25 49 50 71 77
c7 7 12 20 12 30c1 114 1 229 1 343zM648 219c0 60 0 120 1 179v184c0 42 -26 71 -68 72c-96 1 -192 1 -289 0c-42 -1 -68 -30 -68 -73v-364c0 -44 28 -72 72 -72h279c46 0 73 27 73 74z" />
    <glyph glyph-name="u" unicode="&#xfc;" 
d="M298 330c12 0 22 -4 28 -10c7 -6 11 -15 11 -25s-4 -18 -11 -25c-7 -6 -16 -9 -28 -9h-29v-46h-15v115h44zM316 279c3 5 6 10 6 16c0 7 -3 12 -6 16c-4 5 -10 7 -18 7h-28v-45h28c8 0 14 2 18 6zM409 289l1 11h13v-85c0 -11 -3 -20 -10 -25c-6 -6 -16 -9 -27 -9
c-5 0 -9 0 -14 2c-4 1 -8 2 -12 4l2 12c3 -1 6 -2 11 -4c4 -1 8 -1 12 -1c8 0 14 2 17 5c4 3 5 9 5 16v10c-3 -4 -6 -7 -10 -9c-4 -1 -9 -2 -14 -2c-10 0 -18 4 -24 11c-6 8 -8 17 -8 30v1c0 14 2 25 8 34c6 8 14 12 25 12c6 0 11 0 15 -3c3 -3 7 -6 10 -10zM408 238v39
c-2 4 -5 7 -8 9s-7 3 -12 3c-7 0 -13 -3 -16 -9c-4 -6 -6 -15 -6 -24v-2c0 -8 2 -15 6 -20c3 -6 8 -8 16 -8c5 0 8 1 12 3c3 2 6 5 8 9zM484 330c15 0 27 -5 36 -14c9 -10 13 -21 13 -36v-16c0 -14 -4 -26 -13 -35s-21 -14 -36 -14h-36v115h36zM518 264v17c0 10 -3 19 -9 26
c-7 7 -15 11 -25 11h-21v-91h21c10 0 19 3 25 10s9 17 9 27zM595 302c9 0 17 -3 22 -9c4 -5 7 -13 7 -24v-54h-15v53c0 8 -2 13 -5 16c-2 4 -7 5 -13 5c-5 0 -9 0 -13 -3c-3 -2 -6 -4 -8 -8v-63h-15v85h14l1 -13c2 5 6 8 11 11c4 2 9 4 14 4zM778 592v-484
c0 -67 -41 -107 -108 -107h-463c-65 0 -106 41 -107 106v244v240c0 69 41 109 110 109h459c68 0 109 -40 109 -108zM206 578c0 60 35 95 95 94c87 1 175 0 263 1c14 0 28 3 42 5c-132 5 -263 5 -395 5c-61 0 -94 -33 -94 -93v-442v-19c2 0 4 0 5 -1c24 25 49 50 71 77
c7 7 12 20 12 30c1 114 1 229 1 343zM648 219c0 60 0 120 1 179v184c0 42 -26 71 -68 72c-96 1 -192 1 -289 0c-42 -1 -68 -30 -68 -73v-364c0 -44 28 -72 72 -72h279c46 0 73 27 73 74z" />
    <glyph glyph-name="u" unicode="&#xfb;" 
d="M298 330c12 0 22 -4 28 -10c7 -6 11 -15 11 -25s-4 -18 -11 -25c-7 -6 -16 -9 -28 -9h-29v-46h-15v115h44zM316 279c3 5 6 10 6 16c0 7 -3 12 -6 16c-4 5 -10 7 -18 7h-28v-45h28c8 0 14 2 18 6zM409 289l1 11h13v-85c0 -11 -3 -20 -10 -25c-6 -6 -16 -9 -27 -9
c-5 0 -9 0 -14 2c-4 1 -8 2 -12 4l2 12c3 -1 6 -2 11 -4c4 -1 8 -1 12 -1c8 0 14 2 17 5c4 3 5 9 5 16v10c-3 -4 -6 -7 -10 -9c-4 -1 -9 -2 -14 -2c-10 0 -18 4 -24 11c-6 8 -8 17 -8 30v1c0 14 2 25 8 34c6 8 14 12 25 12c6 0 11 0 15 -3c3 -3 7 -6 10 -10zM408 238v39
c-2 4 -5 7 -8 9s-7 3 -12 3c-7 0 -13 -3 -16 -9c-4 -6 -6 -15 -6 -24v-2c0 -8 2 -15 6 -20c3 -6 8 -8 16 -8c5 0 8 1 12 3c3 2 6 5 8 9zM484 330c15 0 27 -5 36 -14c9 -10 13 -21 13 -36v-16c0 -14 -4 -26 -13 -35s-21 -14 -36 -14h-36v115h36zM518 264v17c0 10 -3 19 -9 26
c-7 7 -15 11 -25 11h-21v-91h21c10 0 19 3 25 10s9 17 9 27zM595 302c9 0 17 -3 22 -9c4 -5 7 -13 7 -24v-54h-15v53c0 8 -2 13 -5 16c-2 4 -7 5 -13 5c-5 0 -9 0 -13 -3c-3 -2 -6 -4 -8 -8v-63h-15v85h14l1 -13c2 5 6 8 11 11c4 2 9 4 14 4zM778 592v-484
c0 -67 -41 -107 -108 -107h-463c-65 0 -106 41 -107 106v244v240c0 69 41 109 110 109h459c68 0 109 -40 109 -108zM206 578c0 60 35 95 95 94c87 1 175 0 263 1c14 0 28 3 42 5c-132 5 -263 5 -395 5c-61 0 -94 -33 -94 -93v-442v-19c2 0 4 0 5 -1c24 25 49 50 71 77
c7 7 12 20 12 30c1 114 1 229 1 343zM648 219c0 60 0 120 1 179v184c0 42 -26 71 -68 72c-96 1 -192 1 -289 0c-42 -1 -68 -30 -68 -73v-364c0 -44 28 -72 72 -72h279c46 0 73 27 73 74z" />
    <glyph glyph-name="u" unicode="&#xfa;" 
d="M298 330c12 0 22 -4 28 -10c7 -6 11 -15 11 -25s-4 -18 -11 -25c-7 -6 -16 -9 -28 -9h-29v-46h-15v115h44zM316 279c3 5 6 10 6 16c0 7 -3 12 -6 16c-4 5 -10 7 -18 7h-28v-45h28c8 0 14 2 18 6zM409 289l1 11h13v-85c0 -11 -3 -20 -10 -25c-6 -6 -16 -9 -27 -9
c-5 0 -9 0 -14 2c-4 1 -8 2 -12 4l2 12c3 -1 6 -2 11 -4c4 -1 8 -1 12 -1c8 0 14 2 17 5c4 3 5 9 5 16v10c-3 -4 -6 -7 -10 -9c-4 -1 -9 -2 -14 -2c-10 0 -18 4 -24 11c-6 8 -8 17 -8 30v1c0 14 2 25 8 34c6 8 14 12 25 12c6 0 11 0 15 -3c3 -3 7 -6 10 -10zM408 238v39
c-2 4 -5 7 -8 9s-7 3 -12 3c-7 0 -13 -3 -16 -9c-4 -6 -6 -15 -6 -24v-2c0 -8 2 -15 6 -20c3 -6 8 -8 16 -8c5 0 8 1 12 3c3 2 6 5 8 9zM484 330c15 0 27 -5 36 -14c9 -10 13 -21 13 -36v-16c0 -14 -4 -26 -13 -35s-21 -14 -36 -14h-36v115h36zM518 264v17c0 10 -3 19 -9 26
c-7 7 -15 11 -25 11h-21v-91h21c10 0 19 3 25 10s9 17 9 27zM595 302c9 0 17 -3 22 -9c4 -5 7 -13 7 -24v-54h-15v53c0 8 -2 13 -5 16c-2 4 -7 5 -13 5c-5 0 -9 0 -13 -3c-3 -2 -6 -4 -8 -8v-63h-15v85h14l1 -13c2 5 6 8 11 11c4 2 9 4 14 4zM778 592v-484
c0 -67 -41 -107 -108 -107h-463c-65 0 -106 41 -107 106v244v240c0 69 41 109 110 109h459c68 0 109 -40 109 -108zM206 578c0 60 35 95 95 94c87 1 175 0 263 1c14 0 28 3 42 5c-132 5 -263 5 -395 5c-61 0 -94 -33 -94 -93v-442v-19c2 0 4 0 5 -1c24 25 49 50 71 77
c7 7 12 20 12 30c1 114 1 229 1 343zM648 219c0 60 0 120 1 179v184c0 42 -26 71 -68 72c-96 1 -192 1 -289 0c-42 -1 -68 -30 -68 -73v-364c0 -44 28 -72 72 -72h279c46 0 73 27 73 74z" />
    <glyph glyph-name="u" unicode="&#xf9;" 
d="M298 330c12 0 22 -4 28 -10c7 -6 11 -15 11 -25s-4 -18 -11 -25c-7 -6 -16 -9 -28 -9h-29v-46h-15v115h44zM316 279c3 5 6 10 6 16c0 7 -3 12 -6 16c-4 5 -10 7 -18 7h-28v-45h28c8 0 14 2 18 6zM409 289l1 11h13v-85c0 -11 -3 -20 -10 -25c-6 -6 -16 -9 -27 -9
c-5 0 -9 0 -14 2c-4 1 -8 2 -12 4l2 12c3 -1 6 -2 11 -4c4 -1 8 -1 12 -1c8 0 14 2 17 5c4 3 5 9 5 16v10c-3 -4 -6 -7 -10 -9c-4 -1 -9 -2 -14 -2c-10 0 -18 4 -24 11c-6 8 -8 17 -8 30v1c0 14 2 25 8 34c6 8 14 12 25 12c6 0 11 0 15 -3c3 -3 7 -6 10 -10zM408 238v39
c-2 4 -5 7 -8 9s-7 3 -12 3c-7 0 -13 -3 -16 -9c-4 -6 -6 -15 -6 -24v-2c0 -8 2 -15 6 -20c3 -6 8 -8 16 -8c5 0 8 1 12 3c3 2 6 5 8 9zM484 330c15 0 27 -5 36 -14c9 -10 13 -21 13 -36v-16c0 -14 -4 -26 -13 -35s-21 -14 -36 -14h-36v115h36zM518 264v17c0 10 -3 19 -9 26
c-7 7 -15 11 -25 11h-21v-91h21c10 0 19 3 25 10s9 17 9 27zM595 302c9 0 17 -3 22 -9c4 -5 7 -13 7 -24v-54h-15v53c0 8 -2 13 -5 16c-2 4 -7 5 -13 5c-5 0 -9 0 -13 -3c-3 -2 -6 -4 -8 -8v-63h-15v85h14l1 -13c2 5 6 8 11 11c4 2 9 4 14 4zM778 592v-484
c0 -67 -41 -107 -108 -107h-463c-65 0 -106 41 -107 106v244v240c0 69 41 109 110 109h459c68 0 109 -40 109 -108zM206 578c0 60 35 95 95 94c87 1 175 0 263 1c14 0 28 3 42 5c-132 5 -263 5 -395 5c-61 0 -94 -33 -94 -93v-442v-19c2 0 4 0 5 -1c24 25 49 50 71 77
c7 7 12 20 12 30c1 114 1 229 1 343zM648 219c0 60 0 120 1 179v184c0 42 -26 71 -68 72c-96 1 -192 1 -289 0c-42 -1 -68 -30 -68 -73v-364c0 -44 28 -72 72 -72h279c46 0 73 27 73 74z" />
    <glyph glyph-name="v" unicode="v" horiz-adv-x="779" 
d="M297 330c12 0 21 -4 28 -10s11 -15 11 -25s-4 -18 -11 -25c-7 -6 -16 -9 -28 -9h-29v-46h-15v115h44zM314 279c4 5 6 10 6 16c0 7 -2 12 -6 16c-4 5 -10 7 -17 7h-29v-45h29c7 0 13 2 17 6zM407 289l2 11h12v-85c0 -11 -3 -20 -10 -25c-6 -6 -15 -9 -27 -9
c-4 0 -9 0 -13 2c-5 1 -9 2 -13 4l2 12c3 -1 7 -2 11 -4c4 -1 8 -1 12 -1c8 0 14 2 17 5c4 3 6 9 6 16v10c-4 -4 -7 -7 -11 -9c-3 -1 -8 -2 -13 -2c-10 0 -18 4 -24 11c-6 8 -9 17 -9 30v1c0 14 3 25 9 34c6 8 14 12 24 12c6 0 11 0 15 -3s7 -6 10 -10zM406 238h1v39
c-3 4 -5 7 -8 9c-4 2 -8 3 -12 3c-8 0 -13 -3 -17 -9s-5 -15 -5 -24v-2c0 -8 2 -15 5 -20c3 -6 9 -8 16 -8c5 0 9 1 12 3s6 5 8 9zM515 254v76h16v-77c0 -13 -4 -23 -12 -30s-19 -10 -32 -10s-23 3 -31 10s-12 18 -12 30v77h16v-76c0 -9 3 -16 7 -21c5 -5 12 -7 20 -7
s15 2 20 7c6 5 8 12 8 21zM592 302c11 0 19 -4 25 -13c6 -8 9 -19 9 -33v-2c0 -12 -3 -22 -9 -29c-6 -8 -14 -12 -24 -12c-5 0 -10 1 -14 3s-8 4 -10 8v-41h-16v117h12l3 -11c2 4 6 7 10 9s9 4 14 4zM611 254h-1v2c0 9 -2 17 -6 23s-9 10 -16 10c-5 0 -9 -2 -12 -4
c-3 -1 -5 -4 -7 -8v-41c1 -3 4 -7 7 -8c3 -2 8 -3 12 -3c8 0 13 3 17 8c4 6 6 13 6 21zM778 592c1 -161 1 -323 0 -484c0 -67 -41 -107 -108 -107h-463c-65 0 -106 41 -107 106v244v240c0 69 41 109 110 109h459c68 0 109 -40 109 -108zM206 578c0 60 35 95 95 94
c87 1 175 0 263 1c14 0 28 3 42 5c-132 5 -263 5 -395 5c-61 0 -94 -33 -94 -93v-442v-19c2 0 4 0 5 -1c24 25 49 50 71 77c7 7 12 20 12 30c1 114 1 229 1 343zM648 219c0 60 0 120 1 179v184c0 42 -26 71 -68 72c-96 1 -192 1 -289 0c-42 -1 -68 -30 -68 -73v-364
c0 -44 28 -72 72 -72h279c46 0 73 27 73 74z" />
    <glyph glyph-name="w" unicode="w" horiz-adv-x="2312" 
d="M1014 279c12 -3 21 -8 27 -14c6 -5 9 -12 9 -21s-3 -17 -11 -22c-7 -6 -17 -9 -28 -9c-12 0 -21 3 -30 9s-12 15 -12 25v1h15c0 -7 2 -13 8 -17c5 -4 11 -6 18 -6s13 2 17 5c5 3 7 7 7 13c0 5 -2 10 -6 13c-3 4 -10 7 -20 9c-11 4 -21 8 -27 13c-7 6 -10 13 -10 21
c0 10 4 17 11 23s16 9 27 9c13 0 23 -3 30 -10s10 -15 10 -24v-1h-15c0 7 -3 12 -7 16c-5 5 -11 7 -18 7s-12 -2 -16 -6c-4 -3 -6 -8 -6 -13s2 -9 6 -12c5 -4 11 -6 21 -9zM1109 302c10 0 18 -4 24 -13c6 -8 9 -19 9 -33v-2c0 -12 -3 -22 -9 -29c-6 -8 -14 -12 -24 -12
c-5 0 -10 1 -14 3s-7 4 -10 8v-41h-16v117h12l3 -11c2 4 6 7 10 9s9 4 15 4zM1126 254v2c0 9 -2 18 -6 23c-4 6 -9 10 -17 10c-4 0 -8 -2 -11 -4c-3 -1 -6 -4 -8 -8v-41c2 -3 5 -7 8 -8c3 -2 7 -3 12 -3c7 0 13 3 16 8c4 6 6 13 6 21zM1227 232c0 -3 2 -6 2 -10
c0 -3 0 -6 1 -8h-16c0 2 0 5 -1 7s-1 4 -1 6c-2 -5 -6 -8 -11 -11c-5 -2 -10 -4 -15 -4c-9 0 -16 3 -20 7c-5 5 -7 11 -7 19c0 9 3 15 9 19c7 5 16 7 27 7h17v9c0 5 -1 9 -4 12c-4 3 -8 4 -13 4c-6 0 -9 -1 -13 -4c-3 -2 -5 -5 -5 -9h-14v1c-1 6 3 12 9 17c5 5 14 8 23 8
c10 0 17 -3 23 -8s9 -12 9 -21v-41zM1212 241v14h-17c-7 0 -12 -1 -15 -5c-4 -3 -6 -7 -6 -11s2 -7 4 -9s5 -3 10 -3c6 0 11 1 15 4c5 3 7 6 9 10zM1267 281c-3 -6 -5 -13 -4 -24v-3c0 -8 2 -15 5 -21s9 -9 17 -9c4 0 8 2 12 5s5 7 5 12h14v-1c0 -7 -3 -13 -9 -19
c-7 -6 -14 -9 -23 -9c-12 0 -21 4 -28 13c-6 8 -10 18 -10 30v3c0 12 4 23 10 31c7 8 16 12 28 12c9 0 17 -3 23 -9s8 -13 8 -21v-1h-14c0 6 -1 10 -5 14c-3 4 -7 5 -12 5c-8 0 -14 -3 -17 -8zM1368 302c11 0 18 -2 24 -9c6 -8 9 -17 9 -29v-8h-54c0 -9 2 -16 5 -21
c4 -6 10 -8 18 -8c5 0 10 0 14 2c3 1 7 3 10 6l6 -10c-3 -4 -7 -6 -12 -8s-11 -3 -18 -3c-13 0 -22 4 -29 12c-7 7 -10 17 -10 30v4c0 11 4 22 11 30s15 12 26 12zM1386 267v2c0 6 -2 12 -4 15c-3 4 -8 6 -14 6s-10 -2 -14 -6c-4 -5 -6 -10 -6 -16v-1h38zM2297 592v-484
c0 -67 -40 -107 -107 -107h-2010c-65 0 -106 41 -107 106v244v240c0 69 40 109 110 109h2005c68 0 109 -40 109 -108zM178 578c1 60 35 95 94 94c88 1 1722 0 1810 1c14 0 29 3 43 5c-132 5 -1810 5 -1942 5c-60 0 -93 -33 -93 -93v-442v-19c1 0 3 0 5 -1c23 25 48 50 71 77
c7 7 12 20 12 30v343zM2167 219c0 60 0 120 1 179v184c0 42 -27 71 -68 72c-96 1 -1738 1 -1835 0c-42 -1 -69 -30 -69 -73v-364c0 -44 28 -72 73 -72h1825c46 0 73 27 73 74z" />
    <glyph glyph-name="x" unicode="x" horiz-adv-x="870" 
d="M291 279c12 -3 21 -8 27 -14c6 -5 9 -12 9 -21s-3 -16 -10 -22c-8 -6 -17 -9 -29 -9c-11 0 -21 3 -29 9c-9 6 -13 15 -13 25v1h15c0 -7 3 -13 8 -17c6 -4 12 -6 19 -6s13 2 17 5s6 7 6 13c0 5 -1 10 -5 13c-4 4 -11 7 -20 9c-12 4 -21 8 -27 13c-7 6 -10 13 -10 21
c0 10 4 17 11 23s16 9 27 9c12 0 22 -3 29 -10s10 -15 10 -24v-1h-15c0 7 -2 12 -7 16c-4 5 -10 7 -17 7s-13 -2 -17 -6c-3 -3 -6 -8 -6 -13s3 -9 7 -12c4 -4 11 -6 20 -9zM364 281c-4 -6 -5 -13 -5 -24v-3c0 -8 2 -15 6 -21c3 -6 9 -9 16 -9c5 0 9 2 13 5c3 3 5 7 5 12h14
v-1c0 -7 -3 -13 -10 -19c-6 -6 -14 -9 -22 -9c-13 0 -22 4 -28 13c-7 8 -10 18 -10 30v3c0 12 3 23 10 31c6 8 15 12 27 12c9 0 17 -3 23 -9s9 -13 9 -21v-1h-14c0 6 -2 10 -5 14s-7 5 -13 5c-7 0 -13 -3 -16 -8zM467 302c2 0 2 -1 3 -1s2 -1 3 -1l-2 -14h-8
c-4 0 -8 -1 -11 -2c-2 -2 -4 -5 -6 -8v-61h-16v85h14l2 -12c3 4 5 7 9 10c4 2 8 4 12 4zM519 302c11 0 19 -2 25 -9c6 -8 9 -17 9 -29v-8h-55c0 -9 2 -16 6 -21c4 -6 10 -8 17 -8c6 0 11 1 14 2c4 1 8 3 11 6l5 -10c-2 -4 -6 -6 -11 -8c-6 -2 -12 -3 -19 -3
c-12 0 -21 4 -28 12c-7 7 -10 17 -10 30v4c0 11 3 22 10 30s16 12 26 12zM537 267v2c0 6 -1 12 -4 15c-3 4 -7 6 -14 6c-5 0 -10 -2 -13 -6c-4 -5 -6 -10 -7 -16v-1h38zM604 302c11 0 19 -2 24 -9c6 -8 9 -17 9 -29v-8h-54c0 -9 2 -16 6 -21c3 -6 9 -8 17 -8c5 0 10 1 14 2
s7 3 10 6l6 -10c-3 -4 -6 -6 -12 -8c-5 -2 -11 -3 -18 -3c-13 0 -22 4 -29 12c-7 7 -10 17 -10 30v4c0 11 4 22 11 30s15 12 26 12zM622 267v2c0 6 -2 12 -4 15c-3 4 -8 6 -14 6s-10 -2 -14 -6c-4 -5 -6 -10 -6 -16v-1h38zM696 302c9 0 16 -3 21 -9c5 -5 8 -13 8 -24v-54
h-16v53c0 8 -1 13 -4 16c-3 4 -8 5 -14 5c-4 0 -9 0 -12 -3c-3 -2 -6 -4 -8 -8v-63h-16v85h14l1 -13c3 5 7 8 11 11c5 2 9 4 15 4zM393 406c-6 -6 -16 -10 -28 -9h-29v-46h-16v114h45c12 0 21 -3 28 -9s10 -15 10 -25s-3 -19 -10 -25zM337 453v-45h28c8 0 14 3 17 7
c4 3 6 9 6 15c0 7 -2 12 -6 16c-3 5 -9 7 -17 7h-28zM437 411h-1v-60h-15v85h14l1 -13c3 5 6 8 9 10c4 3 8 4 13 4h3s2 -1 3 -1l-2 -14h-9c-3 0 -7 0 -10 -3c-2 -1 -5 -4 -6 -8zM495 458h-16v15h16v-15zM495 351h-16v85h16v-85zM572 404c0 7 -1 13 -4 15c-3 4 -7 5 -13 5
c-5 0 -9 0 -13 -2c-3 -3 -6 -5 -8 -8v-63h-15v85h14l1 -13c2 5 6 8 10 10c5 3 10 4 15 4c9 0 17 -2 22 -8c4 -5 7 -13 7 -25v-53h-16v53zM644 362c1 0 2 0 2 1l2 -11c-1 0 -3 -1 -5 -2s-4 -1 -6 -1c-7 0 -12 2 -16 6c-3 4 -5 10 -5 18v51h-13v12h13v20h16v-20h16v-12h-16
v-51c0 -5 1 -7 2 -9c2 -2 4 -3 7 -3c1 0 2 1 3 1zM870 592v-484c0 -67 -41 -107 -108 -107h-555c-65 0 -106 41 -107 106v244v240c0 69 41 109 110 109h551c68 0 109 -40 109 -108zM206 578c0 60 35 95 95 94c87 1 267 0 354 1c14 0 29 3 43 5c-133 5 -355 5 -487 5
c-61 0 -94 -33 -94 -93v-442v-19c2 0 4 0 5 -1c24 25 49 50 71 77c7 7 12 20 12 30c1 114 1 229 1 343zM740 219v179c0 61 1 123 0 184c0 42 -26 71 -67 72c-97 1 -284 1 -381 0c-42 -1 -68 -30 -68 -73v-364c0 -44 28 -72 72 -72h371c45 0 73 27 73 74z" />
    <glyph glyph-name="y" unicode="y" horiz-adv-x="779" 
d="M778 592c1 -161 1 -323 0 -484c0 -67 -41 -107 -108 -107h-463c-65 0 -106 41 -107 106v244v240c0 69 41 109 110 109h459c68 0 109 -40 109 -108zM206 578c0 60 35 95 95 94c87 1 175 0 263 1c14 0 28 3 42 5c-132 5 -263 5 -395 5c-61 0 -94 -33 -94 -93v-442v-19
c2 0 4 0 5 -1c24 25 49 50 71 77c7 7 12 20 12 30c1 114 1 229 1 343zM648 219c0 60 0 120 1 179v184c0 42 -26 71 -68 72c-96 1 -192 1 -289 0c-42 -1 -68 -30 -68 -73v-364c0 -44 28 -72 72 -72h279c46 0 73 27 73 74zM568 481c0 0 1 0 2 1v-2v-120v-2h-7h-72
c-21 0 -41 -1 -61 -1c-1 0 -1 0 -1 2v101c0 1 0 1 1 1c9 2 19 3 28 4c9 2 19 3 28 5c11 1 21 2 31 4c11 1 21 3 31 4c7 1 14 2 20 3zM428 341v1h142v-123c-3 1 -6 1 -9 1c-8 2 -17 3 -25 4s-17 3 -26 4s-17 2 -25 3c-9 1 -19 3 -28 4c-8 1 -16 2 -25 4h-3s-1 0 -1 1v8v93z
M309 343c0 1 0 1 -1 2c36 0 71 -1 107 -1v-103c-5 1 -9 2 -14 2c-8 1 -16 3 -24 4c-10 1 -19 3 -29 4s-19 3 -29 4c-3 0 -6 0 -9 1c-1 0 -1 1 -1 1v45v41zM309 443l-1 2c36 5 71 9 107 14v-103h-1h-60c-14 -1 -29 -1 -43 -1h-1c-1 0 -1 1 -1 2v51v35z" />
    <glyph glyph-name="y" unicode="&#xff;" horiz-adv-x="779" 
d="M778 592c1 -161 1 -323 0 -484c0 -67 -41 -107 -108 -107h-463c-65 0 -106 41 -107 106v244v240c0 69 41 109 110 109h459c68 0 109 -40 109 -108zM206 578c0 60 35 95 95 94c87 1 175 0 263 1c14 0 28 3 42 5c-132 5 -263 5 -395 5c-61 0 -94 -33 -94 -93v-442v-19
c2 0 4 0 5 -1c24 25 49 50 71 77c7 7 12 20 12 30c1 114 1 229 1 343zM648 219c0 60 0 120 1 179v184c0 42 -26 71 -68 72c-96 1 -192 1 -289 0c-42 -1 -68 -30 -68 -73v-364c0 -44 28 -72 72 -72h279c46 0 73 27 73 74zM568 481c0 0 1 0 2 1v-2v-120v-2h-7h-72
c-21 0 -41 -1 -61 -1c-1 0 -1 0 -1 2v101c0 1 0 1 1 1c9 2 19 3 28 4c9 2 19 3 28 5c11 1 21 2 31 4c11 1 21 3 31 4c7 1 14 2 20 3zM428 341v1h142v-123c-3 1 -6 1 -9 1c-8 2 -17 3 -25 4s-17 3 -26 4s-17 2 -25 3c-9 1 -19 3 -28 4c-8 1 -16 2 -25 4h-3s-1 0 -1 1v8v93z
M309 343c0 1 0 1 -1 2c36 0 71 -1 107 -1v-103c-5 1 -9 2 -14 2c-8 1 -16 3 -24 4c-10 1 -19 3 -29 4s-19 3 -29 4c-3 0 -6 0 -9 1c-1 0 -1 1 -1 1v45v41zM309 443l-1 2c36 5 71 9 107 14v-103h-1h-60c-14 -1 -29 -1 -43 -1h-1c-1 0 -1 1 -1 2v51v35z" />
    <glyph glyph-name="y" unicode="&#xfd;" horiz-adv-x="779" 
d="M778 592c1 -161 1 -323 0 -484c0 -67 -41 -107 -108 -107h-463c-65 0 -106 41 -107 106v244v240c0 69 41 109 110 109h459c68 0 109 -40 109 -108zM206 578c0 60 35 95 95 94c87 1 175 0 263 1c14 0 28 3 42 5c-132 5 -263 5 -395 5c-61 0 -94 -33 -94 -93v-442v-19
c2 0 4 0 5 -1c24 25 49 50 71 77c7 7 12 20 12 30c1 114 1 229 1 343zM648 219c0 60 0 120 1 179v184c0 42 -26 71 -68 72c-96 1 -192 1 -289 0c-42 -1 -68 -30 -68 -73v-364c0 -44 28 -72 72 -72h279c46 0 73 27 73 74zM568 481c0 0 1 0 2 1v-2v-120v-2h-7h-72
c-21 0 -41 -1 -61 -1c-1 0 -1 0 -1 2v101c0 1 0 1 1 1c9 2 19 3 28 4c9 2 19 3 28 5c11 1 21 2 31 4c11 1 21 3 31 4c7 1 14 2 20 3zM428 341v1h142v-123c-3 1 -6 1 -9 1c-8 2 -17 3 -25 4s-17 3 -26 4s-17 2 -25 3c-9 1 -19 3 -28 4c-8 1 -16 2 -25 4h-3s-1 0 -1 1v8v93z
M309 343c0 1 0 1 -1 2c36 0 71 -1 107 -1v-103c-5 1 -9 2 -14 2c-8 1 -16 3 -24 4c-10 1 -19 3 -29 4s-19 3 -29 4c-3 0 -6 0 -9 1c-1 0 -1 1 -1 1v45v41zM309 443l-1 2c36 5 71 9 107 14v-103h-1h-60c-14 -1 -29 -1 -43 -1h-1c-1 0 -1 1 -1 2v51v35z" />
    <glyph glyph-name="z" unicode="z" horiz-adv-x="2324" 
d="M439 363c1 -1 4 -4 4 -5v-1l-21 -153c-1 -5 -2 -10 -3 -14s-4 -5 -7 -5c-2 0 -4 1 -6 2c-3 4 -5 8 -6 13l-16 60l-18 -62c-2 -6 -3 -13 -11 -13s-9 7 -10 13l-18 136c-1 8 -2 16 -2 24v1c0 3 4 6 8 6c2 0 4 -1 6 -3c3 -3 3 -8 4 -13l15 -108l13 45c1 5 2 10 4 15
c2 4 5 6 8 6s6 -2 8 -5c2 -4 4 -9 5 -13l13 -51s17 115 18 122c1 3 5 5 8 5c2 0 3 -1 4 -2zM573 363c1 -1 4 -4 5 -6v-1l-21 -153c-1 -4 -2 -9 -4 -13c-1 -4 -3 -6 -6 -6c-2 0 -4 1 -6 3c-4 3 -5 8 -6 12l-17 60l-17 -62c-3 -5 -4 -13 -11 -13h-1c-8 0 -8 8 -9 14l-18 136
c-1 7 -3 15 -3 23v1c0 4 4 6 9 6c2 0 4 -1 6 -2c3 -4 2 -9 3 -13l16 -109l12 45c2 6 3 11 5 15c1 4 5 6 8 6s5 -1 7 -4c3 -4 5 -9 6 -13l12 -51s17 115 18 122c1 3 5 5 8 5c2 0 3 -1 4 -2zM707 363c1 -1 4 -4 5 -6v-1l-21 -153c-1 -4 -2 -9 -4 -13c-1 -4 -3 -6 -6 -6
c-2 0 -4 1 -6 3c-4 3 -5 8 -6 12l-17 60l-17 -62c-2 -5 -4 -13 -11 -13h-1c-8 0 -8 8 -9 14l-18 136c-1 7 -3 15 -3 23v1c0 4 5 6 9 6c2 0 4 -1 6 -2c3 -4 2 -9 4 -13l14 -108l13 45c2 5 2 10 4 15c2 4 5 6 8 6s6 -2 8 -5c3 -4 4 -9 5 -13l13 -51s17 115 19 122c0 3 4 5 7 5
c2 0 3 -1 4 -2zM729 199c5 0 8 -2 9 -8c0 -5 -3 -8 -9 -8c-4 0 -7 2 -8 7c0 5 3 8 8 9zM876 200c3 -1 4 -2 6 -3c1 -2 2 -3 2 -5v-1c-1 -3 -2 -4 -3 -6c-1 -1 -3 -1 -5 -1h-1h-49c-13 0 -23 0 -30 1c-4 0 -8 0 -11 1c-1 0 -3 0 -4 1c-3 1 -4 2 -5 4c-2 2 -3 4 -3 8
c0 2 1 5 2 8c2 3 8 13 12 17c3 4 8 10 14 16l19 18c9 9 16 16 20 21c14 16 21 31 22 44v3c0 2 0 5 -1 7s-3 5 -6 7c-4 5 -10 7 -16 7c-5 0 -9 -1 -15 -3c-13 -6 -23 -15 -32 -27c-1 -2 -3 -3 -5 -3h-1c-2 0 -4 0 -5 2c-3 1 -4 3 -4 5v1c0 2 1 4 2 5c10 14 23 25 37 32
c8 4 16 6 23 6c9 0 19 -4 26 -12c8 -8 12 -18 12 -29v-1c-1 -18 -9 -37 -26 -55c-5 -6 -12 -14 -21 -22l-19 -18c-6 -6 -14 -17 -17 -21l-4 -5c2 -1 4 -1 6 -1c7 -1 16 -1 29 -1h51zM945 359v-3c1 -15 -1 -163 -1 -163c0 -2 0 -5 -2 -6c-1 -1 -4 -2 -6 -2s-4 0 -5 2
c-2 1 -2 4 -2 6s1 138 1 138c-8 -11 -19 -24 -29 -24c-2 0 -4 1 -6 3c-1 2 -1 3 -1 5c0 4 3 6 6 9l2 1c5 3 9 8 14 13c5 6 10 14 14 22c0 2 2 3 4 5h3s2 0 4 -1s3 -3 4 -5zM1062 200c2 -1 3 -2 6 -3c1 -2 1 -3 1 -5v-1c0 -3 -1 -4 -3 -6c-1 -1 -3 -1 -5 -1h-1h-48
c-14 0 -24 0 -31 1c-4 0 -8 0 -10 1c-2 0 -4 0 -5 1c-2 1 -4 2 -5 4c-2 2 -3 4 -3 8c0 2 1 5 2 8c2 3 9 13 12 17c4 4 8 10 14 16l20 18c8 9 15 16 20 21c14 16 21 31 21 44v3c0 2 0 5 -1 7c0 2 -3 5 -5 7c-5 5 -11 7 -16 7s-10 -1 -16 -3c-12 -6 -23 -15 -32 -27
c-1 -2 -3 -3 -5 -3h-1c-2 0 -4 0 -5 2c-2 1 -3 3 -3 5v1c0 2 0 4 1 5c10 14 23 25 37 32c8 4 16 6 23 6c10 0 19 -4 26 -12c8 -8 12 -18 12 -29v-1c0 -18 -9 -37 -26 -55c-5 -6 -12 -14 -21 -22l-18 -18c-6 -6 -15 -17 -18 -21l-3 -5c1 -1 3 -1 5 -1c7 -1 17 -1 30 -1h51z
M1130 237c1 0 7 0 9 -3c0 -1 1 -2 1 -4c0 -1 0 -2 -1 -4c-2 -4 -10 -4 -11 -4l-27 1c-5 0 -8 -1 -9 -3c0 0 -2 -1 -2 -19v-9c-1 -1 -1 -5 -2 -6c-3 -2 -5 -3 -6 -3c-5 0 -7 7 -7 13l1 140c0 16 7 26 23 29h20c15 0 33 0 40 -1c4 -1 9 -2 9 -5v-2c0 -6 -6 -6 -10 -7
c-11 -1 -22 -2 -33 -2h-14c-16 0 -17 -2 -18 -23l-1 -87zM1252 350c24 -21 32 -48 31 -81c-1 -21 -5 -45 -21 -64c-12 -15 -29 -23 -45 -23s-33 8 -45 25c-13 17 -19 40 -19 63c0 28 9 57 27 76c11 13 24 19 37 19c12 0 24 -5 35 -15zM1267 263h1v2c-1 24 -3 43 -14 60
c-9 16 -22 24 -34 24s-24 -7 -33 -22c-12 -18 -18 -36 -18 -56c0 -15 4 -31 11 -47c8 -16 20 -25 39 -25h3c18 1 30 11 37 27c5 13 8 27 8 37zM1401 362c3 -1 6 -5 5 -9v-4s0 -10 -2 -149c0 -6 -1 -15 -8 -16h-3c-6 0 -9 6 -11 11l-53 116s-2 -117 -2 -120c0 -4 -1 -7 -6 -8
h-1c-4 0 -6 2 -8 4c-3 4 -3 8 -3 12v2l3 146c0 6 -1 13 7 15c1 1 2 1 3 1c6 0 7 -7 10 -11l57 -126l1 121v4c0 3 0 6 3 9c2 2 5 2 8 2zM1527 365c11 0 16 -3 16 -7c-2 -9 -9 -9 -16 -10l-21 -1c-11 0 -14 -2 -15 -16l-1 -117c0 -8 0 -15 -2 -22c-2 -6 -5 -9 -9 -9
c-7 1 -8 4 -9 10v11l3 133c0 9 -1 9 -11 10c-6 1 -32 1 -37 2c-5 2 -5 6 -5 7v1c0 2 1 3 3 4c4 4 10 4 15 4h89zM1587 366c19 0 40 -15 45 -28c2 -3 2 -5 2 -6c0 -3 -1 -5 -5 -7c0 -1 -1 -1 -2 -1c-4 0 -9 4 -11 7c-14 12 -24 17 -32 17s-14 -5 -18 -11s-7 -12 -7 -18
c0 -10 7 -21 26 -33c10 -8 22 -14 31 -24c9 -11 14 -22 14 -34c0 -7 -2 -15 -5 -22c-8 -16 -19 -26 -43 -26c-17 3 -32 13 -39 28c-1 3 -2 5 -2 6c0 2 2 5 4 6c2 2 5 2 7 2s5 0 6 -2c7 -14 17 -21 27 -21c5 0 11 2 16 7c7 6 9 13 9 21c0 13 -7 26 -20 37
c-12 10 -26 15 -36 27c-7 9 -11 19 -11 28c0 7 2 14 5 21c8 15 21 26 39 26zM1655 199c4 0 7 -2 8 -8c0 -5 -3 -8 -8 -8h-1c-4 0 -7 2 -8 7c0 5 3 8 9 9zM1805 256c2 -1 5 -3 5 -7v-4c0 -2 0 -3 -1 -4c-4 -15 -9 -29 -19 -41c-10 -13 -23 -19 -36 -19s-27 7 -37 21
c-13 19 -20 41 -20 66v3c1 24 5 49 22 70c7 8 14 15 24 20c6 4 13 5 19 5c16 0 29 -10 36 -21c5 -7 9 -15 9 -25v-1c0 -3 -1 -7 -5 -9h-3c-2 0 -4 2 -6 4c-2 8 -5 13 -8 19c-7 10 -17 13 -26 13c-7 0 -14 -3 -21 -10c-13 -13 -22 -31 -22 -48v-10c0 -13 0 -26 4 -39
c2 -10 6 -20 13 -28c6 -7 13 -11 20 -11s15 2 21 8c8 8 14 17 17 28c2 6 4 12 7 17c2 2 4 3 6 3h1zM1925 350c24 -21 32 -48 31 -81c-1 -21 -5 -45 -21 -64c-12 -15 -28 -23 -45 -23c-16 0 -33 8 -45 25c-13 17 -19 40 -19 63c0 28 9 57 27 76c11 13 24 19 37 19
c12 0 24 -5 35 -15zM1940 263v2c0 24 -3 43 -13 60c-10 16 -22 24 -34 24s-24 -7 -34 -22c-12 -18 -18 -36 -18 -56c0 -15 4 -31 12 -47c7 -16 20 -25 38 -25h3c19 1 30 11 37 27c6 13 9 27 9 37zM2087 364c2 0 4 -1 5 -4c2 -1 3 -4 3 -6c0 -6 -1 -134 -1 -160
c0 -6 -1 -13 -7 -13h-1c-6 0 -8 7 -8 12l1 111v8l-1 1c-1 0 -1 0 -1 -1c-5 -12 -19 -46 -24 -57c-2 -6 -5 -14 -13 -14h-2c-6 1 -9 7 -11 13c0 0 -5 10 -26 59h-1c-1 0 -1 0 -1 -1l-2 -118c0 -5 -1 -12 -7 -12h-1c-6 0 -8 7 -8 12v161c0 5 5 10 10 11h2c7 0 10 -6 13 -12
l35 -87l8 18c9 22 17 44 27 66c1 4 6 13 11 13zM350 446c0 -2 -2 -5 -6 -6c-11 -1 -27 -2 -40 -2c-12 0 -22 1 -25 5c-1 1 -1 2 -1 4c0 9 5 23 17 43c13 20 24 44 26 57c1 4 2 9 2 13c0 7 -2 12 -8 13h-1c-6 0 -17 -8 -23 -15c-1 -2 -2 -2 -3 -2s-2 1 -2 2c0 2 0 4 2 6
c7 9 18 18 27 18c19 -1 25 -12 25 -27c0 -27 -20 -66 -29 -80c-7 -9 -11 -17 -16 -27h16l34 1c4 -1 5 -2 5 -3zM371 439c-9 0 -10 19 -10 33v12c0 4 1 46 2 55c1 12 0 34 6 40c2 1 4 1 6 1h2c2 0 6 -2 6 -4c1 -5 1 -11 1 -18c0 -34 -3 -88 -3 -102c0 -6 0 -16 -10 -17z
M465 446c0 -2 -2 -5 -6 -5c-11 -1 -27 -2 -41 -2c-12 0 -21 1 -24 4c-1 1 -2 3 -2 5c0 8 6 22 18 42c13 20 23 44 26 57c1 4 2 9 2 13c0 7 -3 12 -8 13h-1c-6 0 -17 -8 -23 -15c-1 -2 -2 -2 -3 -2s-3 1 -3 2c0 2 1 4 3 6c7 9 18 18 27 18c18 -1 25 -12 25 -27
c0 -27 -21 -66 -30 -80c-6 -9 -10 -17 -15 -27h16l34 1c4 -1 5 -2 5 -3zM1091 527c0 4 -2 7 -9 7c-3 1 -7 1 -10 1c0 -4 -4 -27 -5 -31c0 -3 0 -5 -1 -6v-1c-1 -10 -3 -19 -6 -27c-3 -9 -5 -14 -8 -18c-3 -5 -6 -8 -8 -9c-3 -3 -6 -4 -10 -4c-5 0 -9 2 -12 6s-4 8 -6 13
l-1 17v2c-1 -3 -2 -5 -3 -8c-3 -9 -7 -17 -12 -23c-4 -6 -9 -9 -15 -9c-1 0 -4 0 -5 1c-5 3 -10 7 -13 13s-6 11 -8 16c0 3 -1 5 -1 7c-7 -7 -15 -11 -26 -12h-2c-1 -2 -2 -5 -4 -7c-6 -10 -16 -15 -24 -15c-9 0 -19 5 -25 15c-5 8 -8 15 -9 22c-7 -7 -17 -11 -27 -12
c-5 -9 -12 -17 -20 -22c-5 -4 -10 -6 -16 -6c-3 0 -6 0 -9 1c-1 1 -3 1 -4 1h-2c-2 -2 -3 -2 -5 -2c-3 0 -4 3 -6 7c-4 9 -6 19 -8 28c-1 -2 -2 -4 -4 -6c-2 -3 -4 -7 -7 -10c-3 -4 -6 -9 -10 -13l-3 -3v-5c0 -14 0 -30 -7 -44c-2 -4 -5 -8 -8 -12c-4 -5 -8 -8 -13 -10
c-2 0 -4 -1 -6 -1c-3 0 -6 1 -9 2c-5 3 -8 7 -10 13c-1 3 -1 5 -1 7v6c1 7 4 13 7 19c2 3 9 11 12 14s8 7 13 10c2 1 3 3 3 3v2c0 20 0 9 -1 31c-2 -7 -5 -13 -7 -19c-2 -4 -4 -9 -7 -13s-8 -6 -13 -6c-6 0 -13 4 -15 11c-1 3 -2 8 -3 11c-1 4 -2 8 -2 12
c-7 -13 -16 -24 -28 -30c-3 -2 -7 -3 -10 -3c-13 0 -24 10 -28 22c-1 1 -2 4 -2 6l-2 -3c-1 -5 -3 -10 -5 -14c-2 -5 -5 -8 -9 -11c-2 -1 -4 -1 -7 -1h-2c-12 0 -17 7 -24 17l-11 17c-3 7 -9 21 -18 22l-1 -37c0 -6 -1 -16 -9 -17h-1c-8 0 -9 20 -9 34l2 69c1 12 0 34 6 40
c1 1 3 1 5 1h2c2 0 6 -2 6 -5c1 -3 2 -9 2 -16l-3 -50h1c2 0 13 2 14 3c5 2 10 6 15 10c8 8 14 22 15 34c1 7 2 17 11 17h-1c5 -1 6 -5 6 -8c0 -5 -1 -10 -2 -13c-2 -9 -5 -15 -8 -21c-4 -8 -11 -15 -19 -21c-2 -2 -12 -7 -15 -10c11 -12 22 -40 29 -46c3 -3 6 -8 10 -8
c1 0 3 1 4 3c1 3 5 14 11 35v5c0 3 0 7 1 11c3 15 8 33 22 41c5 3 10 5 16 5c5 0 10 -2 14 -6c4 -5 7 -12 7 -19c0 -6 -2 -12 -7 -17s-10 -8 -16 -11c-4 -2 -16 -7 -16 -7c0 -9 1 -15 2 -22c1 -6 5 -12 10 -15c2 -1 3 -1 4 -1c5 0 9 3 12 6c8 7 16 16 20 30l3 9v3v4v13
s1 16 2 20c0 2 3 4 5 5s3 1 5 1c5 0 9 -4 9 -9c0 -15 -3 -27 -3 -41c1 -12 2 -26 5 -38c0 -2 1 -3 3 -3s4 1 5 3c12 25 18 47 21 74l2 11c1 5 4 9 9 9h3c5 -1 6 -5 6 -10c0 -7 0 -10 -1 -17l-1 -15s-1 -34 -1 -48v-2c9 11 5 7 13 18c3 7 6 13 8 21v4c0 24 2 49 8 72
c2 6 5 11 7 16c3 5 6 9 10 11c3 1 5 2 8 2s5 -1 7 -3c4 -4 5 -10 5 -15c0 -4 0 -7 -1 -10c-4 -13 -11 -23 -19 -34c-3 -4 -5 -7 -5 -7v-5c0 -10 1 -19 1 -21c1 3 2 5 3 8c4 8 7 17 12 24c4 7 10 12 18 12h3c9 -1 20 -9 23 -18c2 -7 3 -13 3 -19v-8c-1 -9 -3 -18 -6 -27
c7 2 14 5 18 12c2 2 3 4 4 6v2c1 6 3 12 5 19c2 6 7 14 12 19s13 8 20 10c3 0 7 1 10 1c9 0 17 -8 20 -12c3 -6 4 -12 4 -19v-11c0 -10 -1 -19 -4 -29c3 0 9 2 12 4c2 1 4 2 5 3c3 3 6 9 7 12v5v2c1 15 6 27 15 35c6 5 12 7 17 7c3 0 6 -1 10 -2c3 -2 6 -4 8 -6
c3 -2 5 -5 7 -8v1c0 10 3 15 8 16h4c3 0 6 -1 7 -2c1 -2 2 -5 2 -7c-1 -6 -1 -27 -2 -64c1 -4 1 -7 1 -10c1 -6 3 -9 6 -9c1 0 3 2 5 5c5 6 9 18 12 36c0 2 0 3 1 4v1c0 2 1 9 2 12l4 25l-3 1c-2 1 -3 4 -3 6c0 1 0 2 1 3c1 3 3 3 5 3c5 0 11 -3 15 -4c5 -1 10 -1 14 -2
c13 -2 17 -6 17 -17v-4c0 -12 -1 -22 -3 -34c0 -6 -1 -12 -1 -19c0 -4 0 -9 2 -14c1 -1 2 -2 4 -2h1c1 0 1 1 3 2c5 7 7 12 10 24c1 1 1 2 1 4c0 6 0 13 1 19c1 8 2 16 6 25c5 7 12 14 20 16c9 3 17 -1 24 -7c2 -1 4 -4 6 -7c1 21 5 42 16 58c4 8 12 16 23 13
c8 -1 14 -12 14 -24s-4 -24 -9 -34c-5 -9 -10 -16 -18 -24c-1 -1 -8 -7 -8 -7c0 -10 0 -26 1 -35c1 -8 3 -16 8 -23c1 0 3 -1 4 -1c8 2 14 24 20 45c1 2 1 4 2 6c3 4 8 4 9 -1c0 -2 0 -3 -1 -5c-5 -18 -9 -46 -28 -56c-5 -2 -12 0 -15 3c-11 8 -15 24 -16 37
c-1 -1 -2 -3 -3 -5c-3 -9 -6 -18 -13 -26c-4 -6 -12 -12 -20 -8c-9 4 -15 13 -19 23v-1c-5 -9 -11 -24 -22 -24c-10 0 -14 8 -18 16c-3 9 -4 17 -4 25c0 9 1 19 2 28c0 5 1 8 2 16v3zM1203 544c0 -3 -2 -15 -2 -21c13 10 26 32 25 50c0 7 -2 16 -9 11c-2 -2 -5 -6 -6 -9
c-4 -10 -7 -20 -8 -31zM1146 499c-2 -14 -1 -29 3 -43c3 -10 10 -6 14 1c4 4 6 9 7 12c3 8 12 33 11 39c0 11 -6 21 -18 22c-4 1 -7 -2 -9 -6c-5 -8 -6 -17 -8 -25zM793 569c-2 -7 -4 -16 -4 -24c1 2 3 4 3 5l4 5c1 3 3 6 5 9c2 4 3 7 4 11c0 2 1 4 1 7l-1 2c0 1 -1 2 -2 2
s-2 0 -3 -1c-4 -5 -5 -10 -7 -16zM633 519c-3 -5 -6 -21 -6 -22c4 2 17 8 21 11c6 4 10 10 10 17v2c0 6 -4 10 -9 10c-2 0 -4 -1 -7 -3c-5 -5 -7 -10 -9 -15zM710 383c16 0 18 46 18 46s-2 -1 -9 -7c-8 -6 -16 -18 -16 -30c0 -5 2 -9 7 -9zM814 453c7 5 8 6 11 12
c-4 0 -9 0 -14 -1c-4 -1 -9 -2 -13 -5c-1 -2 -2 -3 -2 -5c0 -3 5 -5 9 -5c2 0 7 2 9 4zM832 494v9c0 5 0 10 -1 15s-4 15 -9 16h-2c-2 0 -5 -1 -7 -3s-4 -5 -5 -8c-10 -16 -14 -36 -14 -55v-2c0 4 12 6 15 6c4 2 15 2 20 3c0 0 2 9 3 12v7zM910 454c4 2 7 5 10 9
c-6 1 -11 1 -16 3c-8 4 -13 10 -17 17c0 -6 0 -11 1 -14c2 -6 10 -16 18 -16c2 0 3 0 4 1zM929 504h1v5c-1 10 -3 23 -14 27c-1 1 -2 1 -4 1c-7 0 -12 -5 -15 -11c-2 -4 -2 -9 -2 -13c0 -12 5 -28 14 -33c4 -2 8 -4 14 -4h1c1 5 3 6 4 11c1 6 1 11 1 17zM1005 475
c5 13 8 24 8 33c0 6 -1 11 -5 15c-3 4 -8 7 -14 7c-2 0 -6 -2 -8 -7c-6 -11 -9 -24 -9 -40c0 -9 1 -18 4 -27c1 -4 3 -6 5 -6c3 0 6 2 9 7c4 4 6 10 10 18zM1434 379c-4 -4 -8 -7 -12 -7c-2 -1 -4 -2 -7 -2c-2 0 -5 1 -8 3c-5 2 -9 7 -10 12c-1 3 -1 5 -1 7v6c1 7 3 13 7 19
c2 3 9 11 12 14s8 7 13 10l3 3v2c0 20 0 10 -2 31c-2 -6 -4 -13 -7 -19c-1 -4 -3 -9 -7 -13c-3 -3 -7 -6 -12 -6c-6 0 -13 4 -16 11c-1 3 -2 8 -3 11c-1 6 -1 13 -2 19c-7 -7 -17 -12 -28 -13c-5 -9 -12 -17 -20 -22c-5 -4 -10 -6 -16 -6c-3 0 -6 0 -9 1c-1 1 -3 1 -4 1h-2
c-2 -2 -3 -2 -5 -2c-3 0 -4 3 -6 7c-6 15 -10 31 -10 47v6c0 24 2 49 8 72c2 6 4 11 7 16s5 9 10 11c3 1 5 2 8 2c2 0 5 -1 7 -3c4 -4 5 -10 5 -15c0 -4 0 -7 -1 -10c-4 -13 -11 -23 -19 -34c-3 -4 -5 -7 -5 -7v-5v-21c2 3 3 5 4 8c3 8 7 17 11 24c5 7 11 12 19 12h2
c10 -1 20 -9 24 -18c2 -7 3 -13 3 -19l-1 -8c0 -9 -2 -18 -6 -27c8 2 14 5 19 12c2 2 2 4 3 6c1 1 1 3 2 4v3v14s0 15 1 19c1 3 3 5 6 6c1 1 3 1 4 1c6 0 9 -4 9 -10c0 -15 -3 -27 -3 -40c1 -13 2 -26 5 -38c1 -3 2 -4 3 -4c2 0 4 2 5 4c12 24 18 47 22 73l1 11
c1 6 4 10 10 10h2c6 -1 7 -5 7 -10c0 -8 -1 -10 -1 -17l-1 -16s-2 -33 -2 -48v-2c9 11 5 7 13 18c4 8 7 15 9 23c0 2 1 4 2 6c1 1 2 3 4 3s4 -2 4 -5v-1v-4c-3 -10 -7 -20 -13 -28c-2 -3 -4 -7 -7 -10c-3 -5 -6 -9 -10 -13l-3 -3v-5c0 -15 0 -31 -7 -44c-2 -4 -4 -9 -8 -13z
M1306 569c-2 -7 -4 -16 -4 -24c1 2 3 4 4 5l3 5c1 3 3 6 5 9c2 4 3 7 4 11c1 2 1 4 1 7v2c-1 1 -2 2 -3 2s-2 0 -3 -1c-4 -5 -5 -10 -7 -16zM1327 453c7 5 8 6 11 12c-4 0 -9 0 -14 -1c-4 -1 -9 -2 -12 -5c-2 -2 -3 -3 -3 -5c0 -3 5 -5 9 -5c2 0 8 2 9 4zM1345 494v9
c0 5 0 10 -1 15s-4 15 -9 16h-2c-2 0 -5 -1 -6 -3c-3 -2 -5 -5 -6 -8c-9 -16 -14 -36 -14 -55v-2c0 4 12 6 15 6c5 2 15 2 20 3c0 0 2 9 3 12v7zM1412 383c16 0 19 46 19 46s-3 -1 -10 -7s-16 -18 -16 -30c0 -5 3 -9 7 -9zM1538 489c13 21 23 45 27 58c1 4 1 8 1 12
c0 7 -2 13 -8 14c-7 0 -18 -8 -24 -16c-1 -1 -2 -2 -3 -2s-2 1 -2 3c0 1 1 3 2 5c7 9 19 18 27 18c19 -1 25 -12 25 -27c0 -26 -20 -65 -29 -79c-7 -9 -10 -18 -15 -28h15l34 1c5 -1 6 -1 6 -3c0 -1 -2 -4 -7 -5c-11 -1 -27 -2 -41 -2c-12 0 -21 1 -24 5c-1 1 -2 2 -2 4
c0 8 6 23 18 42zM1614 439c-9 0 -10 19 -11 33v12c0 4 2 46 3 55c1 12 0 34 6 40c2 1 4 1 5 1h3c2 0 6 -2 6 -4c1 -5 1 -11 1 -18c0 -34 -4 -88 -4 -102c0 -6 0 -16 -9 -17zM1702 440c-12 0 -28 -2 -40 -2s-22 1 -25 5c-1 1 -1 2 -1 4c0 8 6 23 17 42c13 20 24 45 26 58
c1 4 2 8 2 12c0 7 -2 13 -8 14h-1c-6 0 -17 -8 -23 -16c-1 -1 -2 -2 -3 -2s-2 1 -2 3c0 1 0 3 2 5c7 9 18 18 27 18c19 -1 25 -12 25 -27c0 -26 -20 -65 -29 -79c-7 -9 -11 -18 -16 -28h16l34 1c4 -1 5 -1 5 -3c0 -1 -2 -4 -6 -5zM1816 524c3 0 5 -1 7 -3c0 -1 -2 -4 -6 -6
l-36 -3c-2 -26 -3 -52 -3 -60c0 -6 -1 -16 -10 -17c-9 0 -10 18 -10 32l4 93l1 8c-2 -2 -7 -4 -10 -4c-2 0 -4 1 -5 2c0 3 -1 4 -1 5c0 5 12 7 16 8l62 9c2 0 4 -1 5 -3c1 -1 1 -2 1 -3c0 -6 -17 -7 -20 -7l-30 -4l-1 -51l34 4h2zM2143 503c2 0 3 -1 -1 -5c0 -3 0 -6 -1 -9
c-5 -10 -12 -16 -21 -20c-3 -1 -6 -2 -8 -2v-2c0 -4 -1 -9 -3 -14s-4 -9 -8 -12c-3 -2 -6 -3 -10 -3c-5 0 -8 1 -11 2c-4 3 -6 7 -6 13c0 5 1 10 4 14c2 3 6 7 10 9h1l1 1v0v1v1v1c-2 6 -4 13 -5 20c-2 7 -3 14 -3 19c-2 -4 -3 -8 -4 -11c0 -2 -1 -3 -1 -4c0 -2 -1 -4 -1 -6
v0v-3c-4 -15 -5 -26 -13 -40c-3 -6 -7 -12 -13 -15c-2 -1 -5 -1 -7 -1c-1 0 -3 0 -6 1c-4 1 -7 4 -11 6c-4 4 -5 9 -7 14c-3 8 -4 15 -4 23v7c-2 -11 -7 -24 -8 -27c-5 -8 -10 -23 -22 -23c-17 0 -19 25 -20 37v10c0 14 1 27 1 41v2c0 0 0 1 -1 1s-3 -3 -4 -5
c-3 -5 -7 -12 -9 -17c-3 -7 -6 -13 -9 -20c-5 -13 -10 -26 -11 -40c0 -5 -1 -10 -7 -10h-1c-4 1 -7 2 -9 6c-2 3 -3 7 -4 10v24c-6 -9 -16 -13 -27 -14h-2c-1 -3 -2 -5 -4 -7c-6 -11 -16 -16 -24 -16c-9 0 -19 5 -25 16c-7 10 -10 20 -10 31c0 9 2 18 6 27c2 6 7 15 12 20
c5 4 14 8 21 9c2 1 6 1 9 1c9 0 17 -7 20 -12s4 -12 4 -18v-12c0 -9 -1 -19 -4 -29c3 0 9 2 12 4c2 1 4 3 5 4c4 3 6 8 7 13c0 1 0 3 1 4l-1 34c1 3 2 6 5 9c2 1 4 2 7 2h2c3 0 5 -2 5 -4c1 -2 1 -4 1 -6v-1c0 -34 0 -17 1 -52c3 8 7 20 11 28c4 9 9 18 14 26c2 3 5 6 8 8
c3 3 6 4 9 4c6 0 11 -4 12 -11c1 -5 1 -9 1 -14c0 -6 -1 -12 -1 -18c0 -1 -1 -12 -1 -24s1 -25 6 -25c1 0 2 1 3 2c6 5 7 11 11 22c1 4 3 17 4 22v4l2 7l5 36c1 1 1 3 1 4v5h-3c-3 0 -6 0 -8 -1l-3 -2c-1 -1 -2 -1 -3 -1s-2 0 -4 2v1c0 2 2 4 4 6c2 1 4 2 7 2c2 1 5 1 7 1h3
c0 11 0 22 5 26c2 2 5 3 8 3h1c3 0 6 -2 7 -5c1 -2 1 -8 1 -17v-12h3c5 0 8 2 13 3c3 2 7 4 10 6h1c3 0 4 -2 4 -4v-1c0 -1 -1 -3 -2 -4c-9 -4 -18 -8 -27 -8h-2c0 -27 -1 -63 -1 -74v-4c0 -5 0 -25 9 -25h1c7 1 11 12 14 18c3 11 4 18 7 28c0 1 0 2 1 4v5c1 2 1 3 1 4v1
c1 0 1 1 1 2c1 2 1 3 1 4v1c3 10 6 19 12 28c2 4 5 6 8 8c3 1 7 1 11 0c1 -1 2 -3 2 -5s0 -4 -1 -6c-1 -4 -2 -9 -1 -14c0 -5 1 -10 2 -16c1 -5 3 -10 5 -16c1 -1 1 -2 1 -3c1 -4 2 -9 3 -13c6 1 12 4 18 10c1 1 2 4 3 6c0 1 1 2 1 3c1 1 1 3 2 4c1 2 3 2 4 2zM1866 454
c3 2 6 5 9 9c-6 1 -11 1 -15 3c-8 4 -14 10 -18 17c0 -6 0 -11 2 -14c2 -6 9 -16 17 -16c2 0 3 0 5 1zM1884 504h1v5c-1 10 -3 23 -13 27c-2 1 -3 1 -5 1c-7 0 -12 -5 -15 -11c-1 -4 -2 -9 -2 -13c0 -12 5 -28 14 -33c4 -2 9 -4 14 -4h1c2 5 3 6 4 11c1 6 1 11 1 17z
M2099 454v7c0 2 0 4 -1 6v2c-1 -1 -1 -1 -2 -1c0 0 0 -1 -1 -1s-1 0 -2 -1s-3 -2 -4 -4s-2 -4 -2 -6c1 -3 2 -5 5 -6c2 0 4 0 5 2c1 0 1 1 1 1zM2324 592v-485c0 -67 -41 -107 -107 -107h-2010c-66 0 -106 41 -107 106v244v241c1 69 40 108 110 108h2006
c67 0 108 -39 108 -107zM206 577c0 60 35 95 94 94c88 1 1722 0 1810 1c14 0 29 4 43 6c-132 4 -1810 4 -1942 4c-60 0 -93 -32 -94 -93v-441v-19c2 0 3 -1 5 -1c24 25 49 50 71 76c7 8 12 20 12 30c1 115 1 229 1 343zM2195 218v179c0 62 1 123 0 185c0 41 -26 71 -68 71
c-96 1 -1738 1 -1834 0c-43 0 -69 -30 -69 -73v-364c0 -44 28 -72 73 -72h1824c46 1 74 28 74 74z" />
    <glyph glyph-name="braceleft" unicode="{" 
d="M448 321c-4 -8 -11 -14 -19 -18c8 -4 14 -11 19 -18c3 -8 5 -17 5 -27v-29c0 -13 3 -23 7 -32c5 -8 12 -14 23 -18l-6 -16c-19 5 -32 14 -40 25s-12 25 -12 41v30c0 10 -3 19 -8 25c-4 6 -12 9 -22 9v21c10 0 18 3 22 9c5 5 8 14 8 24v30c0 16 4 30 12 41
c8 12 21 20 40 25l6 -17c-11 -3 -19 -9 -23 -17c-4 -9 -7 -20 -7 -32v-30c0 -9 -1 -19 -5 -26zM778 592v-484c0 -67 -41 -107 -108 -107h-463c-65 0 -106 41 -107 106v244v240c0 69 41 109 110 109h459c68 0 109 -40 109 -108zM206 578c0 60 35 95 95 94c87 1 175 0 263 1
c14 0 28 3 42 5c-132 5 -263 5 -395 5c-61 0 -94 -33 -94 -93v-442v-19c2 0 4 0 5 -1c24 25 49 50 71 77c7 7 12 20 12 30c1 114 1 229 1 343zM648 219v179c0 61 1 123 0 184c0 42 -26 71 -67 72c-97 1 -193 1 -289 0c-43 -1 -69 -30 -69 -73v-364c0 -44 28 -72 73 -72h279
c45 0 73 27 73 74z" />
    <glyph glyph-name="bar" unicode="|" 
d="M453 176h-28v248h28v-248zM778 592v-484c0 -67 -41 -107 -108 -107h-463c-65 0 -106 41 -107 106v244v240c0 69 41 109 110 109h459c68 0 109 -40 109 -108zM206 578c0 60 35 95 95 94c87 1 175 0 263 1c14 0 28 3 42 5c-132 5 -263 5 -395 5c-61 0 -94 -33 -94 -93v-442
v-19c2 0 4 0 5 -1c24 25 49 50 71 77c7 7 12 20 12 30c1 114 1 229 1 343zM648 219v179c0 61 1 123 0 184c0 42 -26 71 -67 72c-97 1 -193 1 -289 0c-43 -1 -69 -30 -69 -73v-364c0 -44 28 -72 73 -72h279c45 0 73 27 73 74z" />
    <glyph glyph-name="braceright" unicode="}" 
d="M453 348c0 -11 2 -20 7 -25c5 -6 12 -9 23 -9v-21c-11 0 -18 -3 -23 -9s-7 -14 -7 -25v-30c0 -16 -4 -30 -12 -41c-8 -12 -21 -20 -40 -25l-6 16c11 4 19 9 23 18c5 9 7 19 7 32v29c0 11 2 20 6 27c5 8 11 14 20 18c-9 4 -15 10 -20 17c-4 8 -6 17 -6 27v30
c0 12 -3 23 -7 32c-5 8 -12 14 -23 17l6 17c19 -5 32 -13 40 -25c8 -11 12 -25 12 -41v-29zM778 592v-484c0 -67 -41 -107 -108 -107h-463c-65 0 -106 41 -107 106v244v240c0 69 41 109 110 109h459c68 0 109 -40 109 -108zM206 578c0 60 35 95 95 94c87 1 175 0 263 1
c14 0 28 3 42 5c-132 5 -263 5 -395 5c-61 0 -94 -33 -94 -93v-442v-19c2 0 4 0 5 -1c24 25 49 50 71 77c7 7 12 20 12 30c1 114 1 229 1 343zM648 219c0 60 0 120 1 179v184c0 42 -26 71 -68 72c-96 1 -192 1 -289 0c-42 -1 -68 -30 -68 -73v-364c0 -44 28 -72 72 -72h279
c46 0 73 27 73 74z" />
    <glyph glyph-name="asciitilde" unicode="~" 
d="M494 304c4 6 7 12 7 20l20 -3c0 -13 -4 -24 -12 -34c-9 -10 -19 -15 -32 -15c-8 0 -16 2 -23 5s-15 8 -23 15c-6 5 -11 8 -15 11c-5 2 -10 3 -14 3c-6 0 -12 -3 -17 -8c-4 -5 -7 -11 -7 -18l-20 3c0 13 4 24 12 33s19 14 32 14c8 0 16 -2 23 -5s15 -8 23 -15
c5 -5 10 -8 15 -11c5 -2 10 -3 14 -3c6 0 12 3 17 8zM778 592v-484c0 -67 -41 -107 -108 -107h-463c-66 0 -106 40 -107 106v244v240c1 69 40 109 110 109h459c68 0 109 -40 109 -108zM206 578c0 60 35 95 95 94c88 1 175 0 263 1c14 0 29 3 43 5c-133 5 -264 5 -396 5
c-60 0 -93 -33 -94 -93v-442v-19c2 0 3 0 5 -1c24 25 49 50 71 77c7 7 12 20 12 30c1 114 1 229 1 343zM648 219c0 60 0 120 1 179v184c0 42 -27 71 -68 72c-97 1 -192 1 -289 0c-42 -1 -69 -30 -69 -73v-364c0 -44 28 -72 73 -72h279c46 0 73 27 73 74z" />
    <glyph glyph-name="nbspace" unicode="&#xa0;" horiz-adv-x="389" 
 />
    <glyph glyph-name="softhyphen" unicode="&#xad;" horiz-adv-x="0" 
 />
    <glyph glyph-name="a.alt1" unicode="&#xf001;" 
d="M359 215v115h72v-12h-56v-40h48v-13h-48v-50h-16zM451 315v12l40 4v-116h-16v101zM778 592v-484c0 -67 -41 -107 -108 -107h-463c-66 0 -106 40 -107 106v244v240c1 69 40 109 110 109h459c68 0 109 -40 109 -108zM206 578c0 60 35 95 95 94c88 1 175 0 263 1
c14 0 29 3 43 5c-133 5 -264 5 -396 5c-60 0 -93 -33 -94 -93v-442v-19c2 0 3 0 5 -1c24 25 49 50 71 77c7 7 12 20 12 30c1 114 1 229 1 343zM648 219c0 60 0 120 1 179v184c0 42 -27 71 -68 72c-97 1 -192 1 -289 0c-42 -1 -69 -30 -69 -73v-364c0 -44 28 -72 73 -72h279
c46 0 73 27 73 74z" />
    <glyph glyph-name="b.alt1" unicode="&#xf002;" 
d="M360 215v115h71v-12h-56v-40h49v-13h-49v-50h-15zM495 261l-29 -34l53 1v-13h-71v11l36 43c7 8 11 14 13 19c2 4 3 9 3 14s-1 9 -5 12c-3 4 -7 5 -12 5c-7 0 -12 -2 -16 -6s-5 -9 -5 -16h-16v1c0 9 3 17 10 23c6 7 15 10 26 10c10 0 18 -3 24 -8c6 -6 9 -13 9 -23
c0 -5 -2 -12 -5 -17c-3 -6 -8 -13 -15 -22zM778 592v-484c0 -67 -41 -107 -108 -107h-463c-65 0 -106 41 -107 106v244v240c0 69 41 109 110 109h459c68 0 109 -40 109 -108zM206 578c0 60 35 95 95 94c87 1 175 0 263 1c14 0 28 3 42 5c-132 5 -263 5 -395 5
c-61 0 -94 -33 -94 -93v-442v-19c2 0 4 0 5 -1c24 25 49 50 71 77c7 7 12 20 12 30c1 114 1 229 1 343zM648 219v179c0 61 1 123 0 184c0 42 -26 71 -67 72c-97 1 -193 1 -289 0c-43 -1 -69 -30 -69 -73v-364c0 -44 28 -72 73 -72h279c45 0 73 27 73 74z" />
    <glyph glyph-name="c.alt1" unicode="&#xf003;" horiz-adv-x="779" 
d="M360 215v115h72v-12h-56v-40h48v-13h-48v-50h-16zM500 275c6 -3 11 -6 14 -11c3 -4 5 -10 5 -17c0 -11 -4 -19 -11 -25c-6 -6 -15 -9 -25 -9s-19 3 -26 9c-8 5 -11 13 -11 22v1h15c0 -5 2 -10 6 -14s9 -6 16 -6c6 0 11 2 15 6c3 4 5 9 5 15c0 7 -2 12 -5 16s-8 6 -15 6
h-13v11h13c7 0 11 3 14 6c3 4 4 8 4 14s-1 11 -4 14c-4 4 -9 6 -14 6c-7 0 -12 -2 -16 -6c-3 -3 -5 -8 -5 -14h-16v1c0 9 4 16 10 22c7 6 15 9 26 9s19 -3 25 -8s9 -13 9 -24c0 -5 -1 -10 -4 -14s-7 -8 -12 -10zM778 592c1 -161 1 -323 0 -484c0 -67 -41 -107 -108 -107
h-463c-65 0 -106 41 -107 106v244v240c0 69 41 109 110 109h459c68 0 109 -40 109 -108zM206 578c0 60 35 95 95 94c87 1 175 0 263 1c14 0 28 3 42 5c-132 5 -263 5 -395 5c-61 0 -94 -33 -94 -93v-442v-19c2 0 4 0 5 -1c24 25 49 50 71 77c7 7 12 20 12 30
c1 114 1 229 1 343zM648 219c0 60 0 120 1 179v184c0 42 -26 71 -68 72c-96 1 -192 1 -289 0c-42 -1 -68 -30 -68 -73v-364c0 -44 28 -72 72 -72h279c46 0 73 27 73 74z" />
    <glyph glyph-name="d.alt1" unicode="&#xf004;" 
d="M358 215v115h72v-12h-56v-40h48v-13h-48v-50h-16zM488 330h17v-76h15v-13h-15v-26h-16v26h-50v9zM489 254v53h-1l-1 -3l-31 -50h33zM778 592v-484c0 -67 -41 -107 -108 -107h-463c-65 0 -106 41 -107 106v244v240c0 69 41 109 110 109h459c68 0 109 -40 109 -108z
M206 578c0 60 35 95 95 94c87 1 175 0 263 1c14 0 28 3 42 5c-132 5 -263 5 -395 5c-61 0 -94 -33 -94 -93v-442v-19c2 0 4 0 5 -1c24 25 49 50 71 77c7 7 12 20 12 30c1 114 1 229 1 343zM648 219v179c0 61 1 123 0 184c0 42 -26 71 -67 72c-97 1 -193 1 -289 0
c-43 -1 -69 -30 -69 -73v-364c0 -44 28 -72 73 -72h279c45 0 73 27 73 74z" />
    <glyph glyph-name="e.alt1" unicode="&#xf005;" 
d="M360 215v115h72v-12h-57v-40h49v-13h-49v-50h-15zM484 289c11 0 19 -3 25 -10s9 -16 9 -28c0 -11 -3 -21 -9 -28s-15 -10 -27 -10c-10 0 -18 3 -24 8c-7 6 -9 14 -9 24v1h14c0 -7 1 -12 5 -15c4 -4 8 -5 14 -5s11 2 15 7c4 4 5 10 5 18s-1 14 -5 18c-3 5 -9 7 -15 7
s-11 0 -13 -2c-3 -3 -5 -5 -6 -9l-13 1l6 64h58v-14h-44l-4 -33c2 2 5 3 8 5c3 1 6 1 10 1zM778 592v-484c0 -67 -41 -107 -108 -107h-463c-65 0 -106 41 -107 106v244v240c0 69 41 109 110 109h459c68 0 109 -40 109 -108zM206 578c0 60 35 95 95 94c87 1 175 0 263 1
c14 0 28 3 42 5c-132 5 -263 5 -395 5c-61 0 -94 -33 -94 -93v-442v-19c2 0 4 0 5 -1c24 25 49 50 71 77c7 7 12 20 12 30c1 114 1 229 1 343zM648 219v179c0 61 1 123 0 184c0 42 -26 71 -67 72c-97 1 -193 1 -289 0c-43 -1 -69 -30 -69 -73v-364c0 -44 28 -72 73 -72h279
c45 0 73 27 73 74z" />
    <glyph glyph-name="f.alt1" unicode="&#xf006;" horiz-adv-x="779" 
d="M360 215v115h71v-12h-56v-40h49v-13h-49v-50h-15zM487 288c10 0 18 -3 25 -10c6 -6 9 -15 9 -25c0 -12 -3 -21 -10 -28c-6 -7 -15 -11 -26 -11s-20 4 -27 12s-10 18 -10 32v27c0 13 3 25 11 33c8 9 17 13 28 13c5 0 10 0 14 -1c4 0 8 -2 11 -3l-4 -12c-3 2 -6 3 -9 3
c-4 1 -8 1 -12 1c-8 0 -14 -3 -18 -9c-5 -6 -7 -14 -7 -23v-9c3 3 7 6 11 7c5 2 10 3 14 3zM499 233c3 4 5 11 5 20c0 7 -2 13 -6 17c-4 5 -9 7 -16 7c-5 0 -9 -1 -12 -3c-4 -3 -7 -5 -8 -9v-8c0 -10 2 -18 6 -23c4 -6 10 -9 16 -9s11 3 15 8zM778 592c1 -161 1 -323 0 -484
c0 -67 -41 -107 -108 -107h-463c-65 0 -106 41 -107 106v244v240c0 69 41 109 110 109h459c68 0 109 -40 109 -108zM206 578c0 60 35 95 95 94c87 1 175 0 263 1c14 0 28 3 42 5c-132 5 -263 5 -395 5c-61 0 -94 -33 -94 -93v-442v-19c2 0 4 0 5 -1c24 25 49 50 71 77
c7 7 12 20 12 30c1 114 1 229 1 343zM648 219c0 60 0 120 1 179v184c0 42 -26 71 -68 72c-96 1 -192 1 -289 0c-42 -1 -68 -30 -68 -73v-364c0 -44 28 -72 72 -72h279c46 0 73 27 73 74z" />
    <glyph glyph-name="g.alt1" unicode="&#xf007;" 
d="M359 215v115h72v-12h-56v-40h48v-13h-48v-50h-16zM443 318v12h76v-12c-14 -18 -25 -33 -29 -46c-5 -13 -8 -28 -8 -44v-13h-16v13c0 17 4 33 10 47s16 28 28 43h-61zM778 592v-484c0 -67 -41 -107 -108 -107h-463c-65 0 -106 41 -107 106v244v240c0 69 41 109 110 109
h459c68 0 109 -40 109 -108zM206 578c0 60 35 95 95 94c87 1 175 0 263 1c14 0 28 3 42 5c-132 5 -263 5 -395 5c-61 0 -94 -33 -94 -93v-442v-19c2 0 4 0 5 -1c24 25 49 50 71 77c7 7 12 20 12 30c1 114 1 229 1 343zM648 219c0 60 0 120 1 179v184c0 42 -26 71 -68 72
c-96 1 -192 1 -289 0c-42 -1 -68 -30 -68 -73v-364c0 -44 28 -72 72 -72h279c46 0 73 27 73 74z" />
    <glyph glyph-name="h.alt1" unicode="&#xf008;" 
d="M360 215v115h72v-12h-57v-40h49v-13h-49v-50h-15zM497 274c7 -2 12 -6 16 -11c3 -5 6 -10 6 -17c0 -11 -4 -19 -11 -25s-15 -8 -26 -8s-20 2 -27 8s-11 14 -11 25c0 7 2 12 6 17c3 5 9 9 16 11c-6 2 -10 6 -14 10c-4 5 -6 10 -6 16c0 10 4 18 10 23c7 5 15 8 25 8
s18 -3 25 -8c6 -5 9 -13 9 -23c0 -6 -1 -11 -4 -16c-4 -4 -9 -8 -14 -10zM463 300c0 -5 2 -10 6 -14c3 -3 8 -5 14 -5c5 0 9 2 12 5c4 4 5 9 5 14c0 6 -2 10 -5 14c-4 4 -8 5 -13 5c-6 0 -10 -1 -14 -5s-5 -8 -5 -14zM497 231c4 4 6 9 6 16c0 6 -2 11 -6 15s-9 6 -15 6
s-12 -1 -16 -6c-4 -4 -7 -9 -7 -15c0 -7 3 -12 7 -16s10 -6 16 -6s11 2 15 6zM778 592c0 -161 1 -323 0 -484c0 -67 -41 -107 -108 -107h-463c-65 0 -106 41 -107 106v244v240c0 69 41 109 110 109h459c68 0 109 -40 109 -108zM206 578c0 60 35 95 95 94c87 1 175 0 263 1
c14 0 28 3 42 5c-132 5 -263 5 -395 5c-61 0 -94 -33 -94 -93v-442v-19c2 0 4 0 5 -1c24 25 49 50 71 77c7 7 12 20 12 30c1 114 1 229 1 343zM648 219c0 60 0 120 1 179v184c0 42 -26 71 -68 72c-96 1 -192 1 -289 0c-42 -1 -68 -30 -68 -73v-364c0 -44 28 -72 72 -72h279
c46 0 73 27 73 74z" />
    <glyph glyph-name="i.alt1" unicode="&#xf009;" 
d="M361 215v115h72v-12h-57v-40h49v-13h-49v-50h-15zM479 331c12 0 20 -3 27 -10c7 -8 10 -18 10 -31v-35c0 -13 -3 -23 -11 -30c-7 -8 -17 -12 -29 -12c-4 0 -8 0 -12 1c-5 1 -8 2 -12 4l2 12c3 -2 7 -3 10 -4c3 0 8 -1 12 -1c8 0 14 2 18 8c5 5 7 12 7 22v9
c-2 -3 -6 -6 -9 -8c-4 -2 -8 -3 -13 -3c-10 0 -19 3 -26 10c-6 7 -9 17 -9 29s4 21 10 28s15 11 25 11zM501 279v13c0 9 -2 15 -6 20c-3 5 -9 7 -16 7c-5 0 -10 -2 -14 -7c-3 -5 -5 -12 -5 -20s2 -14 5 -19c4 -5 8 -8 15 -8c5 0 10 2 13 4c4 3 7 6 8 10zM778 592v-484
c0 -67 -41 -107 -108 -107h-463c-65 0 -106 41 -107 106v244v240c0 69 41 109 110 109h459c68 0 109 -40 109 -108zM206 578c0 60 35 95 95 94c87 1 175 0 263 1c14 0 28 3 42 5c-132 5 -263 5 -395 5c-61 0 -94 -33 -94 -93v-442v-19c2 0 4 0 5 -1c24 25 49 50 71 77
c7 7 12 20 12 30c1 114 1 229 1 343zM648 219v179c0 61 1 123 0 184c0 42 -26 71 -67 72c-97 1 -193 1 -289 0c-43 -1 -69 -30 -69 -73v-364c0 -44 28 -72 73 -72h279c45 0 73 27 73 74z" />
    <glyph glyph-name="j.alt1" unicode="&#xf00a;" horiz-adv-x="779" 
d="M315 215v115h72v-12h-56v-40h48v-13h-48v-50h-16zM406 315v12l40 4v-116h-15v101zM527 331c11 0 20 -4 27 -11c7 -8 10 -18 10 -31v-34c0 -13 -3 -23 -10 -30c-6 -8 -15 -12 -26 -12s-20 4 -27 12c-7 7 -10 17 -10 30v34c0 13 3 23 10 31c6 7 15 11 26 11zM548 252v40
c0 8 -1 14 -5 19s-9 7 -16 7s-12 -2 -15 -7c-4 -5 -6 -11 -6 -19v-41c0 -8 2 -14 6 -19c3 -5 9 -7 15 -7c7 0 12 2 16 7s5 12 5 20zM778 592c1 -161 1 -323 0 -484c0 -67 -41 -107 -108 -107h-463c-65 0 -106 41 -107 106v244v240c0 69 41 109 110 109h459
c68 0 109 -40 109 -108zM206 578c0 60 35 95 95 94c87 1 175 0 263 1c14 0 28 3 42 5c-132 5 -263 5 -395 5c-61 0 -94 -33 -94 -93v-442v-19c2 0 4 0 5 -1c24 25 49 50 71 77c7 7 12 20 12 30c1 114 1 229 1 343zM648 219c0 60 0 120 1 179v184c0 42 -26 71 -68 72
c-96 1 -192 1 -289 0c-42 -1 -68 -30 -68 -73v-364c0 -44 28 -72 72 -72h279c46 0 73 27 73 74z" />
    <glyph glyph-name="k.alt1" unicode="&#xf00b;" 
d="M327 215v115h73v-12h-57v-40h49v-13h-49v-50h-16zM419 315v12l40 4v-116h-15v101zM509 315v12l41 4v-116h-15v101zM778 592v-484c0 -67 -41 -107 -108 -107h-463c-65 0 -106 41 -107 106v244v240c0 69 41 109 110 109h459c68 0 109 -40 109 -108zM206 578
c0 60 35 95 95 94c87 1 175 0 263 1c14 0 28 3 42 5c-132 5 -263 5 -395 5c-61 0 -94 -33 -94 -93v-442v-19c2 0 4 0 5 -1c24 25 49 50 71 77c7 7 12 20 12 30c1 114 1 229 1 343zM648 219v179c0 61 1 123 0 184c0 42 -26 71 -67 72c-97 1 -193 1 -289 0
c-43 -1 -69 -30 -69 -73v-364c0 -44 28 -72 73 -72h279c45 0 73 27 73 74z" />
    <glyph glyph-name="l.alt1" unicode="&#xf00c;" horiz-adv-x="779" 
d="M315 215v115h71v-12h-56v-40h49v-13h-49v-50h-15zM406 315v12l40 4v-116h-16v101zM541 261l-29 -34l53 1v-13h-71v11l36 43c6 8 11 14 13 19c2 4 3 9 3 14s-2 9 -5 12c-3 4 -7 5 -13 5c-7 0 -12 -2 -15 -6c-4 -4 -6 -9 -6 -16h-15v1c0 9 3 17 9 23c7 7 15 10 27 10
c10 0 18 -3 24 -8c6 -6 9 -13 9 -23c0 -5 -2 -11 -5 -17s-8 -13 -15 -22zM778 592c1 -161 1 -323 0 -484c0 -67 -41 -107 -108 -107h-463c-65 0 -106 41 -107 106v244v240c0 69 41 109 110 109h459c68 0 109 -40 109 -108zM206 578c0 60 35 95 95 94c87 1 175 0 263 1
c14 0 28 3 42 5c-132 5 -263 5 -395 5c-61 0 -94 -33 -94 -93v-442v-19c2 0 4 0 5 -1c24 25 49 50 71 77c7 7 12 20 12 30c1 114 1 229 1 343zM648 219c0 60 0 120 1 179v184c0 42 -26 71 -68 72c-96 1 -192 1 -289 0c-42 -1 -68 -30 -68 -73v-364c0 -44 28 -72 72 -72h279
c46 0 73 27 73 74z" />
  </font>
</defs>
</svg>
